<?xml version="1.0" encoding="utf-8"?>
<!-- Generator: Adobe Illustrator 24.0.0, SVG Export Plug-In . SVG Version: 6.00 Build 0)  -->
<svg version="1.1"
	 id="svg8" xmlns:cc="http://creativecommons.org/ns#" xmlns:dc="http://purl.org/dc/elements/1.1/" xmlns:inkscape="http://www.inkscape.org/namespaces/inkscape" xmlns:rdf="http://www.w3.org/1999/02/22-rdf-syntax-ns#" xmlns:sodipodi="http://sodipodi.sourceforge.net/DTD/sodipodi-0.dtd" xmlns:svg="http://www.w3.org/2000/svg"
	 xmlns="http://www.w3.org/2000/svg" xmlns:xlink="http://www.w3.org/1999/xlink" x="0px" y="0px" viewBox="0 0 396.8 321"
	 style="enable-background:new 0 0 396.8 321;" xml:space="preserve">
<style type="text/css">
	.st0{fill:#DEE3D7;}
	.st1{fill:#C6D1B8;}
	.st2{fill:#93C0DF;}
	.st3{fill:#BBAC9C;}
	.st4{fill:#6897B4;}
	.st5{fill:#947949;}
	.st6{fill:#327496;}
	.st7{fill:#1B203F;}
	.st8{font-family:'Helvetica';}
	.st9{font-size:60px;}
	.st10{fill:#FFFFFF;}
</style>
<sodipodi:namedview  bordercolor="#666666" borderopacity="1.0" id="base" inkscape:current-layer="g3843" inkscape:cx="293.35401" inkscape:cy="600.68978" inkscape:document-units="mm" inkscape:pageopacity="0.0" inkscape:pageshadow="2" inkscape:window-height="997" inkscape:window-maximized="1" inkscape:window-width="1680" inkscape:window-x="1912" inkscape:window-y="27" inkscape:zoom="1.4" pagecolor="#ffffff" showgrid="false">
	</sodipodi:namedview>
<g id="layer1" inkscape:groupmode="layer" inkscape:label="Layer 1">
	
		<image style="overflow:visible;enable-background:new    ;" width="529" height="429" id="image3840" xlink:href="A69FA9483A1D54D0.png"  transform="matrix(0.7493 0 0 0.7493 0.1839 -0.2263)">
	</image>
	<g id="g3843">
		<path id="path3859" inkscape:connector-curvature="0" class="st0" d="M0,160.5V0h198.4h198.4v160.5V321H198.4H0V160.5z"/>
		<path id="path3857" inkscape:connector-curvature="0" class="st1" d="M0,241.5V162l2.1,0.9c1.1,0.5,7,4.5,12.9,8.9
			c6,4.4,14.1,9.7,18,11.8c5.7,3,8.1,4.9,11.8,9l4.7,5.2v7.8c0,7.4,0.2,8.2,3,15.2c1.7,4.1,3,7.6,3,8s-0.9,0.3-1.9-0.1
			c-2.4-0.9-3.3-0.9-3.3,0c0,0.4,0.9,0.8,2.1,0.9c1.7,0.2,2.5,1.1,4.7,5.3c4.1,7.8,7,10.3,18.2,15.6c9.8,4.6,9.9,4.7,14.4,10.5
			c4,5.2,4.9,6,8,6.7c2.8,0.7,4.2,0.6,7.6-0.3c4.8-1.4,7.3-4.2,7.9-8.9c0.5-4.3,1.3-5,5.7-5c3.6,0,4.1,0.2,7.7,3.8
			c3.6,3.5,4.1,3.8,6,3.1c2-0.7,2.2-1,2.3-5.2c0.1-2.4,1.6-12.5,3.3-22.4c2.5-14.7,3-19,2.6-23.6l-0.5-5.6l3.8-6.2
			c2.1-3.4,5.5-10.5,7.5-15.7s4.2-10.1,5-10.8c0.7-0.7,8.8-5.4,17.9-10.3l16.5-9l14.1-3.5c13.7-3.4,14.1-3.6,15.2-5.9l1.1-2.3
			l-1.7,2c-1.5,1.7-3.8,2.5-15.5,5.5l-13.8,3.5l-16.6,9.1c-9.1,5-17.3,10-18.2,11c-0.9,1.1-3.1,5.8-4.9,10.6
			c-1.8,4.7-5,11.6-7.3,15.3l-4,6.7l0.5,5.4c0.4,4.5,0,8.4-2.5,23c-1.7,9.7-3.1,19.7-3.1,22.3c0,4.1-0.2,4.7-1.7,5.3
			c-1.4,0.5-2.3,0.1-5.4-2.9c-3.3-3.2-4.2-3.6-7.7-3.9c-5.1-0.5-6.6,0.6-7.3,5.2c-0.8,5.2-2.7,7.4-7.4,8.8c-3.6,1.1-4.3,1.1-7.5,0
			c-2.9-1-4.1-2.1-7.3-6.4c-3.7-5-4.3-5.4-13-9.8c-5-2.5-10.9-6.1-13-7.9c-4.1-3.5-7.7-9.4-7.5-12.4c0.1-0.9-1.3-5.3-3-9.6
			c-3-7.5-3.1-8.3-3.1-15.7v-7.7l-5-5.3c-3.9-4.1-6.6-6.2-12.3-9.2c-4-2.1-11.9-7.4-17.7-11.6S3.9,163,2.6,162.4l-2.4-1V80.5V0
			h198.4H397v160.5V321H198.4H0V241.5z M21.5,228.3c-0.2-0.2-0.9-0.3-1.4-0.1c-0.6,0.2-0.4,0.4,0.5,0.5
			C21.4,228.7,21.8,228.5,21.5,228.3L21.5,228.3z M38.5,228.3c-0.5-0.2-1.5-0.2-2.2,0s-0.3,0.4,0.9,0.4
			C38.4,228.6,39,228.5,38.5,228.3L38.5,228.3z M12.2,227.5c-0.5-0.2-1.4-0.2-1.9,0s-0.1,0.4,0.9,0.4
			C12.3,227.9,12.7,227.7,12.2,227.5L12.2,227.5z M235.3,31.7c-0.2-0.7-0.4-0.3-0.4,0.9s0.1,1.8,0.3,1.3
			C235.4,33.4,235.5,32.4,235.3,31.7L235.3,31.7z"/>
		<path id="path3855" inkscape:connector-curvature="0" class="st2" d="M0,252.4v-68.6l1.6,0.8c0.9,0.5,2.4,0.6,3.4,0.4
			c1.9-0.5,7.1,1.3,7.1,2.5c0,0.4,1.8,0.3,4.2-0.4c4.1-1.1,4.3-1.1,12.8,1.7l8.6,2.8l5.6,9.8c4.9,8.6,5.6,10.3,5.6,13.5
			c0,2,0.4,6.5,0.9,10c0.8,6,1,6.4,3.4,7.8c1.4,0.8,2.5,1.7,2.5,2.1c0,0.3,2.2,2.9,4.8,5.8c4.4,4.7,5.7,5.6,14.8,9.9
			c10,4.7,10,4.7,14.5,10.6c4.2,5.5,4.8,6,9.8,7.8c2.9,1.1,5.9,1.7,6.6,1.5c0.7-0.3,2.6-2.4,4.2-4.8c2.3-3.4,3.3-4.3,4.5-3.9
			c0.8,0.2,1.5,0.8,1.5,1.2c0,0.4,1.1,1.9,2.4,3.3l2.4,2.5l3.9-3.9c3.8-3.8,4-3.8,6.2-2.9c1.7,0.7,2.3,1.4,2.3,2.8s0.3,1.8,1.3,1.6
			c0.7-0.2,1.2-0.8,1-1.4s-0.2-1.9-0.2-3c0-1,0.2-5.3,0.3-9.4c0.2-6.1,0.5-7.9,1.7-9.5c2.1-2.9,2.6-2.6,1.7,1
			c-0.6,2.5-0.5,3.9,0.5,7.1c0.8,2.4,1.7,4,2.4,4c1.5,0,1.4,1.3-0.4,4.1l-1.5,2.4l4.7,0.4c4.1,0.3,5,0.1,7.1-1.5
			c1.9-1.4,2.3-2.1,1.7-3.1s-0.3-1.4,1.7-2.1c1.5-0.5,2.5-1.4,2.6-2.4c0.2-1.5,0.4-1.5,1.8-0.5c2.1,1.5,4.6,0.2,4.1-2
			c-0.4-1.5-0.2-1.5,3.9-1.1c4.8,0.5,7.6-0.7,7.6-3.3c0-0.8,0.5-1.5,1-1.5s1.3-0.9,1.5-1.9c0.3-1.2,0.9-1.8,1.5-1.6s1.2-0.2,1.4-1.1
			c0.3-1.2,0.7-1.4,1.8-0.7c2.4,1.3,6.8,0.2,8-2.1c0.8-1.5,2-2.2,4.8-2.9l3.7-1l-1.7-6.5c-1-3.9-1.4-7.1-1.1-8
			c0.9-2.4,0.8-2.6-1.4-2.6c-3.3,0-6.5-2.4-7.5-5.6c-0.7-2.3-0.7-2.9,0.2-3.2c0.6-0.2,1.1-1.4,1.1-2.8c0-1.3,0.2-3.1,0.5-4
			c0.3-1,6.6-6.5,16.3-14.1c15.4-12.1,15.9-12.6,20.2-19.3c2.4-3.8,4.3-7.6,4.3-8.4c0-2.7,0.9-4.8,1.8-4.5c0.5,0.2,1.6-1.2,2.5-3.1
			c0.9-1.9,2-3.4,2.5-3.4s1.5-0.5,2.2-1.2c1.2-1.1,1.2-1.4-0.1-5.4c-0.8-2.3-1.4-5.5-1.4-7.1s-0.3-2.9-0.7-2.9s-0.8,0.4-0.8,0.8
			c0,0.4-0.3,0.6-0.7,0.4c-0.8-0.5-1.8,1.7-1.2,2.6c0.2,0.4,0.1,0.7-0.4,0.7c-0.4,0-0.8,0.7-0.8,1.5c0,1.1-0.5,1.5-1.9,1.5
			c-1,0-1.9,0.3-1.9,0.7s-0.5,0.5-1.1,0.3s-1.1-0.1-1.1,0.2c0,0.4-0.6,0.7-1.3,0.7s-2.3,0.3-3.5,0.6c-1.7,0.5-2,0.4-1.6-0.4
			c0.4-0.6,0.3-0.8-0.3-0.4c-1.5,0.9-9.8-4.9-9.8-6.9c0-1.4-2.5-3.2-4.4-3.2c-1.6,0-2.1-0.4-2.2-1.6c-0.1-0.9-0.4-1.8-0.7-2.1
			c-0.3-0.2-0.7-1.1-0.9-1.9c-0.3-1.9-0.2-1.9-3.3-2.2c-1.4-0.1-3-0.5-3.5-0.8s-2.1-0.6-3.6-0.8c-1.8-0.2-4.5-1.5-8.3-4.2
			c-6-4.3-7.3-5.8-6.2-7.5c2-3.1-0.4-8.2-3.8-8.2c-1.1,0-3-0.7-4.1-1.6c-1.6-1.2-2.8-1.5-5.5-1.3c-3.1,0.3-3.9,0-6.7-2.2
			c-1.8-1.4-3.2-2.3-3.2-2s-0.7-0.4-1.6-1.5c-0.9-1.1-1.8-1.8-2.2-1.6c-0.3,0.2-0.8,0-0.9-0.5c-0.2-0.5-0.7-0.6-1.3-0.3
			c-0.6,0.3-2.1,0.7-3.5,0.8c-1.4,0.1-2.9,0.5-3.4,0.8c-1.4,0.8-3.6,0.7-6.9-0.3c-1.6-0.5-3.1-0.8-3.3-0.6c-0.2,0.2-1.3-0.7-2.5-2
			s-2.1-2.1-2.1-1.8c0,0.3-0.5,0.2-1-0.3c-0.6-0.5-2.3-1-3.8-1.1s-3.3-0.8-4-1.4c-1.7-1.6-3.1-3.4-3.1-3.9c0.1-1.9-0.1-2.7-0.9-3.5
			c-0.5-0.5-1.1-1.7-1.2-2.5s-0.5-1.7-0.8-1.9c-0.7-0.5-1-2.1-1.4-6.7c-0.3-3.6-0.7-4.5-3.2-6.9c-2.6-2.6-3-2.7-5-1.9
			c-1.2,0.5-2.5,0.8-3,0.7s-0.9,0.2-0.9,0.6c0,0.4-0.5,0.6-1.1,0.3c-0.6-0.2-1.1,0-1.1,0.4c0,0.5-0.3,0.7-0.7,0.5
			c-0.4-0.2-1.5-0.1-2.4,0.2c-1.2,0.4-2.3,0.3-3.3-0.4c-1.4-0.9-2.3-0.5-10.1,5.3c-4.7,3.5-8.9,6.1-9.4,5.9s-1.1,0-1.4,0.4
			c-0.2,0.4-1.1,0.6-2,0.3c-0.9-0.2-1.5,0-1.5,0.6c0,0.5-0.2,0.7-0.5,0.5c-0.3-0.3-1.5,0.2-2.7,1.1c-2.1,1.5-2.2,1.5-3.7,0.2
			c-0.8-0.7-2.4-1.4-3.6-1.5c-1.2-0.1-3.5-1.1-5.2-2.2C47.1,68,45.9,67.7,44,68c-1.4,0.3-3.5,0.5-4.8,0.4c-1.6,0-2.7,0.5-3.6,1.6
			c-0.6,0.9-1.2,1.4-1.2,1s-0.8,0.1-1.8,1c-1.2,1.1-1.9,1.4-2.1,0.8c-0.2-0.5-1.5-1-2.9-1.2c-1.4-0.1-3.7-0.5-5.1-0.7
			c-1.7-0.3-2.3-0.2-2,0.4c0.3,0.4,0.2,0.8-0.2,0.8c-0.4,0-1.9,2-3.4,4.4c-2.8,4.6-5.5,6.2-7.6,4.5c-0.6-0.5-1.1-0.6-1.1-0.3
			c0,0.3-0.5,0-1.1-0.8C6,79.1,6,79.2,4.6,80.8c-0.8,0.9-2.1,1.7-3,1.7H0V41.3V0l160.3,0.1l160.3,0.1l-6.4,2.2
			c-4.9,1.7-7,2.9-9.1,5.1c-1.5,1.6-2.9,2.8-3.1,2.6s-0.8-0.1-1.4,0.2c-0.5,0.3-1.6,0.6-2.5,0.6c-0.8,0-2.2,1.2-3.2,2.7
			c-2.9,4.3-3.8,5.2-5.1,4.8c-0.6-0.2-1.7-0.2-2.5,0.1c-0.7,0.3-2,0.5-2.9,0.4c-1.6-0.2-4.3,2.6-3.6,3.7c0.4,0.6-5,1.6-8.1,1.5
			c-1.8-0.1-2.2,0.3-2,1.9c0,0.3-0.2,0.7-0.6,0.9c-0.3,0.3-1,1.1-1.4,1.9s-1,1.3-1.2,1.1c-1-0.6-3.6,2.6-3.2,4
			c0.3,0.9-0.3,2.3-1.9,4c-1.3,1.5-2.1,3-1.9,3.4s0.1,0.7-0.2,0.7c-0.4,0-1.4,1.3-2.3,3c-1.5,2.7-1.6,3.3-0.8,6.5
			c0.8,3,0.7,3.8-0.4,5.7c-0.7,1.2-1,2.2-0.7,2.2s0.1,0.3-0.4,0.7c-0.7,0.4-0.8,1-0.4,1.7c0.4,0.6,0.7,1.7,0.9,2.5
			c0.1,0.8,0.6,1.7,1.1,2.1c0.5,0.3,0.6,0.6,0.3,0.6c-0.4,0-0.2,0.5,0.3,1.1s0.7,1.1,0.4,1.1c-0.3,0-0.1,0.8,0.4,1.7
			c1.3,2.3,1.4,3.1,1.6,9.9c0.1,3.9-0.1,6.3-0.7,6.9c-0.5,0.5-1.1,0.7-1.3,0.4c-0.3-0.3-0.5-0.1-0.5,0.5c0,0.5-0.3,0.7-0.8,0.5
			c-0.4-0.3-0.8-0.1-0.8,0.2c0,0.4-0.8,0.9-1.7,1.1c-1.8,0.4-4.6,4.4-3.8,5.3c0.3,0.3,0.1,0.5-0.4,0.5s-0.9,0.7-0.9,1.5
			s-0.5,1.5-1.1,1.5s-1.1,0.4-1.1,0.8s-0.3,0.6-0.8,0.3c-0.4-0.3-0.7-0.1-0.7,0.3s-0.5,0.8-1.1,0.8s-1.1,0.4-1.1,0.8
			s-0.3,0.6-0.8,0.3c-0.4-0.3-0.7-0.1-0.7,0.3s-0.5,0.8-1.1,0.8s-1.1,0.4-1.1,0.8s-0.3,0.6-0.6,0.5c-0.3-0.2-0.7,1.2-0.8,3.1
			c-0.2,3.6,0.6,5,4.5,7.8l2,1.4l4.1-2.7c4.1-2.7,4.2-2.7,9.8-2.2c4.3,0.4,7.2,1.2,11.8,3.4c4,1.9,6.3,2.6,6.6,2.1
			c0.3-0.5,0.8-0.1,1.4,0.8c0.7,1.3,1.4,1.6,3.9,1.4c2.6-0.2,3.3-0.6,4.6-3l1.6-2.8l-1.9-3.6c-1.6-3-1.9-4.5-1.9-10.3
			c0-6.6,0.1-7,3-11.9c2.7-4.6,3.7-5.5,9.2-8.8l6.2-3.7H315h11.2l0.8,3.2c0.4,1.8,1,3.6,1.1,4.1c0.2,0.5,0,2.5-0.5,4.5
			c-1,4.3,0.4,9.8,3.9,15.4c1.9,3.1,4.4,4.8,4.5,3c0-0.3,0.7-1.4,1.5-2.4l1.5-1.9l-0.5,2c-0.4,1.7-0.2,2.1,1.4,2.5
			c1.1,0.3,2.1,1.2,2.3,2.1c0.7,2.8,5.5,7,9.2,8c2.9,0.8,4,0.8,7.5-0.3c2.2-0.7,4.5-1,4.9-0.8c0.5,0.3,0.7,0.2,0.3-0.3
			c-0.3-0.5-0.1-0.9,0.5-0.9s2.1-2.2,3.4-4.8c2.1-4.3,2.7-4.9,5-5.3c1.4-0.3,3-1,3.5-1.5c1.1-1.4,17.9-1.5,19.3-0.1
			s1.3,122.1-0.1,122.1c-0.5,0-2.1,1.3-3.3,2.9c-1.6,2-3.2,3.1-4.9,3.4c-2.2,0.4-2.8,1-4.1,4.2c-1.3,3.2-2,3.8-4.5,4.6
			c-2.9,0.9-2.9,0.9-5.7,9.2l-2.8,8.4l-6.3,4c-5.1,3.2-6.4,4.4-6.6,6c-0.2,1.3-0.7,2.1-1.7,2.3c-0.8,0.1-4.5,3.8-8.1,8
			c-8,9.4-9.1,9.9-18.1,8.2c-6.1-1.2-6.8-1-7.3,1.5c-0.1,0.8-0.7,1.9-1.2,2.5c-0.8,0.9-1.1,2-0.9,3.6c0,0.3-0.4,0.8-0.9,1.1
			c-0.8,0.5-0.8,0.8,0.1,1.4c0.6,0.4,0.8,0.7,0.4,0.8c-0.4,0-0.1,0.6,0.5,1.3c1.3,1.4,3.1,5.4,2.9,6.4c-0.1,0.3,0.3,1.7,0.9,3
			c0.9,2.1,1.7,2.6,5.1,3.5c2.2,0.6,4.4,1.1,4.8,1.1s1,0.3,1.2,0.7c0.3,0.4,0.9-0.1,1.4-1.1c1.9-3.6,3-4.4,4.9-3.5
			c1,0.4,1.6,1.1,1.4,1.4s0.3,1.3,1.1,2.1c1.3,1.3,2.5,1.5,7,1.5c5.5,0,5.5,0,7.9,3c1.4,1.8,2.2,3.4,1.9,4.1
			c-0.4,1.1-17.8,1.2-180.7,1.2H0V252.4z M237.8,309.8c0-0.4,0.3-0.7,0.6-0.7c1.3,0.2,2.3-0.2,3.8-1.6c0.9-0.8,1.6-1.3,1.6-1.1
			c0,0.2,1-0.2,2.3-0.9c1.2-0.7,2.2-1.9,2.2-2.5c-0.4-4,2.3-7.8,4.5-6.4c0.4,0.2,1.2-0.2,1.7-0.9c1.5-2,6.8-5.9,8.6-6.3
			c1-0.3,1.9,0.1,2.5,1.1c0.5,0.8,1.4,1.3,2,1.1c0.6-0.2,1.2-0.1,1.5,0.2c0.6,0.9,7.1,0.8,7.1-0.1c0-0.4,0.3-0.5,0.8-0.3
			c0.4,0.3,1.2,0.2,1.7-0.1c0.5-0.3,1.7-0.6,2.7-0.7c3.8-0.4,14.9-12.3,13.2-14.1c-0.3-0.3-0.1-0.5,0.5-0.5c0.5,0,0.7-0.3,0.5-0.8
			c-0.3-0.4-0.2-0.8,0.2-0.8c0.4,0,1.1-0.8,1.5-1.9c0.5-1.1,1.5-1.9,2.3-1.9s1.6-0.3,1.9-0.6c0.2-0.3,1.4-0.5,2.5-0.3
			c1.7,0.3,2.6-0.2,4.2-2.1c1.7-2.1,2-2.8,1.4-4.8c-1.2-4.4-0.6-13.4,1.6-22.6c1.8-7.9,2.5-9.5,5.4-13.3c1.8-2.3,3.3-4.6,3.3-4.9
			s-0.7-1.3-1.5-2c-0.9-0.9-1.5-2.3-1.5-3.9c0-2-0.4-2.7-1.6-3c-1.4-0.4-1.5-0.8-1.1-3.2c0.3-1.8,0.1-3.3-0.6-4.2
			c-0.9-1.3-0.9-1.7,0.4-3.9c1.3-2.1,1.4-2.9,0.8-5.9c-0.5-2.3-0.5-4.1,0.1-5.6c0.6-1.6,0.6-3-0.1-5.2c-0.9-2.9-1.1-3.1-3.9-3.1
			c-2.6,0-3.2-0.3-4.5-2.6c-0.9-1.4-2.3-2.8-3.2-3c-0.9-0.2-4.2,0.7-7.6,2.2l-6,2.6l-2.2-1.8c-1.2-1-3.1-1.8-4.3-1.8
			c-2.2,0-2,0.5-4.9-11.2l-1.4-5.6l-7.2-2.4c-4-1.3-8.2-3.2-9.4-4.1c-2.2-1.7-4.8-7.1-7.3-15.6c-0.6-2.2-1.3-3.9-1.5-3.9
			s-1.2,0.3-2.3,0.8c-1.9,0.7-2,1-1.5,3.9c0.3,1.7,1.2,3.9,1.9,4.7c1,1.1,1.4,2.7,1.4,5.7c0,2.3,0.4,4.5,0.9,5
			c0.9,0.9-0.3,1.6-5.9,3.1c-3.9,1.1-5.9,3.2-4.8,5.2c1.2,2.2,1,2.4-1,1.9c-2.1-0.5-6.2,1.3-8.1,3.7c-0.7,0.9-2.8,4.3-4.7,7.7
			c-3,5.4-3.3,6.4-2.6,8.5c0.4,1.4,1.3,3.1,2,3.9c1.6,1.7,1.2,1.7-2.9,0c-3.2-1.4-3.3-1.4-6.1,0c-1.5,0.8-3.3,2.2-3.9,3.2
			c-0.8,1.2-2.2,1.9-4.5,2.3l-3.3,0.5l0.4,2.8c0.2,1.5,0.9,3.1,1.5,3.6c0.9,0.7,0.9,0.9-0.1,1.8c-1.9,1.6-1.4,5.1,1.1,8.8l2.3,3.4
			l-2.3-0.5c-2.2-0.5-2.3-0.4-2.8,2.1c-0.4,2.3,0,3.5,3,8.8c2.6,4.5,3.3,6.3,2.6,6.7s-0.8,1.8-0.5,4.6c0.4,3.5,0.8,4.4,3.8,7
			c1.8,1.6,4.1,4.5,5,6.3l1.7,3.3l-2.2-1.4c-1.2-0.8-3.8-2.5-5.8-4c-6.7-4.7-11.8-5.7-12.8-2.5c-0.2,0.7-3.5,3-7.2,5.2
			c-6.8,4-6.8,4-6.4,6.6c0.4,2.7,0.4,2.7-3.2,0.2c-1.6-1.2-2.3-1.2-5.2-0.5c-2.9,0.8-3.5,1.2-4.9,4.6l-1.7,3.8l1.7,4.4
			c0.9,2.4,1.5,4.4,1.2,4.4s-1.7-1.2-3.2-2.7l-2.7-2.7l-3,3.5c-1.7,2-3.2,3.1-3.5,2.7c-0.3-0.5-1.6-0.1-3.6,1
			c-2.7,1.6-3.6,1.7-6.5,1.2c-3.3-0.6-6.8-0.3-6.7,0.6c0,1.3,6.5,5.6,12.3,8.3c5.6,2.6,7,2.9,10,2.6c3.5-0.4,3.6-0.4,4.9,2.5
			c0.7,1.6,2.2,4.3,3.2,6.1c1.6,2.8,2,3.1,3.7,2.5c2.4-0.9,9.3,2,9.4,3.9c0,0.7,0.6,1.4,1.3,1.4c2.9,0.3,3.6,0.4,5.1,1
			c0.8,0.3,1.7,0.9,1.9,1.2c0.2,0.3,1.3,0.7,2.4,0.9c2,0.4,2.4-0.1,2.2-3.1c0-0.5,0.3-0.9,0.7-0.9s0.6-0.4,0.4-0.9
			c-0.2-0.5,0.7-1.5,2-2.2s2.2-1.6,2.1-2.1c-0.1-0.4,0.1-0.8,0.5-0.8c0.6,0,2-5.3,1.8-7.2c-0.1-1.7,2.6-1.6,4.1,0.1
			c0.8,0.9,1.4,1.9,1.2,2c-0.7,0.7,4.7,7.7,5.9,7.6c0.7-0.1,1.3,0.2,1.3,0.6s0.7,0.6,1.5,0.4s1.5-0.1,1.5,0.2c0,0.3,0.9,0.8,2.1,1
			c1.1,0.2,3.6,2,5.4,3.8C235.6,310.3,237.8,311.4,237.8,309.8L237.8,309.8z M117.7,266.3c-1.3-1.6-2.7-2.8-3.2-2.5
			c-0.6,0.4,4.3,5.5,5.3,5.5C119.9,269.2,119,267.9,117.7,266.3L117.7,266.3z M3.5,228.3c-0.2-0.2-0.9-0.3-1.4-0.1
			c-0.6,0.2-0.4,0.4,0.5,0.5C3.4,228.7,3.8,228.5,3.5,228.3L3.5,228.3z M22.7,228.2c-0.9-0.2-2.4-0.2-3.4,0
			c-0.9,0.2-0.2,0.3,1.7,0.3C22.9,228.5,23.6,228.4,22.7,228.2z M39.5,228.2c-1.6-0.2-3.9-0.2-5.2,0s-0.1,0.3,2.8,0.3
			C40,228.5,41.1,228.4,39.5,228.2L39.5,228.2z M47.8,228.3c-0.2-0.2-0.9-0.3-1.4-0.1c-0.6,0.2-0.4,0.4,0.5,0.5
			C47.6,228.7,48,228.5,47.8,228.3L47.8,228.3z M6.5,227.5c-0.2-0.2-0.9-0.3-1.4-0.1c-0.6,0.2-0.4,0.4,0.5,0.5
			C6.4,228,6.8,227.8,6.5,227.5L6.5,227.5z M12.9,227.5c-0.9-0.2-2.4-0.2-3.4,0c-0.9,0.2-0.2,0.3,1.7,0.3S13.9,227.7,12.9,227.5z
			 M26.6,190.5c0.2-0.4-0.9-1.1-2.5-1.6c-2.3-0.7-3.5-0.7-5.3,0.1c-1.3,0.5-2.3,1.2-2.3,1.6C16.5,191.5,26,191.4,26.6,190.5
			L26.6,190.5z M393.8,102.7c1.2-0.4-1.3-0.6-6.9-0.7c-5.1,0-9,0.2-9.2,0.7C377.1,103.7,390.9,103.7,393.8,102.7z M233.3,78.4
			c2.2-2.3,3.9-4.1,3.7-4.1s-2.2,1.9-4.4,4.1c-2.2,2.3-3.9,4.1-3.7,4.1C229,82.5,231,80.6,233.3,78.4z M232.6,40.7
			c0.9-1.2,0.9-1.2-0.3-0.3c-1.2,1-1.6,1.6-1,1.6C231.4,42,232,41.4,232.6,40.7z M228.3,31.7c-0.7-0.5-1.5-1.3-1.8-1.7
			c-0.3-0.4-1.2,0-2.2,1.1l-1.8,1.9l1.8,0.7c1.1,0.4,2.5,0.4,3.6-0.1C229.5,32.7,229.5,32.6,228.3,31.7L228.3,31.7z M235.3,27.2
			c-0.2-1.6-0.3-0.5-0.3,2.4s0.1,4.2,0.3,2.8C235.5,31.1,235.5,28.8,235.3,27.2L235.3,27.2z"/>
		<path id="path3853" inkscape:connector-curvature="0" class="st3" d="M0,253.5C0,208.2,0.3,186,0.8,186c1.2,0,9.8,4.5,12.4,6.5
			c2.8,2.1,8.6,2.4,12.8,0.6c4.8-2,7-0.5,14.2,9.1c6.2,8.3,6.2,8.4,6.7,13.9c0.3,3,0.6,6.9,0.8,8.6c0.3,2.6,0.1,3.2-1,3.5
			c-1.2,0.3-1.2,0.4,0,0.4c0.7,0,1.3,0.4,1.3,0.9c0,0.4,3.7,5,8.3,10l8.3,9.2l9,3.6l9,3.6l3.3,5.3l3.3,5.3l8.4,3.6l8.4,3.6l4.3-4.2
			l4.3-4.2l2.6,2c3.2,2.5,8.1,9.4,8.1,11.6c0,0.9,0.9,2.5,2,3.5c1.4,1.3,1.8,2.3,1.5,3.4c-0.4,1.5-0.2,1.6,3.5,1.2
			c3.1-0.3,4.6,0,7.5,1.4c4,2,4.3,1.6,2-2.8c-1.4-2.8-1.4-3.1-0.3-4.8c1.9-2.9,3.3-3,6.3-0.4c1.5,1.3,5.8,3.8,9.6,5.6
			c6.1,2.9,7.4,3.3,10.5,2.9c3.5-0.4,3.6-0.4,4.9,2.5c0.7,1.6,2.2,4.3,3.2,6.1c1.6,2.8,2,3.1,3.7,2.5c2.4-0.9,9.3,2,9.4,3.9
			c0,0.7,0.6,1.4,1.3,1.4c2.9,0.3,3.6,0.4,5.1,1c0.8,0.3,1.7,0.9,1.9,1.2c0.2,0.3,1.3,0.7,2.4,0.9c2,0.4,2.4-0.1,2.2-3.1
			c0-0.5,0.3-0.9,0.7-0.9s0.6-0.4,0.4-0.9c-0.2-0.5,0.7-1.5,2-2.2s2.2-1.6,2.1-2.1c-0.1-0.4,0.1-0.8,0.5-0.8c0.6,0,2-5.3,1.8-7.2
			c-0.1-1.7,2.6-1.6,4.1,0.1c0.8,0.9,1.4,1.9,1.2,2c-0.7,0.7,4.7,7.7,5.9,7.6c0.7-0.1,1.3,0.2,1.3,0.6s0.7,0.6,1.5,0.4
			s1.5-0.1,1.5,0.3s0.7,0.7,1.5,0.7s3.3,1.7,5.5,3.8c3.8,3.6,5.7,4.6,5.7,3c0-0.4,0.3-0.7,0.6-0.7c1.3,0.2,2.3-0.2,3.8-1.6
			c0.9-0.8,1.6-1.3,1.6-1.1c0,0.2,1-0.2,2.3-0.9c1.2-0.7,2.2-1.9,2.2-2.5c-0.4-4,2.3-7.8,4.5-6.4c0.4,0.2,1.2-0.2,1.7-0.9
			c1.5-2,6.8-5.9,8.6-6.3c1-0.3,1.9,0.1,2.5,1.1c0.5,0.8,1.4,1.3,2,1.1c0.6-0.2,1.2-0.1,1.5,0.2c0.6,0.9,7.1,0.8,7.1-0.1
			c0-0.4,0.3-0.5,0.8-0.3c0.4,0.3,1.2,0.2,1.7-0.1c0.5-0.3,1.7-0.6,2.7-0.7c3.8-0.4,14.9-12.3,13.2-14.1c-0.3-0.3-0.1-0.5,0.5-0.5
			c0.5,0,0.7-0.3,0.5-0.8c-0.3-0.4-0.2-0.8,0.2-0.8c0.4,0,1.1-0.8,1.5-1.9c0.5-1.1,1.5-1.9,2.3-1.9s1.6-0.3,1.9-0.6
			c0.2-0.3,1.4-0.5,2.5-0.3c1.7,0.3,2.6-0.2,4.2-2.1c1.7-2.1,2-2.8,1.4-4.8c-1.2-4.4-0.6-13.4,1.6-22.6c1.8-7.9,2.5-9.5,5.4-13.3
			c1.8-2.3,3.3-4.6,3.3-4.9c0-0.4-0.7-1.3-1.5-2c-0.9-0.9-1.5-2.3-1.5-3.9c0-2-0.4-2.7-1.6-3c-1.4-0.4-1.5-0.8-1.1-3.2
			c0.3-1.8,0.1-3.3-0.6-4.2c-0.9-1.3-0.9-1.7,0.4-3.9c1.3-2.1,1.4-2.9,0.8-5.9c-0.5-2.3-0.5-4.1,0.1-5.6c0.6-1.6,0.6-3-0.1-5.2
			c-0.9-2.9-1.1-3.1-3.9-3.1c-2.6,0-3.2-0.3-4.5-2.6c-0.9-1.4-2.3-2.8-3.2-3c-0.9-0.2-4.2,0.7-7.6,2.2l-6,2.6l-2.2-1.8
			c-1.2-1-3.1-1.8-4.3-1.8c-2.2,0-2,0.5-4.9-11.2l-1.4-5.6l-7.2-2.4c-9.5-3.2-11.2-4.6-13.6-10.7c-1.9-4.9-4.2-12-4.2-13
			s6.4-0.6,8.1,0.6c1.6,1.1,1.7,1.1,1.7-1c0-3,1.4-4,6.3-4.3c3.4-0.2,4.2,0,4.2,1c0,0.9,0.5,0.7,2.2-0.9c1.8-1.8,2.6-2,4.8-1.6
			c1.5,0.3,3.2,1.1,4,1.9c1.7,1.9,2.4,1.8,2-0.4c-0.3-1.5,0.3-2.2,3.7-4.2c3.1-1.9,4.6-3.4,6.4-6.8c2.8-5,2.8-5.2,1.2-5.2
			c-0.9,0-1.1-0.5-0.8-1.6c0.3-1.1-0.3-2.5-1.8-4.4c-2.3-2.9-2.9-5.6-1.3-6.2c0.7-0.3,0.6-0.6-0.4-1.2c-3.6-2.3,1.1-11.9,8.1-16.5
			c2.4-1.6,4.8-3,5.3-3s2.5,0.7,4.5,1.6c2.5,1.1,5,1.5,7.8,1.5l4.2-0.1l0.5,3.5c0.3,1.9,0.5,4.4,0.5,5.5s1.3,5.2,2.8,9.3
			c2.7,7.1,2.9,7.4,6,8.5c2.2,0.8,4.2,1.1,6.4,0.7c3-0.4,3.6-0.2,7.5,2.5c4.2,3,5.6,3.7,4.7,2.3c-0.3-0.4,0.6-0.4,2,0.1
			c3.4,1.2,3.7,1.7,0.6,1.1c-2.3-0.4-2.5-0.4-1.5,0.6s1.9,0.9,8.1-1.2c6.5-2.2,7.3-2.7,12.3-7.8l5.4-5.5l9.7-0.2l9.7-0.2l0.2,60.6
			c0.2,50.2,0,60.6-0.8,60.6c-0.6,0-2.1,1.3-3.3,2.9c-1.6,2-3.2,3.1-4.9,3.4c-2.2,0.4-2.8,1-4.1,4.2c-1.3,3.2-2,3.8-4.5,4.6
			c-2.9,0.9-2.9,0.9-5.7,9.2l-2.8,8.4l-6.3,4c-5.1,3.2-6.4,4.4-6.6,6c-0.2,1.3-0.7,2.1-1.7,2.3c-0.8,0.1-4.5,3.8-8.1,8
			c-8,9.4-9.1,9.9-18.1,8.2c-6.1-1.2-6.8-1-7.3,1.5c-0.1,0.8-0.7,1.9-1.2,2.5c-0.8,0.9-1.1,2-0.9,3.6c0,0.3-0.4,0.8-0.9,1.1
			c-0.8,0.5-0.8,0.8,0.1,1.4c0.6,0.4,0.8,0.7,0.4,0.8c-0.4,0-0.1,0.6,0.5,1.3c1.3,1.4,3.1,5.4,2.9,6.4c-0.1,0.3,0.3,1.7,0.9,3
			c0.9,2.1,1.7,2.6,5.1,3.5c2.2,0.6,4.4,1.1,4.8,1.1s1,0.3,1.2,0.7c0.3,0.4,0.9-0.1,1.4-1.1c1.9-3.6,3-4.4,4.9-3.5
			c1,0.4,1.6,1.1,1.4,1.4s0.3,1.3,1.1,2.1c1.3,1.3,2.5,1.5,7,1.5c5.5,0,5.5,0,7.9,3c1.4,1.8,2.2,3.4,1.9,4.1
			c-0.4,1.1-17.8,1.2-180.7,1.2H0V253.5z M3.5,228.3c-0.2-0.2-0.9-0.3-1.4-0.1c-0.6,0.2-0.4,0.4,0.5,0.5
			C3.4,228.7,3.8,228.5,3.5,228.3L3.5,228.3z M22.7,228.2c-0.9-0.2-2.4-0.2-3.4,0c-0.9,0.2-0.2,0.3,1.7,0.3
			C22.9,228.5,23.6,228.4,22.7,228.2z M39.5,228.2c-1.6-0.2-3.9-0.2-5.2,0s-0.1,0.3,2.8,0.3C40,228.5,41.1,228.4,39.5,228.2
			L39.5,228.2z M6.5,227.5c-0.2-0.2-0.9-0.3-1.4-0.1c-0.6,0.2-0.4,0.4,0.5,0.5C6.4,228,6.8,227.8,6.5,227.5L6.5,227.5z M12.9,227.5
			c-0.9-0.2-2.4-0.2-3.4,0c-0.9,0.2-0.2,0.3,1.7,0.3S13.9,227.7,12.9,227.5z M20.4,191.5c0.7-0.2,1.9-0.2,2.6,0s0.1,0.3-1.3,0.3
			C20.3,191.8,19.7,191.7,20.4,191.5z M217.5,139.7c-3.4-2.1-6.9-5.1-6.5-5.8c0.5-1-2.7-3.4-4.5-3.4c-1.6,0-2.1-0.4-2.2-1.6
			c-0.1-0.9-0.4-1.8-0.7-2.1c-0.3-0.2-0.7-1.1-0.9-1.9c-0.3-1.9-0.2-1.9-3.3-2.2c-1.4-0.1-3-0.5-3.5-0.8s-2.1-0.6-3.6-0.8
			c-1.8-0.2-4.5-1.5-8.3-4.2c-6-4.3-7.3-5.8-6.2-7.5c2-3.1-0.4-8.2-3.8-8.2c-1.1,0-3-0.7-4.1-1.6c-1.6-1.2-2.8-1.5-5.5-1.3
			c-3.1,0.3-3.9,0-6.7-2.2c-1.8-1.4-3.2-2.3-3.2-2s-0.7-0.4-1.6-1.5c-0.9-1.1-1.8-1.8-2.2-1.6c-0.3,0.2-0.8,0-0.9-0.5
			c-0.2-0.5-0.7-0.6-1.3-0.3c-0.6,0.3-2.1,0.7-3.5,0.8c-1.4,0.1-2.9,0.5-3.4,0.8c-1.4,0.8-3.6,0.7-6.9-0.3c-1.6-0.5-3.1-0.8-3.3-0.6
			c-0.2,0.2-1.3-0.7-2.5-2s-2.1-2.1-2.1-1.8c0,0.3-0.5,0.2-1-0.3c-0.6-0.5-2.3-1-3.8-1.1s-3.3-0.8-4-1.4c-1.8-1.7-3.5-3.8-3.3-4.1
			c0.5-0.6,0.1-2.5-0.7-3.3c-0.5-0.5-1.1-1.7-1.2-2.5s-0.5-1.7-0.8-1.9c-0.7-0.5-1-2.1-1.4-6.7c-0.3-3.6-0.7-4.5-3.2-6.9
			c-2.6-2.6-3-2.7-5-1.9c-1.2,0.5-2.5,0.8-3,0.7s-0.9,0.2-0.9,0.6c0,0.4-0.5,0.6-1.1,0.3c-0.6-0.2-1.1,0-1.1,0.4
			c0,0.5-0.3,0.7-0.7,0.5c-0.4-0.2-1.5-0.1-2.4,0.2c-1.2,0.4-2.3,0.3-3.3-0.4c-1.4-0.9-2.3-0.5-10.1,5.3c-4.7,3.5-8.9,6.1-9.4,5.9
			s-1.1,0-1.4,0.4c-0.2,0.4-1.1,0.6-2,0.3c-0.9-0.2-1.5,0-1.5,0.6c0,0.5-0.2,0.7-0.5,0.5c-0.3-0.3-1.5,0.2-2.7,1.1
			c-2.1,1.5-2.2,1.5-3.7,0.2c-0.8-0.7-2.4-1.4-3.6-1.5c-1.2-0.1-3.5-1.1-5.2-2.2c-2.4-1.6-3.6-1.9-5.5-1.6c-1.4,0.3-3.5,0.5-4.8,0.4
			c-1.6,0-2.7,0.5-3.6,1.6c-0.6,0.9-1.2,1.4-1.2,1s-0.8,0.1-1.8,1c-1.2,1.1-1.9,1.4-2.1,0.8c-0.2-0.5-1.5-1-2.9-1.2
			c-1.4-0.1-3.7-0.5-5.1-0.7c-1.7-0.3-2.3-0.2-2,0.4c0.3,0.4,0.2,0.8-0.2,0.8c-0.4,0-1.9,2-3.4,4.4c-2.8,4.6-5.5,6.2-7.6,4.5
			C9,80.8,8.5,80.7,8.5,81c0,0.3-0.5,0-1.1-0.8c-1.4-1-1.4-1-2.8,0.6c-0.8,0.9-2.1,1.7-3,1.7H0V41.3V0h117.4h117.4v17.1
			c0,18.3-0.4,20.7-3.7,24.5l-2,2.2l2.3-2.1c3.6-3.2,4-6,4-24.8V0L278,0.1l42.6,0.1l-6.4,2.2c-4.9,1.7-7,2.9-9.1,5.1
			c-1.5,1.6-2.9,2.8-3.1,2.6s-0.8-0.1-1.4,0.2c-0.5,0.3-1.6,0.6-2.5,0.6c-0.8,0-2.2,1.2-3.2,2.7c-2.9,4.3-3.8,5.2-5.1,4.8
			c-0.6-0.2-1.7-0.2-2.5,0.1c-0.7,0.3-2,0.5-2.9,0.4c-1.6-0.2-4.3,2.6-3.6,3.7c0.4,0.6-5,1.6-8.1,1.5c-1.8-0.1-2.2,0.3-2,1.9
			c0,0.3-0.2,0.7-0.6,0.9c-0.3,0.3-1,1.1-1.5,2c-0.5,0.8-1,1.3-1.2,1.1c-0.9-0.8-3.6,2.5-3.1,3.9c0.3,0.9-0.3,2.3-1.9,4
			c-1.3,1.5-2.1,3-1.9,3.4s0.1,0.7-0.2,0.7c-0.4,0-1.4,1.3-2.3,3c-1.5,2.7-1.6,3.3-0.8,6.5c0.8,3,0.7,3.8-0.4,5.7
			c-0.7,1.2-1,2.2-0.7,2.2s0.1,0.3-0.4,0.7c-0.7,0.4-0.8,1-0.4,1.7c0.4,0.6,0.7,1.7,0.9,2.5c0.1,0.8,0.6,1.7,1.1,2.1
			c0.5,0.3,0.6,0.6,0.3,0.6c-0.4,0-0.2,0.5,0.3,1.1s0.7,1.1,0.4,1.1c-0.3,0-0.1,0.8,0.4,1.7c1.3,2.3,1.4,3.1,1.6,9.9
			c0.1,3.9-0.1,6.3-0.7,6.9c-0.5,0.5-1.1,0.7-1.3,0.4c-0.3-0.3-0.5-0.1-0.5,0.5c0,0.5-0.3,0.7-0.8,0.5c-0.4-0.3-0.8-0.1-0.8,0.2
			c0,0.4-0.8,0.9-1.7,1.1c-1.8,0.4-4.6,4.4-3.8,5.3c0.3,0.3,0.1,0.5-0.4,0.5s-0.9,0.7-0.9,1.5s-0.5,1.5-1.1,1.5s-1.1,0.4-1.1,0.8
			s-0.3,0.6-0.7,0.3c-0.4-0.3-0.8-0.1-0.8,0.3s-0.5,0.8-1.1,0.8s-1.1,0.4-1.1,0.8s-0.3,0.6-0.8,0.3c-0.4-0.3-0.8-0.1-0.8,0.3
			s-0.5,0.8-1.1,0.8s-1.1,0.4-1.1,0.8s-0.3,0.6-0.6,0.5c-0.3-0.2-0.7,1.3-0.8,3.3c-0.2,3.4,0,3.7,2.9,6.3c1.7,1.5,3,2.8,2.8,2.9
			s-1.5,0.6-2.9,1c-2,0.5-2.8,1.3-3.4,3.3c-1.2,3.5-2.9,3.7-5,0.5c-1.2-1.9-2.6-2.8-5-3.4c-1.8-0.5-3.6-0.7-4.1-0.4
			c-1.1,0.7-6-4.3-5.5-5.5c0.2-0.6,0-0.8-0.5-0.5c-1.1,0.7-0.9,0.4,2.7-6.2c2.2-3.9,3.7-5.7,5.5-6.6c1.4-0.7,2.9-1,3.3-0.7
			c0.5,0.3,0.6,0.2,0.3-0.4s0-0.9,1.1-0.9c0.9,0,1.4-0.3,1.2-0.6c-0.2-0.4-0.1-1.8,0.3-3.1c0.6-2.2,0.4-2.9-1.9-6.1
			c-1.4-2-2.8-4.6-3.1-5.8c-0.4-1.9-0.1-2.4,3.4-4.6c2.3-1.5,3.7-2.9,3.5-3.5c-0.2-0.5-0.4-1.9-0.4-3.1c0-1.9-0.4-2.2-4.5-3.3
			c-3.5-1-4.7-1.7-5.2-3.1c-0.4-1-2-2.5-3.7-3.4c-3.4-1.7-7.8-7.5-7.1-9.4c0.3-0.7,1.7-1.8,3.2-2.6c2.4-1.2,2.9-2,4.3-6.9
			c1.7-5.9,1.1-5.4,8-7c2.1-0.5,2.9-2.7,0.9-2.7c-0.6,0-1.8-0.6-2.6-1.4c-1.4-1.4-1.5-1.4-3.2,0.4c-1.6,1.7-1.8,1.7-2.7,0.6
			c-1.1-1.5-1-1.5-2.9,8.3c-1.3,6.8-2.6,8.4-5.6,6.5c-1-0.7-5.3,0.9-5.3,1.9c0,0.2,0.6,2.1,1.3,4.2c1,2.9,2.2,4.5,5.6,7.2
			c2.3,1.9,4.3,3.9,4.3,4.4s0.5,0.9,1,0.9s2.3,1.1,3.9,2.5l3,2.5l-1.8,3.8c-1.4,2.9-1.7,4.5-1.3,7c0.4,2.9,0.2,3.4-1.6,4.9l-2,1.7
			l2.2-0.6c1.9-0.5,2.6-0.3,4.3,1.3l2,1.9l-1.4,2.8c-0.8,1.6-2.3,3.1-3.3,3.5c-1.2,0.4-2.5,1.9-3.6,4c-1.3,2.5-2.3,3.5-4.1,4
			c-2.4,0.7-2.4,0.7-2.4,5.2c0,3.2-0.4,4.9-1.3,6c-1.3,1.4-1.3,1.5,0.6,1c1.5-0.4,2.1,0,3.1,1.7c0.9,1.5,2.2,2.4,4.5,3
			c1.8,0.5,4.4,1.2,5.9,1.5c1.9,0.5,3,1.4,4.1,3.3c1,1.9,2.2,2.9,4.2,3.5c2.2,0.7,2.6,1,1.9,1.8c-0.5,0.5-1.1,0.8-1.4,0.7
			c-0.7-0.4-1.5,1.9-1,2.8c0.2,0.4,0.1,0.7-0.4,0.7c-0.4,0-0.8,0.7-0.8,1.5c0,1.1-0.5,1.5-1.9,1.5c-1,0-1.9,0.3-1.9,0.7
			s-0.5,0.5-1.1,0.3s-1.1-0.1-1.1,0.2c0,0.4-0.6,0.7-1.3,0.7s-2.2,0.3-3.2,0.5C221.4,141.6,219.9,141.2,217.5,139.7L217.5,139.7z
			 M221,138.2c-0.2-0.7-0.4-0.3-0.4,0.9s0.1,1.8,0.3,1.3C221.2,139.9,221.2,138.9,221,138.2L221,138.2z M219.1,126.8
			c-1.7-2.8-3.1-5.6-3.1-6.1c0-0.7-0.2-0.7-0.4-0.1c-0.2,0.5,1,3.2,2.7,6s3.1,6,3.2,7c0.1,1.8,0.1,1.8,0.4,0.1
			C222,132.5,221,130.1,219.1,126.8L219.1,126.8z M233.3,78.4c2.2-2.3,3.9-4.1,3.7-4.1s-2.2,1.9-4.4,4.1c-2.2,2.3-3.9,4.1-3.7,4.1
			C229,82.5,231,80.6,233.3,78.4z M368.2,109c1.7-3.5,2.7-4.7,4.2-5.1c1.1-0.3,2.1-0.4,2.3-0.2c0.1,0.1-1.8,2.4-4.2,5.1l-4.5,4.8
			L368.2,109z M343.1,111.4c-0.8-0.6-1.1-1.1-0.6-1.1s1.3,0.5,1.8,1.1C345.4,112.8,345,112.8,343.1,111.4L343.1,111.4z"/>
		<path id="path3851" inkscape:connector-curvature="0" class="st4" d="M0,275.3v-45.7l3.2-0.9c2.4-0.6,6-0.7,14.1-0.1
			c6,0.4,15.3,0.6,20.8,0.4c7.3-0.3,9.9-0.1,9.9,0.5c0,0.5,3.7,5,8.3,10.1c6.4,7.2,9.1,9.6,11.8,10.8c1.9,0.8,6.1,2.6,9.2,3.8
			c5.4,2.2,5.8,2.6,8.8,7.5l3.2,5.1l8.4,3.6l8.4,3.6l4.3-4.2c3.8-3.7,4.4-4.1,5.3-3c0.8,0.9,0.8,1.6,0.2,3c-0.9,2-0.8,2.2,2.7,3
			c3.3,0.7,5.4,3.6,5.4,7.4c0,1.8,0.5,3.6,1.2,4.4c1.1,1.2,1.1,1.8,0.3,4.3c-0.9,2.7-0.8,3.5,1.8,11.3c2.4,7.2,3.4,9.1,7.6,14.3
			c2.6,3.3,4.8,6.1,4.8,6.4c0,0.2-31.4,0.4-69.8,0.4H0V275.3z M160.9,319.6c1.2-0.8,6.3-2.4,11.2-3.5c7.9-1.9,9.1-2.4,10.1-4.2
			c0.7-1.2,2.3-2.4,3.8-2.9c1.4-0.5,2.9-1.3,3.2-1.9c0.9-1.5,3.9-1.3,7.3,0.5c4.1,2.1,5.1,1.9,5.9-1.2c0.4-1.5,1.9-3.8,3.3-5.1
			c1.8-1.7,2.8-3.5,3.5-6.6c0.6-2.4,1.5-4.4,2-4.7c0.7-0.3,2.2,1.7,4.4,5.5l3.4,5.9l4.7,1c4,0.8,5.3,1.6,8.7,4.9l4.1,3.9l5.7-3.2
			c5.5-3.1,5.7-3.4,6.4-6.8c0.6-3.1,1-3.6,2.7-3.8c1.1-0.1,3.8-1.9,6.1-3.9c4.3-3.8,6.4-4.5,8-2.6c1.4,1.7,7.1,2.2,12.2,1.1
			c6.6-1.4,12.6-6.6,16.9-14.7l3.3-6.1l3.9-0.5c2.9-0.4,4.5-1.1,6.5-3c2.5-2.4,2.8-2.5,6.7-2l4.1,0.5l0.9,8.2c0.6,5.1,1.3,8.6,2,9.3
			c1,1,0.8,1.7-1.1,6.3l-2.2,5.2l1.8,2.7c1,1.5,2.3,4.5,2.8,6.7s1.3,4.3,1.8,4.6c0.4,0.4,3.1,1.3,5.9,2.1c4.9,1.5,5.1,1.5,5.8,0.1
			c2.1-3.9,4.9-4.8,6-1.9c1,2.7,4.5,4.2,9.9,4.2c4.4,0.1,4.9,0.2,6.8,2.5c1.3,1.5,1.9,3,1.6,3.7c-0.4,1.1-9.5,1.2-101.4,1.2
			C160.7,321,158.7,320.9,160.9,319.6L160.9,319.6z M0,207.3C0,195.6,0.2,186,0.4,186c1.1,0,10.4,4.6,12.6,6.3
			c3,2.3,8.6,2.6,12.9,0.9c2-0.8,3.1-0.9,5.3-0.2s3.9,2.4,9,9.2l6.2,8.4l0.5,7c0.3,3.9,0.6,7.7,0.8,8.6c0.3,1.5,0.1,1.6-13.7,1.7
			c-7.7,0.1-17-0.1-20.5-0.4c-4.3-0.4-7.7-0.3-9.9,0.3L0,228.6V207.3z M20.5,191.5c0.7-0.2,1.7-0.2,2.3,0c0.5,0.2-0.1,0.4-1.3,0.3
			C20.1,191.8,19.7,191.7,20.5,191.5L20.5,191.5z M217.2,139.5c-2.3-1.3-4.5-3.5-5.8-5.6c-1.7-2.7-2.6-3.4-4.2-3.4
			c-1.8,0-2.3-0.5-3.4-3.6l-1.3-3.6l-7.1-1.6c-6.2-1.4-7.7-2.1-12.3-5.5l-5.3-4l0.5-3.5c0.6-4.4-1.1-7.4-4.1-7.4
			c-1.1,0-2.8-0.7-3.9-1.5c-1.3-1-3.1-1.5-5.9-1.5c-3.7,0-4.4-0.3-8.6-3.6c-2.5-2-5-3.8-5.5-4.1c-0.5-0.3-3.3,0-6.3,0.7
			c-6.6,1.5-12.5,0.6-15.3-2.5c-1.1-1.2-3.4-2.2-6.6-3l-4.9-1.1l-3.5-8.2c-2.4-5.6-3.5-9.2-3.5-11.5c0-2.8-0.4-3.7-2.2-5.2
			c-1.2-1-2.2-2.3-2.2-2.7c0-1.2-1.3-1-7.8,1.2c-5,1.6-6.3,1.8-8.1,1.2c-2.1-0.8-2.6-0.5-9.5,4.7c-5.2,3.9-8.4,5.8-11,6.4
			c-2,0.5-5,1.7-6.7,2.6c-3.1,1.7-3.1,1.7-4.4,0.3C57.6,72.7,56.1,72,55,72s-3.3-0.9-4.8-2c-2.7-1.8-3.3-1.9-7.9-1.4
			c-3.9,0.4-5.6,1-7.8,2.8c-2,1.6-3.1,2-3.8,1.5c-0.5-0.4-2.9-1-5.4-1.2l-4.5-0.5l-3.2,4.9c-4,6.2-5.9,7.2-9.2,4.9L6,79.3l-1.7,1.6
			c-0.9,0.9-2.3,1.6-3,1.6C0.1,82.5,0,79.4,0,41.2V0h117.4h117.4v17.1c0,18.3-0.4,20.7-3.7,24.5l-2,2.2l2.3-2.1c3.6-3.2,4-6,4-24.8
			V0H278h42.6l-6,1.9c-4.5,1.4-6.8,2.6-9.1,4.9c-2,2-4,3.1-5.9,3.4c-2.3,0.4-3.3,1.2-5.4,4c-2.4,3.3-2.8,3.6-6.8,4.1
			c-5.5,0.7-6,0.9-6.5,3c-0.4,1.5-1.1,1.8-5.5,2.4c-4.7,0.6-5.1,0.8-5.7,2.9c-0.4,1.2-1.7,2.9-3,3.8c-1.7,1.1-2.4,2.1-2.4,3.5
			c0,1.1-0.7,2.8-1.6,3.7c-0.9,1-2.7,3.7-4,6.1c-2.2,3.9-2.4,4.7-1.9,8.1c0.4,2.9,0.2,4.5-0.7,6.6c-1.2,2.7-1.2,2.9,1.4,9.6
			c2.3,5.8,2.7,7.8,2.7,12.9v6l-4,1.9c-3.3,1.6-4.3,2.6-5.8,5.8c-1.6,3.2-2.7,4.3-6.9,6.9l-5.1,3v3.4c0,2.9,0.4,3.8,2.6,6
			c1.4,1.4,2.6,2.8,2.6,3c0,0.3-1.1,0.8-2.4,1.2c-1.8,0.5-2.6,1.3-3.3,3.3c-1.2,3.5-2.9,3.7-5,0.5c-1.2-1.8-2.6-2.8-4.9-3.4
			c-1.8-0.5-3.7-0.7-4.2-0.5c-1,0.4-6.8-5.3-6.4-6.3c0.1-0.3,1.6-2.9,3.2-5.9c2.4-4.4,3.6-5.7,6-6.7c1.6-0.7,3.5-1.4,4.1-1.4
			s1.1-0.4,1-0.9c-0.1-0.4,0.2-1.9,0.5-3.3c0.6-2,0.4-2.9-0.9-4.8l-1.5-2.3l2.3,2.4c1.3,1.3,2.3,2.1,2.3,1.8s-1.5-2-3.4-3.7
			c-2.1-1.8-3.5-3.8-3.8-5.3c-0.4-2.1-0.2-2.5,3.4-4.8c2.3-1.5,3.7-2.9,3.5-3.5c-0.2-0.5-0.4-1.9-0.4-3.1c0-1.9-0.4-2.2-4.5-3.3
			c-3.5-1-4.7-1.7-5.2-3.1c-0.4-1-2-2.5-3.7-3.4c-3.4-1.7-7.8-7.5-7.1-9.4c0.3-0.7,1.7-1.8,3.2-2.6c2.4-1.2,2.9-2,4.3-6.9
			c1.7-5.9,1.1-5.4,8-7c2.1-0.5,2.9-2.7,0.9-2.7c-0.6,0-1.8-0.6-2.6-1.4c-1.4-1.4-1.5-1.4-3.2,0.4c-1.6,1.7-1.8,1.7-2.7,0.6
			c-1.1-1.5-1-1.5-2.9,8.3c-1.3,6.8-2.6,8.4-5.6,6.5c-1-0.7-5.3,0.9-5.3,1.9c0,0.2,0.6,2.1,1.3,4.2c1,2.9,2.2,4.5,5.6,7.2
			c2.3,1.9,4.3,3.9,4.3,4.4c0,0.5,0.5,0.9,1,0.9s2.3,1.1,3.9,2.5l3,2.5l-1.8,3.8c-1.4,2.9-1.7,4.5-1.3,7c0.4,2.9,0.2,3.4-1.6,4.9
			l-2,1.7l2.2-0.6c1.9-0.5,2.6-0.3,4.3,1.3l2,1.9l-1.4,2.8c-0.8,1.6-2.3,3.1-3.3,3.5c-1.2,0.4-2.5,1.9-3.6,4c-1.3,2.5-2.3,3.5-4.1,4
			c-2.4,0.7-2.4,0.7-2.4,5.2c0,3.2-0.4,4.9-1.3,6c-1.3,1.4-1.3,1.5,0.6,1c1.5-0.4,2.1,0,3.1,1.7c0.9,1.5,2.2,2.4,4.5,3
			c1.8,0.5,4.4,1.2,5.9,1.5c1.9,0.5,3,1.4,4.1,3.3c1,1.9,2.2,2.9,4.4,3.5l2.9,0.9l-1.8,1c-1.2,0.6-2,1.9-2.3,3.6
			c-0.5,2.5-0.7,2.7-6.5,4.5c-3.3,1-6.1,1.9-6.2,1.9C220.9,141.7,219.2,140.7,217.2,139.5L217.2,139.5z M221,138.2
			c-0.2-0.7-0.4-0.3-0.4,0.9s0.1,1.8,0.3,1.3C221.2,139.9,221.2,138.9,221,138.2L221,138.2z M219.1,126.8c-1.7-2.8-3.1-5.6-3.1-6.1
			c0-0.7-0.2-0.7-0.4-0.1c-0.2,0.5,1,3.2,2.7,6s3.1,6,3.2,7c0.1,1.8,0.1,1.8,0.4,0.1C222,132.5,221,130.1,219.1,126.8L219.1,126.8z
			 M221.3,108.9c0.9-1.2,0.9-1.2-0.3-0.3c-0.7,0.6-1.3,1.2-1.3,1.3C219.8,110.6,220.4,110.2,221.3,108.9L221.3,108.9z M223.4,105.4
			c-0.2-0.2-0.7,0.2-0.9,0.9c-0.4,1.1-0.3,1.2,0.4,0.4C223.4,106.2,223.6,105.6,223.4,105.4L223.4,105.4z M225.8,101.4
			c0.9-1.2,0.9-1.2-0.3-0.3c-1.2,1-1.6,1.6-1,1.6C224.7,102.8,225.3,102.2,225.8,101.4z M230.3,98.6c0-0.2-0.7,0-1.5,0.4
			s-1.5,1-1.5,1.2s0.7,0,1.5-0.4C229.6,99.3,230.3,98.8,230.3,98.6z M233.7,93.6c-0.2-0.5-0.4-0.1-0.4,0.9s0.2,1.5,0.4,0.9
			C234,94.9,234,94.1,233.7,93.6L233.7,93.6z M233.3,78.4l4.1-4.5l-4.3,4.1c-2.4,2.3-4.3,4.4-4.3,4.8s0.1,0.6,0.2,0.4
			C229,83,231,80.8,233.3,78.4L233.3,78.4z M231.7,63.2c-2.2-2.4-4.2-4.2-4.4-4.1c-0.3,0.2,7.5,8.4,8.1,8.4
			C235.6,67.5,233.9,65.5,231.7,63.2z M227,56.1c-0.2-0.6-0.4-0.4-0.5,0.5c0,0.8,0.1,1.2,0.4,1C227.2,57.3,227.2,56.7,227,56.1
			L227,56.1z M226.3,53.1c-0.2-0.6-0.4-0.4-0.5,0.5c0,0.8,0.1,1.2,0.4,1C226.5,54.3,226.5,53.7,226.3,53.1L226.3,53.1z M227,47.9
			c-0.2-0.6-0.4-0.4-0.5,0.5c0,0.8,0.1,1.2,0.4,1C227.2,49,227.2,48.4,227,47.9L227,47.9z M228.8,45.2c0.9-1.2,0.9-1.2-0.3-0.3
			c-0.7,0.6-1.3,1.2-1.3,1.3C227.3,46.8,227.9,46.4,228.8,45.2z"/>
		<path id="path3849" inkscape:connector-curvature="0" class="st5" d="M0,275.3v-45.7l3.2-0.9c2.4-0.6,6-0.7,14.1-0.1
			c6,0.4,15.3,0.6,20.8,0.4c7.3-0.3,9.9-0.1,9.9,0.5c0,0.5,3.7,5,8.3,10.1c6.4,7.2,9.1,9.6,11.8,10.8c1.9,0.8,6.1,2.6,9.2,3.8
			c5.4,2.2,5.8,2.6,8.8,7.5l3.2,5.1l8.4,3.6l8.4,3.6l4.3-4.2c3.8-3.7,4.4-4.1,5.3-3c0.8,0.9,0.8,1.6,0.2,3c-0.9,2-0.8,2.2,2.7,3
			c3.3,0.7,5.4,3.6,5.4,7.4c0,1.8,0.5,3.6,1.2,4.4c1.1,1.2,1.1,1.8,0.3,4.3c-0.9,2.7-0.8,3.5,1.8,11.3c2.4,7.2,3.4,9.1,7.6,14.3
			c2.6,3.3,4.8,6.1,4.8,6.4c0,0.2-31.4,0.4-69.8,0.4H0V275.3z M160.9,319.6c1.2-0.8,6.3-2.4,11.2-3.5c7.9-1.9,9.1-2.4,10.1-4.2
			c0.7-1.2,2.3-2.4,3.8-2.9c1.4-0.5,2.9-1.3,3.2-1.9c0.9-1.5,3.9-1.3,7.3,0.5c4.1,2.1,5.1,1.9,5.9-1.2c0.4-1.5,1.9-3.8,3.3-5.1
			c1.9-1.8,2.8-3.4,3.5-6.6c0.5-2.3,1.4-4.4,2-4.6c0.7-0.3,2.2,1.6,4.4,5.4l3.3,5.8l5.2,1.3c4.3,1.1,5.7,1.9,8.7,5l3.6,3.6l5.9-3.3
			c5.7-3.2,5.9-3.4,6.4-6.7c0.4-2.9,0.8-3.4,2.5-3.8c1.1-0.2,4-2.1,6.3-4.1c4.6-3.9,6-4.4,8-2.5c2.2,2,7.4,2.4,12.7,1
			c6.7-1.9,12.1-6.7,16.5-14.7l3.3-6.1l3.9-0.5c3.1-0.4,4.4-1,6.3-3c2.1-2.1,2.8-2.4,5.1-2.1c6.4,0.8,5.9,0.2,6.5,8.5
			c0.4,5.5,0.9,8,1.9,9.2c1.3,1.6,1.2,1.8-0.9,6.8l-2.2,5.2l1.5,2c0.8,1.1,2.1,4,2.8,6.5c0.7,2.4,1.6,4.8,2.1,5.3s3.1,1.6,5.7,2.4
			c4.5,1.4,4.9,1.4,5.8,0.3c3.4-4.5,5-5,6.2-2c1,2.7,4.5,4.2,9.9,4.2c4.4,0.1,4.9,0.2,6.8,2.5c1.3,1.5,1.9,3,1.6,3.7
			c-0.4,1.1-9.5,1.2-101.4,1.2C160.7,321,158.7,320.9,160.9,319.6L160.9,319.6z M0,207.3C0,195.6,0.2,186,0.4,186
			c1.1,0,10.4,4.6,12.6,6.3c3,2.3,8.6,2.6,12.9,0.9c2-0.8,3.1-0.9,5.3-0.2s3.9,2.4,9,9.2l6.2,8.4l0.5,7c0.3,3.9,0.6,7.7,0.8,8.6
			c0.3,1.5,0.1,1.6-13.7,1.7c-7.7,0.1-17-0.1-20.5-0.4c-4.3-0.4-7.7-0.3-9.9,0.3L0,228.6V207.3z M20.5,191.5c0.7-0.2,1.7-0.2,2.3,0
			c0.5,0.2-0.1,0.4-1.3,0.3C20.1,191.8,19.7,191.7,20.5,191.5L20.5,191.5z M221.8,136.5c0.3-4.8,0.2-5.3-2.4-9.6
			c-2.7-4.5-3.7-7.9-1.8-6.3c0.5,0.4,2.1,1,3.6,1.3c7,1.4,7.9,1.8,9.2,4.5c0.9,2,2,2.8,4.3,3.5c3.1,0.9,3.1,0.9,1.2,1.9
			c-1.2,0.6-2,1.9-2.3,3.6c-0.5,2.8,0.1,2.4-10.3,5.7l-2,0.6L221.8,136.5z M216.7,139c-2.1-1.2-4.1-3.1-5.4-5.2
			c-1.6-2.7-2.4-3.3-4.1-3.3c-1.9,0-2.3-0.5-3.5-3.7c-0.7-2.1-1.5-3.8-1.7-3.8s-3.4-0.7-7.1-1.5c-5.8-1.3-7.5-2-11.9-5.4l-5.2-3.9
			l0.4-3.5c0.5-4.4-1.2-7.5-4.2-7.5c-1.1,0-2.8-0.7-3.9-1.5c-1.3-1-3.1-1.5-5.9-1.5c-3.7,0-4.4-0.3-8.6-3.6c-2.5-2-5-3.8-5.5-4.1
			c-0.5-0.3-3.3,0-6.3,0.7c-4.6,1.1-6,1.1-9.4,0.3c-2.3-0.6-4.9-1.8-6.1-3c-1.4-1.3-3.6-2.3-6.6-2.9l-4.5-0.9l-3.5-8.3
			c-2.3-5.5-3.5-9.4-3.5-11.5c0-2.7-0.4-3.6-2.2-5.1c-1.2-1-2.2-2.3-2.2-2.7c0-1.2-0.9-1-8,1.2c-5.2,1.6-6.7,1.8-8.2,1.1
			c-1.7-0.8-2.5-0.4-9.3,4.7c-5.2,3.9-8.5,5.9-11,6.5c-2,0.5-5,1.7-6.7,2.6c-3.1,1.7-3.1,1.7-4.4,0.3C57.5,72.7,56,72,54.9,72
			s-3.3-0.9-4.9-2c-2.7-1.8-3.3-1.9-7.8-1.5c-3.8,0.4-5.5,1-7.7,2.7c-2.7,2.1-2.9,2.2-4.9,1.1c-1.2-0.6-3.7-1.1-5.5-1.1
			c-3.3,0-3.4,0.1-6.6,4.9c-3.9,5.9-6.1,7-9.3,4.8L6,79.3l-1.7,1.6c-0.9,0.9-2.3,1.6-3,1.6C0.1,82.5,0,79.4,0,41.2V0h116.9h116.9
			l0.5,14.7c0.8,20.5,0.7,20.8-5.2,29.1c-2.2,3.1-3,5-3.2,7.7c-0.3,3.8,0,3.3,0.8-1.4c0.3-1.8,1.6-4.1,3.5-6.4
			c5-5.8,5.1-6.3,5.1-26.1V0l42.2,0.1l42.2,0.1l-5.8,2c-4,1.4-6.7,2.9-8.6,4.8c-2,1.9-3.8,2.9-5.9,3.3c-2.5,0.4-3.4,1-4.9,3.5
			c-2.2,3.7-2.9,4.1-8.5,4.8c-4,0.5-4.5,0.8-5.2,2.7c-0.6,1.6-1.3,2.2-2.7,2.2c-5.1,0-7.7,0.9-8.4,3.1c-0.4,1.2-1.9,3-3.4,4.1
			c-2,1.5-2.5,2.4-2.2,3.6c0.3,1-0.2,2.2-1.3,3.5c-1,1-2.8,3.7-4.2,6c-2.2,3.6-2.4,4.5-2,7.9c0.3,2.6,0.1,4.8-0.7,6.8
			c-1.1,2.9-1.1,3.2,1.5,10c2.2,5.9,2.7,7.9,2.7,12.9V87l-4,2c-3.4,1.7-4.3,2.6-5.8,5.8c-1.5,3.2-2.6,4.3-6.8,6.8l-5.1,3v3.4
			c0,2.9,0.4,3.8,2.6,6c3.1,3,3.3,3.7,0.9,3.8c-2.5,0-3.3,0.8-4.1,3.7c-0.9,3.5-2.6,3.6-4.7,0.5c-1.9-2.7-6.4-4.7-8.9-3.9
			c-1,0.3-2.2-0.5-4.1-2.6c-3.1-3.4-3.2-2.8,1.5-10.6c2.3-3.8,4.1-5.3,6.6-5.4c0.4,0,1.8-0.6,3.1-1.3c1.9-1.1,2.4-1.9,2.8-4.8
			c0.5-3.3,0.3-3.7-1.9-6c-1.3-1.3-2.6-2.3-2.9-2.1c-0.5,0.3-2.2-3.5-2.2-4.9c0-0.3,1.7-1.7,3.8-3c3.1-2,3.7-2.7,3.4-4
			c-0.2-0.9-0.4-2.3-0.4-3.2c0-1.4-0.8-1.9-4.4-2.9c-3.2-0.9-4.6-1.7-5.2-3c-0.4-0.9-2.2-2.5-3.8-3.4c-3.2-1.8-6.8-6.5-6.8-8.8
			c0-0.9,1-1.9,2.9-2.7c2.7-1.2,3-1.7,4.2-6.3c1.6-6.1,2-6.6,5.5-7.2c3.3-0.6,4.4-1.2,4.8-2.6c0.1-0.6-0.5-1.1-1.6-1.3
			c-1-0.2-2.2-0.8-2.5-1.5c-0.6-1-0.9-0.9-2.7,0.8c-1.8,1.8-2.1,1.8-2.6,0.7c-0.9-2.2-1.7-0.2-3,7.4c-1.3,7.7-2.4,9.1-5.4,7.5
			c-0.9-0.5-2-0.4-3.5,0.4c-1.8,0.9-2.1,1.4-1.7,3.1c1.1,4.5,2.7,6.9,6.6,10c2.3,1.8,4.2,3.9,4.2,4.6c0,0.7,0.5,1.1,1,0.9
			s2.3,0.8,3.9,2.2l3,2.5l-1.7,3.7c-1.2,2.6-1.7,4.8-1.5,7.2c0.2,2.9-0.1,3.7-1.6,5l-1.8,1.5l2.5-0.5c1.9-0.4,2.9-0.1,4.3,1.2
			l1.8,1.7l-1.4,2.8c-0.9,1.7-2.2,3-3.3,3.3c-1.3,0.3-2.4,1.6-3.6,4c-1.3,2.7-2.3,3.7-4.3,4.4c-2.6,0.9-2.6,0.9-2.7,5.5
			c-0.1,2.7-0.5,5.1-1.1,5.9c-0.9,1.1-0.8,1.2,1,0.7c2-0.5,2.1-0.4,2.1,2.5c0,2.2,0.8,4.3,2.9,7.7c2.7,4.4,2.9,4.9,2.4,9.3l-0.4,4.7
			L216.7,139z M223.5,105.3c0.8-1.7,2.3-3.7,3.2-4.3c1.6-1.2,1.6-1.2-0.4-0.3c-1.2,0.5-2.4,1.8-2.8,3.1c-0.4,1.2-1.6,3.3-2.5,4.6
			c-2.6,3.4-3.2,4.9-0.9,2.3C221.1,109.4,222.7,107,223.5,105.3L223.5,105.3z M233.4,78.3c3.6-3.7,3.7-3.9,3.2-7.1
			c-0.4-2.5-1.5-4.2-4.5-7.4c-2.2-2.3-4.3-5.2-4.8-6.4l-0.8-2.2l0.4,2.6c0.3,1.8,1.7,3.9,4.5,6.7c3.1,3.1,4.1,4.8,4.5,7.1
			c0.4,2.8,0.3,3.2-3.3,6.7c-2.1,2-3.8,4.2-3.7,4.9c0.1,1,0.1,1,0.5,0C229.5,82.6,231.4,80.4,233.4,78.3L233.4,78.3z M232.4,94.7
			c0.3-1.6,0.5-1.8,0.7-0.7c0.2,0.8,0,1.7-0.4,2.1C232.2,96.6,232.1,96.1,232.4,94.7z M231.9,89.4l-1.8-2.8l2,2
			c1.1,1.1,1.9,2.3,1.8,2.8C233.8,91.8,232.8,90.9,231.9,89.4z"/>
		<path id="path3847" inkscape:connector-curvature="0" class="st6" d="M197.1,317.8c0.2-1.8,0.8-3.5,1.4-3.8
			c0.8-0.4,0.9-1.3,0.6-2.8c-0.4-1.9-0.2-2.2,1-2.2c1.1,0,1.7-0.7,2.3-2.7c0.4-1.5,1.9-3.8,3.3-5.1c1.9-1.8,2.8-3.4,3.5-6.6
			c0.5-2.3,1.4-4.4,2-4.6c0.7-0.3,2.2,1.6,4.4,5.4l3.3,5.8l5.2,1.3c4.3,1.1,5.7,1.9,8.7,5l3.6,3.6l5.9-3.3c5.7-3.2,5.9-3.4,6.4-6.7
			c0.4-2.9,0.8-3.4,2.5-3.8c1.1-0.2,4-2.1,6.3-4.1c4.6-3.9,6-4.4,8-2.5c2.2,2,7.4,2.4,12.7,1c6.7-1.9,12.1-6.7,16.5-14.7l3.3-6.1
			l3.9-0.5c3.1-0.4,4.4-1,6.3-3c2.1-2.1,2.8-2.4,5.1-2.1c6.4,0.8,5.9,0.2,6.5,8.5c0.4,5.5,0.9,8,1.9,9.2c1.3,1.6,1.2,1.8-0.9,6.8
			l-2.2,5.2l1.5,2c0.8,1.1,2.1,4,2.8,6.5c0.7,2.4,1.6,4.8,2.1,5.3s3.1,1.6,5.7,2.4c4.5,1.4,4.9,1.4,5.8,0.3c3.4-4.5,5-5,6.2-2
			c1,2.7,4.5,4.2,9.9,4.2c4.4,0.1,4.9,0.2,6.8,2.5c4.4,5.3,10.3,4.9-80.7,4.9h-81.9L197.1,317.8z M221.8,136.5
			c0.3-4.8,0.2-5.3-2.4-9.6c-2.7-4.5-3.7-7.9-1.8-6.3c0.5,0.4,2.1,1,3.6,1.3c7,1.4,7.9,1.8,9.2,4.5c0.9,2,2,2.8,4.3,3.5
			c3.1,0.9,3.1,0.9,1.2,1.9c-1.2,0.6-2,1.9-2.3,3.6c-0.5,2.8,0.1,2.4-10.3,5.7l-2,0.6L221.8,136.5z M216.7,139
			c-2.1-1.2-4.1-3.1-5.4-5.2c-1.6-2.7-2.4-3.3-4.1-3.3c-1.9,0-2.3-0.5-3.5-3.7c-0.7-2.1-1.5-3.8-1.7-3.8s-3.4-0.7-7.1-1.5
			c-5.8-1.3-7.5-2-11.9-5.4l-5.2-3.9l0.4-3.5c0.5-4.4-1.2-7.5-4.2-7.5c-1.1,0-2.8-0.7-3.9-1.5c-1.3-1-3.1-1.5-5.9-1.5
			c-3.7,0-4.4-0.3-8.6-3.6c-2.5-2-5-3.8-5.5-4.1c-0.5-0.3-3.3,0-6.3,0.7c-4.6,1.1-6,1.1-9.4,0.3c-2.3-0.6-4.9-1.8-6.1-3
			c-1.4-1.3-3.6-2.3-6.6-2.9l-4.5-0.9l-3.5-8.3c-2.3-5.5-3.5-9.4-3.5-11.5c0-2.7-0.4-3.6-2.2-5.1c-1.2-1-2.2-2.3-2.2-2.7
			c0-1.2-0.9-1-8,1.2c-5.2,1.6-6.7,1.8-8.2,1.1c-1.7-0.8-2.5-0.4-9.3,4.7c-5.2,3.9-8.5,5.9-11,6.5c-2,0.5-5,1.7-6.7,2.6
			c-3.1,1.7-3.1,1.7-4.4,0.3C57.5,72.7,56,72,54.9,72s-3.3-0.9-4.9-2c-2.7-1.8-3.3-1.9-7.8-1.5c-3.8,0.4-5.5,1-7.7,2.7
			c-2.7,2.1-2.9,2.2-4.9,1.1c-1.2-0.6-3.7-1.1-5.5-1.1c-3.3,0-3.4,0.1-6.6,4.9c-3.9,5.9-6.1,7-9.3,4.8L6,79.3l-1.7,1.6
			c-0.9,0.9-2.3,1.6-3,1.6C0.1,82.5,0,79.4,0,41.2V0h116.9h116.9l0.5,14.7c0.8,20.5,0.7,20.8-5.2,29.1c-2.2,3.1-3,5-3.2,7.7
			c-0.3,3.8,0,3.3,0.8-1.4c0.3-1.8,1.6-4.1,3.5-6.4c5-5.8,5.1-6.3,5.1-26.1V0l42.2,0.1l42.2,0.1l-5.8,2c-4,1.4-6.7,2.9-8.6,4.8
			c-2,1.9-3.8,2.9-5.9,3.3c-2.5,0.4-3.4,1-4.9,3.5c-2.2,3.7-2.9,4.1-8.5,4.8c-4,0.5-4.5,0.8-5.2,2.7c-0.6,1.6-1.3,2.2-2.7,2.2
			c-5.1,0-7.7,0.9-8.4,3.1c-0.4,1.2-1.9,3-3.4,4.1c-2,1.5-2.5,2.4-2.2,3.6c0.3,1-0.2,2.2-1.3,3.5c-1,1-2.8,3.7-4.2,6
			c-2.2,3.6-2.4,4.5-2,7.9c0.3,2.6,0.1,4.8-0.7,6.8c-1.1,2.9-1.1,3.2,1.5,10c2.2,5.9,2.7,7.9,2.7,12.9V87l-4,2
			c-3.4,1.7-4.3,2.6-5.8,5.8c-1.5,3.2-2.6,4.3-6.8,6.8l-5.1,3v3.4c0,2.9,0.4,3.8,2.6,6c3.1,3,3.3,3.7,0.9,3.8
			c-2.5,0-3.3,0.8-4.1,3.7c-0.9,3.5-2.6,3.6-4.7,0.5c-1.9-2.7-6.4-4.7-8.9-3.9c-1,0.3-2.2-0.5-4.1-2.6c-3.1-3.4-3.2-2.8,1.5-10.6
			c2.3-3.8,4.1-5.3,6.6-5.4c0.4,0,1.8-0.6,3.1-1.3c1.9-1.1,2.4-1.9,2.8-4.8c0.5-3.3,0.3-3.7-1.9-6c-1.3-1.3-2.6-2.3-2.9-2.1
			c-0.5,0.3-2.2-3.5-2.2-4.9c0-0.3,1.7-1.7,3.8-3c3.1-2,3.7-2.7,3.4-4c-0.2-0.9-0.4-2.3-0.4-3.2c0-1.4-0.8-1.9-4.4-2.9
			c-3.2-0.9-4.6-1.7-5.2-3c-0.4-0.9-2.2-2.5-3.8-3.4c-3.2-1.8-6.8-6.5-6.8-8.8c0-0.9,1-1.9,2.9-2.7c2.7-1.2,3-1.7,4.2-6.3
			c1.6-6.1,2-6.6,5.5-7.2c3.3-0.6,4.4-1.2,4.8-2.6c0.1-0.6-0.5-1.1-1.6-1.3c-1-0.2-2.2-0.8-2.5-1.5c-0.6-1-0.9-0.9-2.7,0.8
			c-1.8,1.8-2.1,1.8-2.6,0.7c-0.9-2.2-1.7-0.2-3,7.4c-1.3,7.7-2.4,9.1-5.4,7.5c-0.9-0.5-2-0.4-3.5,0.4c-1.8,0.9-2.1,1.4-1.7,3.1
			c1.1,4.5,2.7,6.9,6.6,10c2.3,1.8,4.2,3.9,4.2,4.6c0,0.7,0.5,1.1,1,0.9s2.3,0.8,3.9,2.2l3,2.5l-1.7,3.7c-1.2,2.6-1.7,4.8-1.5,7.2
			c0.2,2.9-0.1,3.7-1.6,5l-1.8,1.5l2.5-0.5c1.9-0.4,2.9-0.1,4.3,1.2l1.8,1.7l-1.4,2.8c-0.9,1.7-2.2,3-3.3,3.3
			c-1.3,0.3-2.4,1.6-3.6,4c-1.3,2.7-2.3,3.7-4.3,4.4c-2.6,0.9-2.6,0.9-2.7,5.5c-0.1,2.7-0.5,5.1-1.1,5.9c-0.9,1.1-0.8,1.2,1,0.7
			c2-0.5,2.1-0.4,2.1,2.5c0,2.2,0.8,4.3,2.9,7.7c2.7,4.4,2.9,4.9,2.4,9.3l-0.4,4.7L216.7,139z M223.5,105.3c0.8-1.7,2.3-3.7,3.2-4.3
			c1.6-1.2,1.6-1.2-0.4-0.3c-1.2,0.5-2.4,1.8-2.8,3.1c-0.4,1.2-1.6,3.3-2.5,4.6c-2.6,3.4-3.2,4.9-0.9,2.3
			C221.1,109.4,222.7,107,223.5,105.3L223.5,105.3z M233.4,78.3c3.6-3.7,3.7-3.9,3.2-7.1c-0.4-2.5-1.5-4.2-4.5-7.4
			c-2.2-2.3-4.3-5.2-4.8-6.4l-0.8-2.2l0.4,2.6c0.3,1.8,1.7,3.9,4.5,6.7c3.1,3.1,4.1,4.8,4.5,7.1c0.4,2.8,0.3,3.2-3.3,6.7
			c-2.1,2-3.8,4.2-3.7,4.9c0.1,1,0.1,1,0.5,0C229.5,82.6,231.4,80.4,233.4,78.3L233.4,78.3z M232.4,94.7c0.3-1.6,0.5-1.8,0.7-0.7
			c0.2,0.8,0,1.7-0.4,2.1C232.2,96.6,232.1,96.1,232.4,94.7z M231.9,89.4l-1.8-2.8l2,2c1.1,1.1,1.9,2.3,1.8,2.8
			C233.8,91.8,232.8,90.9,231.9,89.4z"/>
		<path id="path3845" inkscape:connector-curvature="0" class="st7" d="M233.2,122c-1.9-2.7-6.4-4.7-8.8-3.9
			c-0.9,0.3-2.1-0.4-3.7-2.1l-2.4-2.5l2.5-3.3c2.8-3.8,5.4-8.9,4.4-8.9c-0.3,0-1.2,1.3-1.9,2.9c-1.1,2.4-5.6,8.6-4.7,6.5
			c1.1-2.8,6-10,7-10.4c0.7-0.3,1-0.1,0.7,0.3c-0.8,1.3,0.5,0.8,4.2-1.5c3.2-2,3.6-2.7,4.1-5.7c0.5-3.1,0.3-3.7-1.7-5.8
			c-1.2-1.3-2.4-2.9-2.6-3.5c-0.2-0.7,1.2-2.8,3.6-5.3l4-4.1l-0.8-3.4c-0.6-2.4-1.9-4.5-4.8-7.5c-2.7-2.8-4.2-5.2-4.8-7.4
			c-1-3.9-0.4-8.5,1.5-10.8l1.3-1.7l4.6,2.5l4.6,2.5l5.4-3l5.4-3l3.1,1.8c2.9,1.7,3.1,2.1,3.5,6.1c0.3,3,0.1,5.2-0.7,7.3
			c-1.1,2.9-1.1,3.2,1.5,10c2.2,5.9,2.7,7.9,2.7,12.9v6l-4,2c-3.4,1.7-4.3,2.6-5.8,5.8c-1.5,3.2-2.6,4.3-6.8,6.8l-5.1,3v3.4
			c0,2.9,0.4,3.8,2.6,6c3.1,3,3.3,3.7,0.9,3.8c-2.5,0-3.3,0.8-4.1,3.7C237.1,125,235.4,125.1,233.2,122L233.2,122z M232.4,94.7
			c0.3-1.6,0.5-1.8,0.7-0.7c0.2,0.8,0,1.7-0.4,2.1C232.2,96.6,232.1,96.1,232.4,94.7z M231.7,89.1l-1.7-2.5l2.1,2
			c1.2,1.1,1.9,2.2,1.7,2.5S232.7,90.5,231.7,89.1z M227.8,82.5c-0.3-1-0.5-2.1-0.5-2.3c0-0.3,1.7-1.6,3.8-2.9
			c3.5-2.2,3.8-2.6,3.4-4.7c-0.2-1.2-0.4-2.7-0.4-3.2c0-0.6-1.9-1.5-4.4-2.2c-3.2-0.9-4.6-1.7-5.2-3c-0.4-0.9-2.2-2.5-3.8-3.4
			c-3.2-1.8-6.8-6.5-6.8-8.8c0-0.9,1-1.9,2.9-2.7c2.7-1.2,3-1.7,4.2-6.3c0.7-2.7,1.5-5.2,1.8-5.5s1.1,0.6,1.9,2.1
			c0.8,1.4,1.6,2.6,1.9,2.6c0.2,0,0.9,0.3,1.5,0.7c0.9,0.5,0.9,0.9,0,2.4c-3.8,6.7-2.7,13,3.4,19.4c2.8,2.9,4.1,5,4.5,7
			c0.5,2.8,0.4,3.1-3.2,6.7c-2,2.1-3.9,4.3-4,4.9C228.4,84,228.1,83.7,227.8,82.5L227.8,82.5z"/>
		<text transform="matrix(1 0 0 1 78.9113 165.3219)" class="st8 st9">1</text>
		<text transform="matrix(1 0 0 1 331.2326 168.0006)" class="st8 st9">2</text>
		<text transform="matrix(1 0 0 1 153.3752 65.1441)" class="st10 st8 st9">3</text>
	</g>
</g>
</svg>
