<?xml version="1.0" encoding="UTF-8"?>
<svg xmlns="http://www.w3.org/2000/svg" xmlns:xlink="http://www.w3.org/1999/xlink" viewBox="-120 -5 1183 265" preserveAspectRatio="xMidYMid meet" id="svg-wu-bars-ir" version="1.1">
  <g id="winterGroup" transform="translate(0 265) scale(3.24110 0.00028)">
    <path d="M0,0 v-3409 h1 v0 h1 v0 h1 v0 h1 v0 h1 v0 h1 v0 h1 v0 h1 v0 h1 v0 h1 v0 h1 v0 h1 v0 h1 v0 h1 v0 h1 v0 h1 v82 h1 v82 h1 v82 h1 v82 h1 v82 h1 v82 h1 v82 h1 v82 h1 v82 h1 v82 h1 v82 h1 v82 h1 v82 h1 v82 h1 v82 h1 v82 h1 v82 h1 v82 h1 v82 h1 v82 h1 v82 h1 v82 h1 v82 h1 v82 h1 v82 h1 v82 h1 v82 h1 v82 h1 v-1802 h1 v-1802 h1 v-1802 h1 v-1802 h1 v-1802 h1 v-1802 h1 v-1802 h1 v-1802 h1 v-1802 h1 v-1802 h1 v-1802 h1 v-1802 h1 v-1802 h1 v-1802 h1 v-1802 h1 v28141Z" class="wu-bars"/>
    <path d="M0,0 v-958468.813913856 h59 v958468.813913856 Z" class="wu-bars-hover" id="winter"/>
  </g>
  <g id="springGroup" transform="translate(0 265) scale(3.24110 0.00028)">
    <path d="M59,0 v-29943 h1 v-1802 h1 v-1802 h1 v-1802 h1 v-1802 h1 v-1802 h1 v-1802 h1 v-1802 h1 v-1802 h1 v-1802 h1 v-1802 h1 v-1802 h1 v-1802 h1 v-1802 h1 v-1802 h1 v-1802 h1 v-2434 h1 v-2434 h1 v-2434 h1 v-2434 h1 v-2434 h1 v-2434 h1 v-2434 h1 v-2434 h1 v-2434 h1 v-2434 h1 v-2434 h1 v-2434 h1 v-2434 h1 v-2434 h1 v-2434 h1 v-2434 h1 v-2434 h1 v-2434 h1 v-2434 h1 v-2434 h1 v-2434 h1 v-2434 h1 v-2434 h1 v-2434 h1 v-2434 h1 v-2434 h1 v-2434 h1 v-2434 h1 v-2434 h1 v-2434 h1 v-12578 h1 v-12578 h1 v-12578 h1 v-12578 h1 v-12578 h1 v-12578 h1 v-12578 h1 v-12578 h1 v-12578 h1 v-12578 h1 v-12578 h1 v-12578 h1 v-12578 h1 v-12578 h1 v-12578 h1 v-12578 h1 v-12578 h1 v-12578 h1 v-12578 h1 v-12578 h1 v-12578 h1 v-12578 h1 v-12578 h1 v-12578 h1 v-12578 h1 v-12578 h1 v-12578 h1 v-12578 h1 v-12578 h1 v-12578 h1 v-12578 h1 v-5283 h1 v-5283 h1 v-5283 h1 v-5283 h1 v-5283 h1 v-5283 h1 v-5283 h1 v-5283 h1 v-5283 h1 v-5283 h1 v-5283 h1 v-5283 h1 v-5283 h1 v-5283 h1 v-5283 h1 v599165Z" class="wu-bars"/>
    <path d="M59,0 v-958468.813913856 h92 v958468.813913856 Z" class="wu-bars-hover" id="spring"/>
  </g>
  <g id="summerGroup" transform="translate(0 265) scale(3.24110 0.00028)">
    <path d="M151,0 v-604448 h1 v-5283 h1 v-5283 h1 v-5283 h1 v-5283 h1 v-5283 h1 v-5283 h1 v-5283 h1 v-5283 h1 v-5283 h1 v-5283 h1 v-5283 h1 v-5283 h1 v-5283 h1 v-5283 h1 v-9034 h1 v-9034 h1 v-9034 h1 v-9034 h1 v-9034 h1 v-9034 h1 v-9034 h1 v-9034 h1 v-9034 h1 v-9034 h1 v-9034 h1 v-9034 h1 v-9034 h1 v-9034 h1 v-9034 h1 v-9034 h1 v-9034 h1 v-9034 h1 v-9034 h1 v-9034 h1 v-9034 h1 v-9034 h1 v-9034 h1 v-9034 h1 v-9034 h1 v-9034 h1 v-9034 h1 v-9034 h1 v-9034 h1 v-9034 h1 v-9034 h1 v6634 h1 v6634 h1 v6634 h1 v6634 h1 v6634 h1 v6634 h1 v6634 h1 v6634 h1 v6634 h1 v6634 h1 v6634 h1 v6634 h1 v6634 h1 v6634 h1 v6634 h1 v6634 h1 v6634 h1 v6634 h1 v6634 h1 v6634 h1 v6634 h1 v6634 h1 v6634 h1 v6634 h1 v6634 h1 v6634 h1 v6634 h1 v6634 h1 v6634 h1 v6634 h1 v6634 h1 v16145 h1 v16145 h1 v16145 h1 v16145 h1 v16145 h1 v16145 h1 v16145 h1 v16145 h1 v16145 h1 v16145 h1 v16145 h1 v16145 h1 v16145 h1 v16145 h1 v16145 h1 v510650Z" class="wu-bars"/>
    <path d="M151,0 v-958468.813913856 h92 v958468.813913856 Z" class="wu-bars-hover" id="summer"/>
  </g>
  <g id="fallGroup" transform="translate(0 265) scale(3.24110 0.00028)">
    <path d="M243,0 v-494505 h1 v16145 h1 v16145 h1 v16145 h1 v16145 h1 v16145 h1 v16145 h1 v16145 h1 v16145 h1 v16145 h1 v16145 h1 v16145 h1 v16145 h1 v16145 h1 v16145 h1 v8219 h1 v8219 h1 v8219 h1 v8219 h1 v8219 h1 v8219 h1 v8219 h1 v8219 h1 v8219 h1 v8219 h1 v8219 h1 v8219 h1 v8219 h1 v8219 h1 v8219 h1 v8219 h1 v8219 h1 v8219 h1 v8219 h1 v8219 h1 v8219 h1 v8219 h1 v8219 h1 v8219 h1 v8219 h1 v8219 h1 v8219 h1 v8219 h1 v8219 h1 v8219 h1 v8219 h1 v238 h1 v238 h1 v238 h1 v238 h1 v238 h1 v238 h1 v238 h1 v238 h1 v238 h1 v238 h1 v238 h1 v238 h1 v238 h1 v238 h1 v238 h1 v238 h1 v238 h1 v238 h1 v238 h1 v238 h1 v238 h1 v238 h1 v238 h1 v238 h1 v238 h1 v238 h1 v238 h1 v238 h1 v238 h1 v238 h1 v196 h1 v196 h1 v196 h1 v196 h1 v196 h1 v196 h1 v196 h1 v196 h1 v196 h1 v196 h1 v196 h1 v196 h1 v196 h1 v196 h1 v196 h1 v3598Z" class="wu-bars"/>
    <path d="M243,0 v-958468.813913856 h91 v958468.813913856 Z" class="wu-bars-hover" id="fall"/>
  </g>
  <g id="winterGroup" transform="translate(0 265) scale(3.24110 0.00028)">
    <path d="M334,0 v-3402 h1 v196 h1 v196 h1 v196 h1 v196 h1 v196 h1 v196 h1 v196 h1 v196 h1 v196 h1 v196 h1 v196 h1 v196 h1 v196 h1 v196 h1 v196 h1 v0 h1 v0 h1 v0 h1 v0 h1 v0 h1 v0 h1 v0 h1 v0 h1 v0 h1 v0 h1 v0 h1 v0 h1 v0 h1 v0 h1 v0 h1 v463Z" class="wu-bars"/>
    <path d="M334,0 v-958468.813913856 h31 v958468.813913856 Z" class="wu-bars-hover" id="winter"/>
  </g>
  <g id="barchartAxis" translate="translate(0 265)">
    <path class="wu-bars-axis" d="M0,0 v265"/>
    <text id="yAxisLabelLow" class="wu-bars-axis" text-anchor="end" x="-20" y="263">0</text>
    <text id="yAxisLabelHigh" class="wu-bars-axis" text-anchor="end" x="-20" y="10">9.585e+08</text>
    <text id="yAxisTitle" class="wu-bars-axis" text-anchor="middle" transform="rotate(-90) translate(-132.5 -20)">Daily water use, mgd</text>
  </g>
</svg>
