<?xml version="1.0" encoding="UTF-8"?>
<svg xmlns="http://www.w3.org/2000/svg" xmlns:xlink="http://www.w3.org/1999/xlink" viewBox="-135 -10 1323 320" preserveAspectRatio="xMidYMid meet" id="svg-wu-bars-ir" version="1.1">
  <g id="winterGroup" transform="translate(0 265) scale(3.24658 0.00059)">
    <path d="M0,0 v-1762 h1 v0 h1 v0 h1 v0 h1 v0 h1 v0 h1 v0 h1 v0 h1 v0 h1 v0 h1 v0 h1 v0 h1 v0 h1 v0 h1 v0 h1 v0 h1 v33 h1 v33 h1 v33 h1 v33 h1 v33 h1 v33 h1 v33 h1 v33 h1 v33 h1 v33 h1 v33 h1 v33 h1 v33 h1 v33 h1 v33 h1 v33 h1 v33 h1 v33 h1 v33 h1 v33 h1 v33 h1 v33 h1 v33 h1 v33 h1 v33 h1 v33 h1 v33 h1 v33 h1 v-285 h1 v-285 h1 v-285 h1 v-285 h1 v-285 h1 v-285 h1 v-285 h1 v-285 h1 v-285 h1 v-285 h1 v-285 h1 v-285 h1 v-285 h1 v-285 h1 v-285 h1 v5116Z" class="wu-bars"/>
    <path d="M0,0 v-446719.21612144 h59 v446719.21612144 Z" class="wu-bars-hover" id="winter"/>
  </g>
  <g id="springGroup" transform="translate(0 265) scale(3.24658 0.00059)">
    <path d="M59,0 v-5401 h1 v-285 h1 v-285 h1 v-285 h1 v-285 h1 v-285 h1 v-285 h1 v-285 h1 v-285 h1 v-285 h1 v-285 h1 v-285 h1 v-285 h1 v-285 h1 v-285 h1 v-285 h1 v-654 h1 v-654 h1 v-654 h1 v-654 h1 v-654 h1 v-654 h1 v-654 h1 v-654 h1 v-654 h1 v-654 h1 v-654 h1 v-654 h1 v-654 h1 v-654 h1 v-654 h1 v-654 h1 v-654 h1 v-654 h1 v-654 h1 v-654 h1 v-654 h1 v-654 h1 v-654 h1 v-654 h1 v-654 h1 v-654 h1 v-654 h1 v-654 h1 v-654 h1 v-654 h1 v-4104 h1 v-4104 h1 v-4104 h1 v-4104 h1 v-4104 h1 v-4104 h1 v-4104 h1 v-4104 h1 v-4104 h1 v-4104 h1 v-4104 h1 v-4104 h1 v-4104 h1 v-4104 h1 v-4104 h1 v-4104 h1 v-4104 h1 v-4104 h1 v-4104 h1 v-4104 h1 v-4104 h1 v-4104 h1 v-4104 h1 v-4104 h1 v-4104 h1 v-4104 h1 v-4104 h1 v-4104 h1 v-4104 h1 v-4104 h1 v-4104 h1 v-2816 h1 v-2816 h1 v-2816 h1 v-2816 h1 v-2816 h1 v-2816 h1 v-2816 h1 v-2816 h1 v-2816 h1 v-2816 h1 v-2816 h1 v-2816 h1 v-2816 h1 v-2816 h1 v-2816 h1 v198764Z" class="wu-bars"/>
    <path d="M59,0 v-446719.21612144 h92 v446719.21612144 Z" class="wu-bars-hover" id="spring"/>
  </g>
  <g id="summerGroup" transform="translate(0 265) scale(3.24658 0.00059)">
    <path d="M151,0 v-201581 h1 v-2816 h1 v-2816 h1 v-2816 h1 v-2816 h1 v-2816 h1 v-2816 h1 v-2816 h1 v-2816 h1 v-2816 h1 v-2816 h1 v-2816 h1 v-2816 h1 v-2816 h1 v-2816 h1 v-6636 h1 v-6636 h1 v-6636 h1 v-6636 h1 v-6636 h1 v-6636 h1 v-6636 h1 v-6636 h1 v-6636 h1 v-6636 h1 v-6636 h1 v-6636 h1 v-6636 h1 v-6636 h1 v-6636 h1 v-6636 h1 v-6636 h1 v-6636 h1 v-6636 h1 v-6636 h1 v-6636 h1 v-6636 h1 v-6636 h1 v-6636 h1 v-6636 h1 v-6636 h1 v-6636 h1 v-6636 h1 v-6636 h1 v-6636 h1 v-6636 h1 v5814 h1 v5814 h1 v5814 h1 v5814 h1 v5814 h1 v5814 h1 v5814 h1 v5814 h1 v5814 h1 v5814 h1 v5814 h1 v5814 h1 v5814 h1 v5814 h1 v5814 h1 v5814 h1 v5814 h1 v5814 h1 v5814 h1 v5814 h1 v5814 h1 v5814 h1 v5814 h1 v5814 h1 v5814 h1 v5814 h1 v5814 h1 v5814 h1 v5814 h1 v5814 h1 v5814 h1 v7702 h1 v7702 h1 v7702 h1 v7702 h1 v7702 h1 v7702 h1 v7702 h1 v7702 h1 v7702 h1 v7702 h1 v7702 h1 v7702 h1 v7702 h1 v7702 h1 v7702 h1 v150960Z" class="wu-bars"/>
    <path d="M151,0 v-446719.21612144 h92 v446719.21612144 Z" class="wu-bars-hover" id="summer"/>
  </g>
  <g id="fallGroup" transform="translate(0 265) scale(3.24658 0.00059)">
    <path d="M243,0 v-143258 h1 v7702 h1 v7702 h1 v7702 h1 v7702 h1 v7702 h1 v7702 h1 v7702 h1 v7702 h1 v7702 h1 v7702 h1 v7702 h1 v7702 h1 v7702 h1 v7702 h1 v905 h1 v905 h1 v905 h1 v905 h1 v905 h1 v905 h1 v905 h1 v905 h1 v905 h1 v905 h1 v905 h1 v905 h1 v905 h1 v905 h1 v905 h1 v905 h1 v905 h1 v905 h1 v905 h1 v905 h1 v905 h1 v905 h1 v905 h1 v905 h1 v905 h1 v905 h1 v905 h1 v905 h1 v905 h1 v905 h1 v905 h1 v92 h1 v92 h1 v92 h1 v92 h1 v92 h1 v92 h1 v92 h1 v92 h1 v92 h1 v92 h1 v92 h1 v92 h1 v92 h1 v92 h1 v92 h1 v92 h1 v92 h1 v92 h1 v92 h1 v92 h1 v92 h1 v92 h1 v92 h1 v92 h1 v92 h1 v92 h1 v92 h1 v92 h1 v92 h1 v92 h1 v124 h1 v124 h1 v124 h1 v124 h1 v124 h1 v124 h1 v124 h1 v124 h1 v124 h1 v124 h1 v124 h1 v124 h1 v124 h1 v124 h1 v124 h1 v2730Z" class="wu-bars"/>
    <path d="M243,0 v-446719.21612144 h91 v446719.21612144 Z" class="wu-bars-hover" id="fall"/>
  </g>
  <g id="winterGroup" transform="translate(0 265) scale(3.24658 0.00059)">
    <path d="M334,0 v-2605 h1 v124 h1 v124 h1 v124 h1 v124 h1 v124 h1 v124 h1 v124 h1 v124 h1 v124 h1 v124 h1 v124 h1 v124 h1 v124 h1 v124 h1 v124 h1 v0 h1 v0 h1 v0 h1 v0 h1 v0 h1 v0 h1 v0 h1 v0 h1 v0 h1 v0 h1 v0 h1 v0 h1 v0 h1 v0 h1 v0 h1 v739Z" class="wu-bars"/>
    <path d="M334,0 v-446719.21612144 h31 v446719.21612144 Z" class="wu-bars-hover" id="winter"/>
  </g>
  <g id="yAxis" translate="translate(0 265)">
    <path class="wu-bars-axis" d="M0,0 v265"/>
    <text id="yAxisLabelLow" class="wu-bars-axis" text-anchor="end" x="-20" y="263">0</text>
    <text id="yAxisLabelHigh" class="wu-bars-axis" text-anchor="end" x="-20" y="10">447,000</text>
    <text id="yAxisTitle" class="wu-bars-axis" text-anchor="middle" transform="rotate(-90) translate(-132.5 -52)">
      <tspan x="0" dy="0">National daily water use</tspan>
      <tspan id="yUnits" x="0" dy="20">million gallons per day</tspan>
    </text>
  </g>
  <g id="xAxis" transform="translate(0 267.5)">
    <path class="wu-bars-axis" d="M0,0 h1185"/>
    <path class="wu-bars-axis" d="M191.547945205479,0 v10 M490.232876712329,0 v10 M788.917808219178,0 v10 M1084.35616438356,0 v10"/>
    <path class="wu-season-dividers" d="M191.547945205479,-267.5 v265 M490.232876712329,-267.5 v265 M788.917808219178,-267.5 v265 M1084.35616438356,-267.5 v265"/>
    <text class="wu-bars-text seasonLabel" text-anchor="middle" transform="translate(97.3972602739726 37)">Winter</text>
    <text class="wu-bars-text seasonLabel" text-anchor="middle" transform="translate(342.513698630137 37)">Spring</text>
    <text class="wu-bars-text seasonLabel" text-anchor="middle" transform="translate(641.198630136986 37)">Summer</text>
    <text class="wu-bars-text seasonLabel" text-anchor="middle" transform="translate(938.260273972603 37)">Fall</text>
    <text class="wu-bars-text seasonLabel" text-anchor="middle" transform="translate(1136.30136986301 37)">Winter</text>
    <text class="wu-bars-text monthLabel" text-anchor="middle" transform="translate(1133.05479452055 17)">Dec</text>
    <text class="wu-bars-text monthLabel" text-anchor="middle" transform="translate(1035.65753424658 17)">Nov</text>
    <text class="wu-bars-text monthLabel" text-anchor="middle" transform="translate(935.013698630137 17)">Oct</text>
    <text class="wu-bars-text monthLabel" text-anchor="middle" transform="translate(837.616438356164 17)">Sep</text>
    <text class="wu-bars-text monthLabel" text-anchor="middle" transform="translate(736.972602739726 17)">Aug</text>
    <text class="wu-bars-text monthLabel" text-anchor="middle" transform="translate(636.328767123288 17)">Jul</text>
    <text class="wu-bars-text monthLabel" text-anchor="middle" transform="translate(538.931506849315 17)">Jun</text>
    <text class="wu-bars-text monthLabel" text-anchor="middle" transform="translate(438.287671232877 17)">May</text>
    <text class="wu-bars-text monthLabel" text-anchor="middle" transform="translate(340.890410958904 17)">Apr</text>
    <text class="wu-bars-text monthLabel" text-anchor="middle" transform="translate(240.246575342466 17)">Mar</text>
    <text class="wu-bars-text monthLabel" text-anchor="middle" transform="translate(149.342465753425 17)">Feb</text>
    <text class="wu-bars-text monthLabel" text-anchor="middle" transform="translate(48.6986301369863 17)">Jan</text>
  </g>
</svg>
