<?xml version="1.0" encoding="UTF-8"?>
<svg xmlns="http://www.w3.org/2000/svg" xmlns:xlink="http://www.w3.org/1999/xlink" viewBox="0 0 1000 625" preserveAspectRatio="xMidYMid meet" id="svg-wu-bars-te" version="1.1">
  <g id="winterGroup" transform="translate(0 625) scale(2.73972602739726 1.31989158158852e-06)">
    <path d="M0,0 v-364416034 h1 v-2194071 h1 v-2194071 h1 v-2194071 h1 v-2194071 h1 v-2194071 h1 v-2194071 h1 v-2194071 h1 v-2194071 h1 v-2194071 h1 v-2194071 h1 v-2194071 h1 v-2194071 h1 v-2194071 h1 v-2194071 h1 v-476256 h1 v-476256 h1 v-476256 h1 v-476256 h1 v-476256 h1 v-476256 h1 v-476256 h1 v-476256 h1 v-476256 h1 v-476256 h1 v-476256 h1 v-476256 h1 v-476256 h1 v-476256 h1 v-476256 h1 v-476256 h1 v-476256 h1 v-476256 h1 v-476256 h1 v-476256 h1 v-476256 h1 v-476256 h1 v-476256 h1 v-476256 h1 v-476256 h1 v-476256 h1 v-476256 h1 v-476256 h1 v-476256 h1 v-476256 h1 v-476256 h1 v2432354 h1 v2432354 h1 v2432354 h1 v2432354 h1 v2432354 h1 v2432354 h1 v2432354 h1 v2432354 h1 v2432354 h1 v2432354 h1 v2432354 h1 v2432354 h1 v2432354 h1 v378276378Z" class="wu-bars"/>
    <path d="M0,0 v-473523741.433216 h59 v473523741.433216 Z" class="wu-bars-hover" id="winter"/>
  </g>
  <g id="springGroup" transform="translate(0 625) scale(2.73972602739726 1.31989158158852e-06)">
    <path d="M59,0 v-375844025 h1 v2432354 h1 v2432354 h1 v2432354 h1 v2432354 h1 v2432354 h1 v2432354 h1 v2432354 h1 v2432354 h1 v2432354 h1 v2432354 h1 v2432354 h1 v2432354 h1 v2432354 h1 v2432354 h1 v501378 h1 v501378 h1 v501378 h1 v501378 h1 v501378 h1 v501378 h1 v501378 h1 v501378 h1 v501378 h1 v501378 h1 v501378 h1 v501378 h1 v501378 h1 v501378 h1 v501378 h1 v501378 h1 v501378 h1 v501378 h1 v501378 h1 v501378 h1 v501378 h1 v501378 h1 v501378 h1 v501378 h1 v501378 h1 v501378 h1 v501378 h1 v501378 h1 v501378 h1 v501378 h1 v501378 h1 v-1304365 h1 v-1304365 h1 v-1304365 h1 v-1304365 h1 v-1304365 h1 v-1304365 h1 v-1304365 h1 v-1304365 h1 v-1304365 h1 v-1304365 h1 v-1304365 h1 v-1304365 h1 v-1304365 h1 v-1304365 h1 v-1304365 h1 v-1304365 h1 v-1304365 h1 v-1304365 h1 v-1304365 h1 v-1304365 h1 v-1304365 h1 v-1304365 h1 v-1304365 h1 v-1304365 h1 v-1304365 h1 v-1304365 h1 v-1304365 h1 v-1304365 h1 v-1304365 h1 v-1304365 h1 v-2371249 h1 v-2371249 h1 v-2371249 h1 v-2371249 h1 v-2371249 h1 v-2371249 h1 v-2371249 h1 v-2371249 h1 v-2371249 h1 v-2371249 h1 v-2371249 h1 v-2371249 h1 v-2371249 h1 v-2371249 h1 v-2371249 h1 v-2371249 h1 v403319269Z" class="wu-bars"/>
    <path d="M59,0 v-473523741.433216 h92 v473523741.433216 Z" class="wu-bars-hover" id="spring"/>
  </g>
  <g id="summerGroup" transform="translate(0 625) scale(2.73972602739726 1.31989158158852e-06)">
    <path d="M151,0 v-405690518 h1 v-2371249 h1 v-2371249 h1 v-2371249 h1 v-2371249 h1 v-2371249 h1 v-2371249 h1 v-2371249 h1 v-2371249 h1 v-2371249 h1 v-2371249 h1 v-2371249 h1 v-2371249 h1 v-2371249 h1 v-2371249 h1 v-1154525 h1 v-1154525 h1 v-1154525 h1 v-1154525 h1 v-1154525 h1 v-1154525 h1 v-1154525 h1 v-1154525 h1 v-1154525 h1 v-1154525 h1 v-1154525 h1 v-1154525 h1 v-1154525 h1 v-1154525 h1 v-1154525 h1 v-1154525 h1 v-1154525 h1 v-1154525 h1 v-1154525 h1 v-1154525 h1 v-1154525 h1 v-1154525 h1 v-1154525 h1 v-1154525 h1 v-1154525 h1 v-1154525 h1 v-1154525 h1 v-1154525 h1 v-1154525 h1 v-1154525 h1 v258333 h1 v258333 h1 v258333 h1 v258333 h1 v258333 h1 v258333 h1 v258333 h1 v258333 h1 v258333 h1 v258333 h1 v258333 h1 v258333 h1 v258333 h1 v258333 h1 v258333 h1 v258333 h1 v258333 h1 v258333 h1 v258333 h1 v258333 h1 v258333 h1 v258333 h1 v258333 h1 v258333 h1 v258333 h1 v258333 h1 v258333 h1 v258333 h1 v258333 h1 v258333 h1 v258333 h1 v1496777 h1 v1496777 h1 v1496777 h1 v1496777 h1 v1496777 h1 v1496777 h1 v1496777 h1 v1496777 h1 v1496777 h1 v1496777 h1 v1496777 h1 v1496777 h1 v1496777 h1 v1496777 h1 v1496777 h1 v1496777 h1 v441566982Z" class="wu-bars"/>
    <path d="M151,0 v-473523741.433216 h92 v473523741.433216 Z" class="wu-bars-hover" id="summer"/>
  </g>
  <g id="fallGroup" transform="translate(0 625) scale(2.73972602739726 1.31989158158852e-06)">
    <path d="M243,0 v-440070205 h1 v1496777 h1 v1496777 h1 v1496777 h1 v1496777 h1 v1496777 h1 v1496777 h1 v1496777 h1 v1496777 h1 v1496777 h1 v1496777 h1 v1496777 h1 v1496777 h1 v1496777 h1 v1496777 h1 v2722407 h1 v2722407 h1 v2722407 h1 v2722407 h1 v2722407 h1 v2722407 h1 v2722407 h1 v2722407 h1 v2722407 h1 v2722407 h1 v2722407 h1 v2722407 h1 v2722407 h1 v2722407 h1 v2722407 h1 v2722407 h1 v2722407 h1 v2722407 h1 v2722407 h1 v2722407 h1 v2722407 h1 v2722407 h1 v2722407 h1 v2722407 h1 v2722407 h1 v2722407 h1 v2722407 h1 v2722407 h1 v2722407 h1 v2722407 h1 v655219 h1 v655219 h1 v655219 h1 v655219 h1 v655219 h1 v655219 h1 v655219 h1 v655219 h1 v655219 h1 v655219 h1 v655219 h1 v655219 h1 v655219 h1 v655219 h1 v655219 h1 v655219 h1 v655219 h1 v655219 h1 v655219 h1 v655219 h1 v655219 h1 v655219 h1 v655219 h1 v655219 h1 v655219 h1 v655219 h1 v655219 h1 v655219 h1 v655219 h1 v655219 h1 v655219 h1 v-332850 h1 v-332850 h1 v-332850 h1 v-332850 h1 v-332850 h1 v-332850 h1 v-332850 h1 v-332850 h1 v-332850 h1 v-332850 h1 v-332850 h1 v-332850 h1 v-332850 h1 v-332850 h1 v-332850 h1 v322124068Z" class="wu-bars"/>
    <path d="M243,0 v-473523741.433216 h91 v473523741.433216 Z" class="wu-bars-hover" id="fall"/>
  </g>
  <g id="winterGroup" transform="translate(0 625) scale(2.73972602739726 1.31989158158852e-06)">
    <path d="M334,0 v-322456919 h1 v-332850 h1 v-332850 h1 v-332850 h1 v-332850 h1 v-332850 h1 v-332850 h1 v-332850 h1 v-332850 h1 v-332850 h1 v-332850 h1 v-332850 h1 v-332850 h1 v-332850 h1 v-332850 h1 v-2194071 h1 v-2194071 h1 v-2194071 h1 v-2194071 h1 v-2194071 h1 v-2194071 h1 v-2194071 h1 v-2194071 h1 v-2194071 h1 v-2194071 h1 v-2194071 h1 v-2194071 h1 v-2194071 h1 v-2194071 h1 v-2194071 h1 v-2194071 h1 v362221963Z" class="wu-bars"/>
    <path d="M334,0 v-473523741.433216 h31 v473523741.433216 Z" class="wu-bars-hover" id="winter"/>
  </g>
</svg>
