<?xml version="1.0" encoding="UTF-8"?>
<svg xmlns="http://www.w3.org/2000/svg" xmlns:xlink="http://www.w3.org/1999/xlink" viewBox="-120 -5 1183 265" preserveAspectRatio="xMidYMid meet" id="svg-wu-bars-ir" version="1.1">
  <g id="winterGroup" transform="translate(0 265) scale(3.24110 0.67639)">
    <path d="M0,0 v-1 h1 v0 h1 v0 h1 v0 h1 v0 h1 v0 h1 v0 h1 v0 h1 v0 h1 v0 h1 v0 h1 v0 h1 v0 h1 v0 h1 v0 h1 v0 h1 v0 h1 v0 h1 v0 h1 v0 h1 v0 h1 v0 h1 v0 h1 v0 h1 v0 h1 v0 h1 v0 h1 v0 h1 v0 h1 v0 h1 v0 h1 v0 h1 v0 h1 v0 h1 v0 h1 v0 h1 v0 h1 v0 h1 v0 h1 v0 h1 v0 h1 v0 h1 v0 h1 v0 h1 v-1 h1 v-1 h1 v-1 h1 v-1 h1 v-1 h1 v-1 h1 v-1 h1 v-1 h1 v-1 h1 v-1 h1 v-1 h1 v-1 h1 v-1 h1 v-1 h1 v-1 h1 v12Z" class="wu-bars"/>
    <path d="M0,0 v-391.786466857997 h59 v391.786466857997 Z" class="wu-bars-hover" id="winter"/>
  </g>
  <g id="springGroup" transform="translate(0 265) scale(3.24110 0.67639)">
    <path d="M59,0 v-12 h1 v-1 h1 v-1 h1 v-1 h1 v-1 h1 v-1 h1 v-1 h1 v-1 h1 v-1 h1 v-1 h1 v-1 h1 v-1 h1 v-1 h1 v-1 h1 v-1 h1 v-1 h1 v-1 h1 v-1 h1 v-1 h1 v-1 h1 v-1 h1 v-1 h1 v-1 h1 v-1 h1 v-1 h1 v-1 h1 v-1 h1 v-1 h1 v-1 h1 v-1 h1 v-1 h1 v-1 h1 v-1 h1 v-1 h1 v-1 h1 v-1 h1 v-1 h1 v-1 h1 v-1 h1 v-1 h1 v-1 h1 v-1 h1 v-1 h1 v-1 h1 v-1 h1 v-1 h1 v-5 h1 v-5 h1 v-5 h1 v-5 h1 v-5 h1 v-5 h1 v-5 h1 v-5 h1 v-5 h1 v-5 h1 v-5 h1 v-5 h1 v-5 h1 v-5 h1 v-5 h1 v-5 h1 v-5 h1 v-5 h1 v-5 h1 v-5 h1 v-5 h1 v-5 h1 v-5 h1 v-5 h1 v-5 h1 v-5 h1 v-5 h1 v-5 h1 v-5 h1 v-5 h1 v-5 h1 v-2 h1 v-2 h1 v-2 h1 v-2 h1 v-2 h1 v-2 h1 v-2 h1 v-2 h1 v-2 h1 v-2 h1 v-2 h1 v-2 h1 v-2 h1 v-2 h1 v-2 h1 v245Z" class="wu-bars"/>
    <path d="M59,0 v-391.786466857997 h92 v391.786466857997 Z" class="wu-bars-hover" id="spring"/>
  </g>
  <g id="summerGroup" transform="translate(0 265) scale(3.24110 0.67639)">
    <path d="M151,0 v-247 h1 v-2 h1 v-2 h1 v-2 h1 v-2 h1 v-2 h1 v-2 h1 v-2 h1 v-2 h1 v-2 h1 v-2 h1 v-2 h1 v-2 h1 v-2 h1 v-2 h1 v-4 h1 v-4 h1 v-4 h1 v-4 h1 v-4 h1 v-4 h1 v-4 h1 v-4 h1 v-4 h1 v-4 h1 v-4 h1 v-4 h1 v-4 h1 v-4 h1 v-4 h1 v-4 h1 v-4 h1 v-4 h1 v-4 h1 v-4 h1 v-4 h1 v-4 h1 v-4 h1 v-4 h1 v-4 h1 v-4 h1 v-4 h1 v-4 h1 v-4 h1 v-4 h1 v-4 h1 v3 h1 v3 h1 v3 h1 v3 h1 v3 h1 v3 h1 v3 h1 v3 h1 v3 h1 v3 h1 v3 h1 v3 h1 v3 h1 v3 h1 v3 h1 v3 h1 v3 h1 v3 h1 v3 h1 v3 h1 v3 h1 v3 h1 v3 h1 v3 h1 v3 h1 v3 h1 v3 h1 v3 h1 v3 h1 v3 h1 v3 h1 v7 h1 v7 h1 v7 h1 v7 h1 v7 h1 v7 h1 v7 h1 v7 h1 v7 h1 v7 h1 v7 h1 v7 h1 v7 h1 v7 h1 v7 h1 v209Z" class="wu-bars"/>
    <path d="M151,0 v-391.786466857997 h92 v391.786466857997 Z" class="wu-bars-hover" id="summer"/>
  </g>
  <g id="fallGroup" transform="translate(0 265) scale(3.24110 0.67639)">
    <path d="M243,0 v-202 h1 v7 h1 v7 h1 v7 h1 v7 h1 v7 h1 v7 h1 v7 h1 v7 h1 v7 h1 v7 h1 v7 h1 v7 h1 v7 h1 v7 h1 v3 h1 v3 h1 v3 h1 v3 h1 v3 h1 v3 h1 v3 h1 v3 h1 v3 h1 v3 h1 v3 h1 v3 h1 v3 h1 v3 h1 v3 h1 v3 h1 v3 h1 v3 h1 v3 h1 v3 h1 v3 h1 v3 h1 v3 h1 v3 h1 v3 h1 v3 h1 v3 h1 v3 h1 v3 h1 v3 h1 v3 h1 v0 h1 v0 h1 v0 h1 v0 h1 v0 h1 v0 h1 v0 h1 v0 h1 v0 h1 v0 h1 v0 h1 v0 h1 v0 h1 v0 h1 v0 h1 v0 h1 v0 h1 v0 h1 v0 h1 v0 h1 v0 h1 v0 h1 v0 h1 v0 h1 v0 h1 v0 h1 v0 h1 v0 h1 v0 h1 v0 h1 v0 h1 v0 h1 v0 h1 v0 h1 v0 h1 v0 h1 v0 h1 v0 h1 v0 h1 v0 h1 v0 h1 v0 h1 v0 h1 v0 h1 v0 h1 v1Z" class="wu-bars"/>
    <path d="M243,0 v-391.786466857997 h91 v391.786466857997 Z" class="wu-bars-hover" id="fall"/>
  </g>
  <g id="winterGroup" transform="translate(0 265) scale(3.24110 0.67639)">
    <path d="M334,0 v-1 h1 v0 h1 v0 h1 v0 h1 v0 h1 v0 h1 v0 h1 v0 h1 v0 h1 v0 h1 v0 h1 v0 h1 v0 h1 v0 h1 v0 h1 v0 h1 v0 h1 v0 h1 v0 h1 v0 h1 v0 h1 v0 h1 v0 h1 v0 h1 v0 h1 v0 h1 v0 h1 v0 h1 v0 h1 v0 h1 v0 h1 v0Z" class="wu-bars"/>
    <path d="M334,0 v-391.786466857997 h31 v391.786466857997 Z" class="wu-bars-hover" id="winter"/>
  </g>
  <g id="barchartAxis" translate="translate(0 265)">
    <path class="wu-bars-axis" d="M0,0 v265"/>
    <text id="yAxisLabelLow" class="wu-bars-axis" text-anchor="end" x="-20" y="263">0</text>
    <text id="yAxisLabelHigh" class="wu-bars-axis" text-anchor="end" x="-20" y="10">392,000</text>
    <text id="yAxisTitle" class="wu-bars-axis" text-anchor="middle" transform="rotate(-90) translate(-132.5 -20)">Daily water use, mgd</text>
  </g>
</svg>
