<?xml version="1.0" encoding="UTF-8"?>
<svg xmlns="http://www.w3.org/2000/svg" xmlns:xlink="http://www.w3.org/1999/xlink" viewBox="-120 -5 1183 265" preserveAspectRatio="xMidYMid meet" id="svg-wu-bars-ps" version="1.1">
  <g id="winterGroup" transform="translate(0 265) scale(3.24110 0.00247)">
    <path d="M0,0 v-81611 h1 v-39 h1 v-39 h1 v-39 h1 v-39 h1 v-39 h1 v-39 h1 v-39 h1 v-39 h1 v-39 h1 v-39 h1 v-39 h1 v-39 h1 v-39 h1 v-39 h1 v19 h1 v19 h1 v19 h1 v19 h1 v19 h1 v19 h1 v19 h1 v19 h1 v19 h1 v19 h1 v19 h1 v19 h1 v19 h1 v19 h1 v19 h1 v19 h1 v19 h1 v19 h1 v19 h1 v19 h1 v19 h1 v19 h1 v19 h1 v19 h1 v19 h1 v19 h1 v19 h1 v19 h1 v19 h1 v19 h1 v19 h1 v24 h1 v24 h1 v24 h1 v24 h1 v24 h1 v24 h1 v24 h1 v24 h1 v24 h1 v24 h1 v24 h1 v24 h1 v24 h1 v81254Z" class="wu-bars"/>
    <path d="M0,0 v-107205.698188701 h59 v107205.698188701 Z" class="wu-bars-hover" id="winter"/>
  </g>
  <g id="springGroup" transform="translate(0 265) scale(3.24110 0.00247)">
    <path d="M59,0 v-81230 h1 v24 h1 v24 h1 v24 h1 v24 h1 v24 h1 v24 h1 v24 h1 v24 h1 v24 h1 v24 h1 v24 h1 v24 h1 v24 h1 v24 h1 v-198 h1 v-198 h1 v-198 h1 v-198 h1 v-198 h1 v-198 h1 v-198 h1 v-198 h1 v-198 h1 v-198 h1 v-198 h1 v-198 h1 v-198 h1 v-198 h1 v-198 h1 v-198 h1 v-198 h1 v-198 h1 v-198 h1 v-198 h1 v-198 h1 v-198 h1 v-198 h1 v-198 h1 v-198 h1 v-198 h1 v-198 h1 v-198 h1 v-198 h1 v-198 h1 v-198 h1 v-221 h1 v-221 h1 v-221 h1 v-221 h1 v-221 h1 v-221 h1 v-221 h1 v-221 h1 v-221 h1 v-221 h1 v-221 h1 v-221 h1 v-221 h1 v-221 h1 v-221 h1 v-221 h1 v-221 h1 v-221 h1 v-221 h1 v-221 h1 v-221 h1 v-221 h1 v-221 h1 v-221 h1 v-221 h1 v-221 h1 v-221 h1 v-221 h1 v-221 h1 v-221 h1 v-314 h1 v-314 h1 v-314 h1 v-314 h1 v-314 h1 v-314 h1 v-314 h1 v-314 h1 v-314 h1 v-314 h1 v-314 h1 v-314 h1 v-314 h1 v-314 h1 v-314 h1 v-314 h1 v98688Z" class="wu-bars"/>
    <path d="M59,0 v-107205.698188701 h92 v107205.698188701 Z" class="wu-bars-hover" id="spring"/>
  </g>
  <g id="summerGroup" transform="translate(0 265) scale(3.24110 0.00247)">
    <path d="M151,0 v-99002 h1 v-314 h1 v-314 h1 v-314 h1 v-314 h1 v-314 h1 v-314 h1 v-314 h1 v-314 h1 v-314 h1 v-314 h1 v-314 h1 v-314 h1 v-314 h1 v-314 h1 v-109 h1 v-109 h1 v-109 h1 v-109 h1 v-109 h1 v-109 h1 v-109 h1 v-109 h1 v-109 h1 v-109 h1 v-109 h1 v-109 h1 v-109 h1 v-109 h1 v-109 h1 v-109 h1 v-109 h1 v-109 h1 v-109 h1 v-109 h1 v-109 h1 v-109 h1 v-109 h1 v-109 h1 v-109 h1 v-109 h1 v-109 h1 v-109 h1 v-109 h1 v-109 h1 v-18 h1 v-18 h1 v-18 h1 v-18 h1 v-18 h1 v-18 h1 v-18 h1 v-18 h1 v-18 h1 v-18 h1 v-18 h1 v-18 h1 v-18 h1 v-18 h1 v-18 h1 v-18 h1 v-18 h1 v-18 h1 v-18 h1 v-18 h1 v-18 h1 v-18 h1 v-18 h1 v-18 h1 v-18 h1 v-18 h1 v-18 h1 v-18 h1 v-18 h1 v-18 h1 v-18 h1 v254 h1 v254 h1 v254 h1 v254 h1 v254 h1 v254 h1 v254 h1 v254 h1 v254 h1 v254 h1 v254 h1 v254 h1 v254 h1 v254 h1 v254 h1 v254 h1 v103144Z" class="wu-bars"/>
    <path d="M151,0 v-107205.698188701 h92 v107205.698188701 Z" class="wu-bars-hover" id="summer"/>
  </g>
  <g id="fallGroup" transform="translate(0 265) scale(3.24110 0.00247)">
    <path d="M243,0 v-102890 h1 v254 h1 v254 h1 v254 h1 v254 h1 v254 h1 v254 h1 v254 h1 v254 h1 v254 h1 v254 h1 v254 h1 v254 h1 v254 h1 v254 h1 v290 h1 v290 h1 v290 h1 v290 h1 v290 h1 v290 h1 v290 h1 v290 h1 v290 h1 v290 h1 v290 h1 v290 h1 v290 h1 v290 h1 v290 h1 v290 h1 v290 h1 v290 h1 v290 h1 v290 h1 v290 h1 v290 h1 v290 h1 v290 h1 v290 h1 v290 h1 v290 h1 v290 h1 v290 h1 v290 h1 v233 h1 v233 h1 v233 h1 v233 h1 v233 h1 v233 h1 v233 h1 v233 h1 v233 h1 v233 h1 v233 h1 v233 h1 v233 h1 v233 h1 v233 h1 v233 h1 v233 h1 v233 h1 v233 h1 v233 h1 v233 h1 v233 h1 v233 h1 v233 h1 v233 h1 v233 h1 v233 h1 v233 h1 v233 h1 v233 h1 v233 h1 v82 h1 v82 h1 v82 h1 v82 h1 v82 h1 v82 h1 v82 h1 v82 h1 v82 h1 v82 h1 v82 h1 v82 h1 v82 h1 v82 h1 v82 h1 v82177Z" class="wu-bars"/>
    <path d="M243,0 v-107205.698188701 h91 v107205.698188701 Z" class="wu-bars-hover" id="fall"/>
  </g>
  <g id="winterGroup" transform="translate(0 265) scale(3.24110 0.00247)">
    <path d="M334,0 v-82095 h1 v82 h1 v82 h1 v82 h1 v82 h1 v82 h1 v82 h1 v82 h1 v82 h1 v82 h1 v82 h1 v82 h1 v82 h1 v82 h1 v82 h1 v-39 h1 v-39 h1 v-39 h1 v-39 h1 v-39 h1 v-39 h1 v-39 h1 v-39 h1 v-39 h1 v-39 h1 v-39 h1 v-39 h1 v-39 h1 v-39 h1 v-39 h1 v-39 h1 v81571Z" class="wu-bars"/>
    <path d="M334,0 v-107205.698188701 h31 v107205.698188701 Z" class="wu-bars-hover" id="winter"/>
  </g>
  <g id="barchartAxis" translate="translate(0 265)">
    <path class="wu-bars-axis" d="M0,0 v265"/>
    <text id="yAxisLabelLow" class="wu-bars-axis" text-anchor="end" x="-20" y="263">0</text>
    <text id="yAxisLabelHigh" class="wu-bars-axis" text-anchor="end" x="-20" y="10">1.072e+08</text>
    <text id="yAxisTitle" class="wu-bars-axis" text-anchor="middle" transform="rotate(-90) translate(-132.5 -20)">Daily water use, mgd</text>
  </g>
</svg>
