<?xml version="1.0" encoding="UTF-8"?>
<svg xmlns="http://www.w3.org/2000/svg" xmlns:xlink="http://www.w3.org/1999/xlink" viewBox="-135 -5 1323 310" preserveAspectRatio="xMidYMid meet" id="svg-wu-bars-ir" version="1.1">
  <g id="winterGroup" transform="translate(0 265) scale(3.24658 0.00068)">
    <path d="M0,0 v-1393 h1 v0 h1 v0 h1 v0 h1 v0 h1 v0 h1 v0 h1 v0 h1 v0 h1 v0 h1 v0 h1 v0 h1 v0 h1 v0 h1 v0 h1 v0 h1 v34 h1 v34 h1 v34 h1 v34 h1 v34 h1 v34 h1 v34 h1 v34 h1 v34 h1 v34 h1 v34 h1 v34 h1 v34 h1 v34 h1 v34 h1 v34 h1 v34 h1 v34 h1 v34 h1 v34 h1 v34 h1 v34 h1 v34 h1 v34 h1 v34 h1 v34 h1 v34 h1 v34 h1 v-737 h1 v-737 h1 v-737 h1 v-737 h1 v-737 h1 v-737 h1 v-737 h1 v-737 h1 v-737 h1 v-737 h1 v-737 h1 v-737 h1 v-737 h1 v-737 h1 v-737 h1 v11503Z" class="wu-bars"/>
    <path d="M0,0 v-391786.466857997 h59 v391786.466857997 Z" class="wu-bars-hover" id="winter"/>
  </g>
  <g id="springGroup" transform="translate(0 265) scale(3.24658 0.00068)">
    <path d="M59,0 v-12240 h1 v-737 h1 v-737 h1 v-737 h1 v-737 h1 v-737 h1 v-737 h1 v-737 h1 v-737 h1 v-737 h1 v-737 h1 v-737 h1 v-737 h1 v-737 h1 v-737 h1 v-737 h1 v-995 h1 v-995 h1 v-995 h1 v-995 h1 v-995 h1 v-995 h1 v-995 h1 v-995 h1 v-995 h1 v-995 h1 v-995 h1 v-995 h1 v-995 h1 v-995 h1 v-995 h1 v-995 h1 v-995 h1 v-995 h1 v-995 h1 v-995 h1 v-995 h1 v-995 h1 v-995 h1 v-995 h1 v-995 h1 v-995 h1 v-995 h1 v-995 h1 v-995 h1 v-995 h1 v-5141 h1 v-5141 h1 v-5141 h1 v-5141 h1 v-5141 h1 v-5141 h1 v-5141 h1 v-5141 h1 v-5141 h1 v-5141 h1 v-5141 h1 v-5141 h1 v-5141 h1 v-5141 h1 v-5141 h1 v-5141 h1 v-5141 h1 v-5141 h1 v-5141 h1 v-5141 h1 v-5141 h1 v-5141 h1 v-5141 h1 v-5141 h1 v-5141 h1 v-5141 h1 v-5141 h1 v-5141 h1 v-5141 h1 v-5141 h1 v-5141 h1 v-2159 h1 v-2159 h1 v-2159 h1 v-2159 h1 v-2159 h1 v-2159 h1 v-2159 h1 v-2159 h1 v-2159 h1 v-2159 h1 v-2159 h1 v-2159 h1 v-2159 h1 v-2159 h1 v-2159 h1 v244916Z" class="wu-bars"/>
    <path d="M59,0 v-391786.466857997 h92 v391786.466857997 Z" class="wu-bars-hover" id="spring"/>
  </g>
  <g id="summerGroup" transform="translate(0 265) scale(3.24658 0.00068)">
    <path d="M151,0 v-247076 h1 v-2159 h1 v-2159 h1 v-2159 h1 v-2159 h1 v-2159 h1 v-2159 h1 v-2159 h1 v-2159 h1 v-2159 h1 v-2159 h1 v-2159 h1 v-2159 h1 v-2159 h1 v-2159 h1 v-3693 h1 v-3693 h1 v-3693 h1 v-3693 h1 v-3693 h1 v-3693 h1 v-3693 h1 v-3693 h1 v-3693 h1 v-3693 h1 v-3693 h1 v-3693 h1 v-3693 h1 v-3693 h1 v-3693 h1 v-3693 h1 v-3693 h1 v-3693 h1 v-3693 h1 v-3693 h1 v-3693 h1 v-3693 h1 v-3693 h1 v-3693 h1 v-3693 h1 v-3693 h1 v-3693 h1 v-3693 h1 v-3693 h1 v-3693 h1 v-3693 h1 v2712 h1 v2712 h1 v2712 h1 v2712 h1 v2712 h1 v2712 h1 v2712 h1 v2712 h1 v2712 h1 v2712 h1 v2712 h1 v2712 h1 v2712 h1 v2712 h1 v2712 h1 v2712 h1 v2712 h1 v2712 h1 v2712 h1 v2712 h1 v2712 h1 v2712 h1 v2712 h1 v2712 h1 v2712 h1 v2712 h1 v2712 h1 v2712 h1 v2712 h1 v2712 h1 v2712 h1 v6600 h1 v6600 h1 v6600 h1 v6600 h1 v6600 h1 v6600 h1 v6600 h1 v6600 h1 v6600 h1 v6600 h1 v6600 h1 v6600 h1 v6600 h1 v6600 h1 v6600 h1 v208735Z" class="wu-bars"/>
    <path d="M151,0 v-391786.466857997 h92 v391786.466857997 Z" class="wu-bars-hover" id="summer"/>
  </g>
  <g id="fallGroup" transform="translate(0 265) scale(3.24658 0.00068)">
    <path d="M243,0 v-202135 h1 v6600 h1 v6600 h1 v6600 h1 v6600 h1 v6600 h1 v6600 h1 v6600 h1 v6600 h1 v6600 h1 v6600 h1 v6600 h1 v6600 h1 v6600 h1 v6600 h1 v3360 h1 v3360 h1 v3360 h1 v3360 h1 v3360 h1 v3360 h1 v3360 h1 v3360 h1 v3360 h1 v3360 h1 v3360 h1 v3360 h1 v3360 h1 v3360 h1 v3360 h1 v3360 h1 v3360 h1 v3360 h1 v3360 h1 v3360 h1 v3360 h1 v3360 h1 v3360 h1 v3360 h1 v3360 h1 v3360 h1 v3360 h1 v3360 h1 v3360 h1 v3360 h1 v3360 h1 v97 h1 v97 h1 v97 h1 v97 h1 v97 h1 v97 h1 v97 h1 v97 h1 v97 h1 v97 h1 v97 h1 v97 h1 v97 h1 v97 h1 v97 h1 v97 h1 v97 h1 v97 h1 v97 h1 v97 h1 v97 h1 v97 h1 v97 h1 v97 h1 v97 h1 v97 h1 v97 h1 v97 h1 v97 h1 v97 h1 v80 h1 v80 h1 v80 h1 v80 h1 v80 h1 v80 h1 v80 h1 v80 h1 v80 h1 v80 h1 v80 h1 v80 h1 v80 h1 v80 h1 v80 h1 v1471Z" class="wu-bars"/>
    <path d="M243,0 v-391786.466857997 h91 v391786.466857997 Z" class="wu-bars-hover" id="fall"/>
  </g>
  <g id="winterGroup" transform="translate(0 265) scale(3.24658 0.00068)">
    <path d="M334,0 v-1391 h1 v80 h1 v80 h1 v80 h1 v80 h1 v80 h1 v80 h1 v80 h1 v80 h1 v80 h1 v80 h1 v80 h1 v80 h1 v80 h1 v80 h1 v80 h1 v0 h1 v0 h1 v0 h1 v0 h1 v0 h1 v0 h1 v0 h1 v0 h1 v0 h1 v0 h1 v0 h1 v0 h1 v0 h1 v0 h1 v0 h1 v189Z" class="wu-bars"/>
    <path d="M334,0 v-391786.466857997 h31 v391786.466857997 Z" class="wu-bars-hover" id="winter"/>
  </g>
  <g id="yAxis" translate="translate(0 265)">
    <path class="wu-bars-axis" d="M0,0 v265"/>
    <text id="yAxisLabelLow" class="wu-bars-axis" text-anchor="end" x="-20" y="263">0</text>
    <text id="yAxisLabelHigh" class="wu-bars-axis" text-anchor="end" x="-20" y="10">392,000</text>
    <text id="yAxisTitle" class="wu-bars-axis" text-anchor="middle" transform="rotate(-90) translate(-132.5 -50)">
      <tspan x="0" dy="0">Daily water use</tspan>
      <tspan id="yUnits" x="0" dy="20">million gallons per day</tspan>
    </text>
  </g>
  <g id="xAxis" transform="translate(0 267.5)">
    <path class="wu-bars-axis" d="M0,0 h1185"/>
    <path class="wu-bars-axis" d="M191.547945205479,0 v10 M490.232876712329,0 v10 M788.917808219178,0 v10 M1084.35616438356,0 v10"/>
    <text class="wu-bars-text seasonLabel" text-anchor="middle" transform="translate(97.3972602739726 37.5)">Winter</text>
    <text class="wu-bars-text seasonLabel" text-anchor="middle" transform="translate(342.513698630137 37.5)">Spring</text>
    <text class="wu-bars-text seasonLabel" text-anchor="middle" transform="translate(641.198630136986 37.5)">Summer</text>
    <text class="wu-bars-text seasonLabel" text-anchor="middle" transform="translate(938.260273972603 37.5)">Fall</text>
    <text class="wu-bars-text seasonLabel" text-anchor="middle" transform="translate(1136.30136986301 37.5)">Winter</text>
    <text class="wu-bars-text monthLabel" text-anchor="middle" transform="translate(1133.05479452055 17)">Dec</text>
    <text class="wu-bars-text monthLabel" text-anchor="middle" transform="translate(1035.65753424658 17)">Nov</text>
    <text class="wu-bars-text monthLabel" text-anchor="middle" transform="translate(935.013698630137 17)">Oct</text>
    <text class="wu-bars-text monthLabel" text-anchor="middle" transform="translate(837.616438356164 17)">Sep</text>
    <text class="wu-bars-text monthLabel" text-anchor="middle" transform="translate(736.972602739726 17)">Aug</text>
    <text class="wu-bars-text monthLabel" text-anchor="middle" transform="translate(636.328767123288 17)">Jul</text>
    <text class="wu-bars-text monthLabel" text-anchor="middle" transform="translate(538.931506849315 17)">Jun</text>
    <text class="wu-bars-text monthLabel" text-anchor="middle" transform="translate(438.287671232877 17)">May</text>
    <text class="wu-bars-text monthLabel" text-anchor="middle" transform="translate(340.890410958904 17)">Apr</text>
    <text class="wu-bars-text monthLabel" text-anchor="middle" transform="translate(240.246575342466 17)">Mar</text>
    <text class="wu-bars-text monthLabel" text-anchor="middle" transform="translate(149.342465753425 17)">Feb</text>
    <text class="wu-bars-text monthLabel" text-anchor="middle" transform="translate(48.6986301369863 17)">Jan</text>
  </g>
</svg>
