<?xml version="1.0" encoding="UTF-8"?>
<svg xmlns="http://www.w3.org/2000/svg" xmlns:xlink="http://www.w3.org/1999/xlink" viewBox="-135 -5 1323 310" preserveAspectRatio="xMidYMid meet" id="svg-wu-bars-te" version="1.1">
  <g id="winterGroup" transform="translate(0 265) scale(3.24658 0.00212)">
    <path d="M0,0 v-96269 h1 v-580 h1 v-580 h1 v-580 h1 v-580 h1 v-580 h1 v-580 h1 v-580 h1 v-580 h1 v-580 h1 v-580 h1 v-580 h1 v-580 h1 v-580 h1 v-580 h1 v-126 h1 v-126 h1 v-126 h1 v-126 h1 v-126 h1 v-126 h1 v-126 h1 v-126 h1 v-126 h1 v-126 h1 v-126 h1 v-126 h1 v-126 h1 v-126 h1 v-126 h1 v-126 h1 v-126 h1 v-126 h1 v-126 h1 v-126 h1 v-126 h1 v-126 h1 v-126 h1 v-126 h1 v-126 h1 v-126 h1 v-126 h1 v-126 h1 v-126 h1 v-126 h1 v-126 h1 v643 h1 v643 h1 v643 h1 v643 h1 v643 h1 v643 h1 v643 h1 v643 h1 v643 h1 v643 h1 v643 h1 v643 h1 v643 h1 v99930Z" class="wu-bars"/>
    <path d="M0,0 v-125091.713821895 h59 v125091.713821895 Z" class="wu-bars-hover" id="winter"/>
  </g>
  <g id="springGroup" transform="translate(0 265) scale(3.24658 0.00212)">
    <path d="M59,0 v-99287 h1 v643 h1 v643 h1 v643 h1 v643 h1 v643 h1 v643 h1 v643 h1 v643 h1 v643 h1 v643 h1 v643 h1 v643 h1 v643 h1 v643 h1 v132 h1 v132 h1 v132 h1 v132 h1 v132 h1 v132 h1 v132 h1 v132 h1 v132 h1 v132 h1 v132 h1 v132 h1 v132 h1 v132 h1 v132 h1 v132 h1 v132 h1 v132 h1 v132 h1 v132 h1 v132 h1 v132 h1 v132 h1 v132 h1 v132 h1 v132 h1 v132 h1 v132 h1 v132 h1 v132 h1 v132 h1 v-345 h1 v-345 h1 v-345 h1 v-345 h1 v-345 h1 v-345 h1 v-345 h1 v-345 h1 v-345 h1 v-345 h1 v-345 h1 v-345 h1 v-345 h1 v-345 h1 v-345 h1 v-345 h1 v-345 h1 v-345 h1 v-345 h1 v-345 h1 v-345 h1 v-345 h1 v-345 h1 v-345 h1 v-345 h1 v-345 h1 v-345 h1 v-345 h1 v-345 h1 v-345 h1 v-626 h1 v-626 h1 v-626 h1 v-626 h1 v-626 h1 v-626 h1 v-626 h1 v-626 h1 v-626 h1 v-626 h1 v-626 h1 v-626 h1 v-626 h1 v-626 h1 v-626 h1 v-626 h1 v106546Z" class="wu-bars"/>
    <path d="M59,0 v-125091.713821895 h92 v125091.713821895 Z" class="wu-bars-hover" id="spring"/>
  </g>
  <g id="summerGroup" transform="translate(0 265) scale(3.24658 0.00212)">
    <path d="M151,0 v-107172 h1 v-626 h1 v-626 h1 v-626 h1 v-626 h1 v-626 h1 v-626 h1 v-626 h1 v-626 h1 v-626 h1 v-626 h1 v-626 h1 v-626 h1 v-626 h1 v-626 h1 v-305 h1 v-305 h1 v-305 h1 v-305 h1 v-305 h1 v-305 h1 v-305 h1 v-305 h1 v-305 h1 v-305 h1 v-305 h1 v-305 h1 v-305 h1 v-305 h1 v-305 h1 v-305 h1 v-305 h1 v-305 h1 v-305 h1 v-305 h1 v-305 h1 v-305 h1 v-305 h1 v-305 h1 v-305 h1 v-305 h1 v-305 h1 v-305 h1 v-305 h1 v-305 h1 v68 h1 v68 h1 v68 h1 v68 h1 v68 h1 v68 h1 v68 h1 v68 h1 v68 h1 v68 h1 v68 h1 v68 h1 v68 h1 v68 h1 v68 h1 v68 h1 v68 h1 v68 h1 v68 h1 v68 h1 v68 h1 v68 h1 v68 h1 v68 h1 v68 h1 v68 h1 v68 h1 v68 h1 v68 h1 v68 h1 v68 h1 v395 h1 v395 h1 v395 h1 v395 h1 v395 h1 v395 h1 v395 h1 v395 h1 v395 h1 v395 h1 v395 h1 v395 h1 v395 h1 v395 h1 v395 h1 v395 h1 v116650Z" class="wu-bars"/>
    <path d="M151,0 v-125091.713821895 h92 v125091.713821895 Z" class="wu-bars-hover" id="summer"/>
  </g>
  <g id="fallGroup" transform="translate(0 265) scale(3.24658 0.00212)">
    <path d="M243,0 v-116254 h1 v395 h1 v395 h1 v395 h1 v395 h1 v395 h1 v395 h1 v395 h1 v395 h1 v395 h1 v395 h1 v395 h1 v395 h1 v395 h1 v395 h1 v719 h1 v719 h1 v719 h1 v719 h1 v719 h1 v719 h1 v719 h1 v719 h1 v719 h1 v719 h1 v719 h1 v719 h1 v719 h1 v719 h1 v719 h1 v719 h1 v719 h1 v719 h1 v719 h1 v719 h1 v719 h1 v719 h1 v719 h1 v719 h1 v719 h1 v719 h1 v719 h1 v719 h1 v719 h1 v719 h1 v173 h1 v173 h1 v173 h1 v173 h1 v173 h1 v173 h1 v173 h1 v173 h1 v173 h1 v173 h1 v173 h1 v173 h1 v173 h1 v173 h1 v173 h1 v173 h1 v173 h1 v173 h1 v173 h1 v173 h1 v173 h1 v173 h1 v173 h1 v173 h1 v173 h1 v173 h1 v173 h1 v173 h1 v173 h1 v173 h1 v173 h1 v-88 h1 v-88 h1 v-88 h1 v-88 h1 v-88 h1 v-88 h1 v-88 h1 v-88 h1 v-88 h1 v-88 h1 v-88 h1 v-88 h1 v-88 h1 v-88 h1 v-88 h1 v85096Z" class="wu-bars"/>
    <path d="M243,0 v-125091.713821895 h91 v125091.713821895 Z" class="wu-bars-hover" id="fall"/>
  </g>
  <g id="winterGroup" transform="translate(0 265) scale(3.24658 0.00212)">
    <path d="M334,0 v-85184 h1 v-88 h1 v-88 h1 v-88 h1 v-88 h1 v-88 h1 v-88 h1 v-88 h1 v-88 h1 v-88 h1 v-88 h1 v-88 h1 v-88 h1 v-88 h1 v-88 h1 v-580 h1 v-580 h1 v-580 h1 v-580 h1 v-580 h1 v-580 h1 v-580 h1 v-580 h1 v-580 h1 v-580 h1 v-580 h1 v-580 h1 v-580 h1 v-580 h1 v-580 h1 v-580 h1 v95689Z" class="wu-bars"/>
    <path d="M334,0 v-125091.713821895 h31 v125091.713821895 Z" class="wu-bars-hover" id="winter"/>
  </g>
  <g id="yAxis" translate="translate(0 265)">
    <path class="wu-bars-axis" d="M0,0 v265"/>
    <text id="yAxisLabelLow" class="wu-bars-axis" text-anchor="end" x="-20" y="263">0</text>
    <text id="yAxisLabelHigh" class="wu-bars-axis" text-anchor="end" x="-20" y="10">125,000</text>
    <text id="yAxisTitle" class="wu-bars-axis" text-anchor="middle" transform="rotate(-90) translate(-132.5 -50)">
      <tspan x="0" dy="0">Daily water use</tspan>
      <tspan id="yUnits" x="0" dy="20">million gallons per day</tspan>
    </text>
  </g>
  <g id="xAxis" transform="translate(0 265)">
    <path class="wu-bars-axis" d="M0,0 h1185"/>
    <path class="wu-bars-axis" d="M191.547945205479,0 v10 M490.232876712329,0 v10 M788.917808219178,0 v10 M1084.35616438356,0 v10"/>
    <text class="wu-bars-text seasonLabel" text-anchor="middle" transform="translate(97.3972602739726 35)">Winter</text>
    <text class="wu-bars-text seasonLabel" text-anchor="middle" transform="translate(342.513698630137 35)">Spring</text>
    <text class="wu-bars-text seasonLabel" text-anchor="middle" transform="translate(641.198630136986 35)">Summer</text>
    <text class="wu-bars-text seasonLabel" text-anchor="middle" transform="translate(938.260273972603 35)">Fall</text>
    <text class="wu-bars-text seasonLabel" text-anchor="middle" transform="translate(1136.30136986301 35)">Winter</text>
    <text class="wu-bars-text monthLabel" text-anchor="middle" transform="translate(1133.05479452055 15)">Dec</text>
    <text class="wu-bars-text monthLabel" text-anchor="middle" transform="translate(1035.65753424658 15)">Nov</text>
    <text class="wu-bars-text monthLabel" text-anchor="middle" transform="translate(935.013698630137 15)">Oct</text>
    <text class="wu-bars-text monthLabel" text-anchor="middle" transform="translate(837.616438356164 15)">Sep</text>
    <text class="wu-bars-text monthLabel" text-anchor="middle" transform="translate(736.972602739726 15)">Aug</text>
    <text class="wu-bars-text monthLabel" text-anchor="middle" transform="translate(636.328767123288 15)">Jul</text>
    <text class="wu-bars-text monthLabel" text-anchor="middle" transform="translate(538.931506849315 15)">Jun</text>
    <text class="wu-bars-text monthLabel" text-anchor="middle" transform="translate(438.287671232877 15)">May</text>
    <text class="wu-bars-text monthLabel" text-anchor="middle" transform="translate(340.890410958904 15)">Apr</text>
    <text class="wu-bars-text monthLabel" text-anchor="middle" transform="translate(240.246575342466 15)">Mar</text>
    <text class="wu-bars-text monthLabel" text-anchor="middle" transform="translate(149.342465753425 15)">Feb</text>
    <text class="wu-bars-text monthLabel" text-anchor="middle" transform="translate(48.6986301369863 15)">Jan</text>
  </g>
</svg>
