<?xml version="1.0" encoding="UTF-8"?>
<svg xmlns="http://www.w3.org/2000/svg" xmlns:xlink="http://www.w3.org/1999/xlink" viewBox="0 0 1000 625" preserveAspectRatio="xMidYMid meet" id="svg-wu-bars-ir" version="1.1">
  <g id="winterGroup" transform="translate(0 625) scale(2.73972602739726 4.23486489634831e-07)">
    <path d="M0,0 v-5294084 h1 v0 h1 v0 h1 v0 h1 v0 h1 v0 h1 v0 h1 v0 h1 v0 h1 v0 h1 v0 h1 v0 h1 v0 h1 v0 h1 v0 h1 v0 h1 v127425 h1 v127425 h1 v127425 h1 v127425 h1 v127425 h1 v127425 h1 v127425 h1 v127425 h1 v127425 h1 v127425 h1 v127425 h1 v127425 h1 v127425 h1 v127425 h1 v127425 h1 v127425 h1 v127425 h1 v127425 h1 v127425 h1 v127425 h1 v127425 h1 v127425 h1 v127425 h1 v127425 h1 v127425 h1 v127425 h1 v127425 h1 v127425 h1 v-2782798 h1 v-2782798 h1 v-2782798 h1 v-2782798 h1 v-2782798 h1 v-2782798 h1 v-2782798 h1 v-2782798 h1 v-2782798 h1 v-2782798 h1 v-2782798 h1 v-2782798 h1 v-2782798 h1 v-2782798 h1 v-2782798 h1 v43468167Z" class="wu-bars"/>
    <path d="M0,0 v-1475844012.25865 h59 v1475844012.25865 Z" class="wu-bars-hover" id="winterHovers"/>
  </g>
  <g id="springGroup" transform="translate(0 625) scale(2.73972602739726 4.23486489634831e-07)">
    <path d="M59,0 v-46250965 h1 v-2782798 h1 v-2782798 h1 v-2782798 h1 v-2782798 h1 v-2782798 h1 v-2782798 h1 v-2782798 h1 v-2782798 h1 v-2782798 h1 v-2782798 h1 v-2782798 h1 v-2782798 h1 v-2782798 h1 v-2782798 h1 v-2782798 h1 v-3750822 h1 v-3750822 h1 v-3750822 h1 v-3750822 h1 v-3750822 h1 v-3750822 h1 v-3750822 h1 v-3750822 h1 v-3750822 h1 v-3750822 h1 v-3750822 h1 v-3750822 h1 v-3750822 h1 v-3750822 h1 v-3750822 h1 v-3750822 h1 v-3750822 h1 v-3750822 h1 v-3750822 h1 v-3750822 h1 v-3750822 h1 v-3750822 h1 v-3750822 h1 v-3750822 h1 v-3750822 h1 v-3750822 h1 v-3750822 h1 v-3750822 h1 v-3750822 h1 v-3750822 h1 v-19331425 h1 v-19331425 h1 v-19331425 h1 v-19331425 h1 v-19331425 h1 v-19331425 h1 v-19331425 h1 v-19331425 h1 v-19331425 h1 v-19331425 h1 v-19331425 h1 v-19331425 h1 v-19331425 h1 v-19331425 h1 v-19331425 h1 v-19331425 h1 v-19331425 h1 v-19331425 h1 v-19331425 h1 v-19331425 h1 v-19331425 h1 v-19331425 h1 v-19331425 h1 v-19331425 h1 v-19331425 h1 v-19331425 h1 v-19331425 h1 v-19331425 h1 v-19331425 h1 v-19331425 h1 v-19331425 h1 v-8131124 h1 v-8131124 h1 v-8131124 h1 v-8131124 h1 v-8131124 h1 v-8131124 h1 v-8131124 h1 v-8131124 h1 v-8131124 h1 v-8131124 h1 v-8131124 h1 v-8131124 h1 v-8131124 h1 v-8131124 h1 v-8131124 h1 v921758626Z" class="wu-bars"/>
    <path d="M59,0 v-1475844012.25865 h92 v1475844012.25865 Z" class="wu-bars-hover" id="springHovers"/>
  </g>
  <g id="summerGroup" transform="translate(0 625) scale(2.73972602739726 4.23486489634831e-07)">
    <path d="M151,0 v-929889750 h1 v-8131124 h1 v-8131124 h1 v-8131124 h1 v-8131124 h1 v-8131124 h1 v-8131124 h1 v-8131124 h1 v-8131124 h1 v-8131124 h1 v-8131124 h1 v-8131124 h1 v-8131124 h1 v-8131124 h1 v-8131124 h1 v-13939307 h1 v-13939307 h1 v-13939307 h1 v-13939307 h1 v-13939307 h1 v-13939307 h1 v-13939307 h1 v-13939307 h1 v-13939307 h1 v-13939307 h1 v-13939307 h1 v-13939307 h1 v-13939307 h1 v-13939307 h1 v-13939307 h1 v-13939307 h1 v-13939307 h1 v-13939307 h1 v-13939307 h1 v-13939307 h1 v-13939307 h1 v-13939307 h1 v-13939307 h1 v-13939307 h1 v-13939307 h1 v-13939307 h1 v-13939307 h1 v-13939307 h1 v-13939307 h1 v-13939307 h1 v-13939307 h1 v10166872 h1 v10166872 h1 v10166872 h1 v10166872 h1 v10166872 h1 v10166872 h1 v10166872 h1 v10166872 h1 v10166872 h1 v10166872 h1 v10166872 h1 v10166872 h1 v10166872 h1 v10166872 h1 v10166872 h1 v10166872 h1 v10166872 h1 v10166872 h1 v10166872 h1 v10166872 h1 v10166872 h1 v10166872 h1 v10166872 h1 v10166872 h1 v10166872 h1 v10166872 h1 v10166872 h1 v10166872 h1 v10166872 h1 v10166872 h1 v10166872 h1 v24870001 h1 v24870001 h1 v24870001 h1 v24870001 h1 v24870001 h1 v24870001 h1 v24870001 h1 v24870001 h1 v24870001 h1 v24870001 h1 v24870001 h1 v24870001 h1 v24870001 h1 v24870001 h1 v24870001 h1 v787620977Z" class="wu-bars"/>
    <path d="M151,0 v-1475844012.25865 h92 v1475844012.25865 Z" class="wu-bars-hover" id="summerHovers"/>
  </g>
  <g id="fallGroup" transform="translate(0 625) scale(2.73972602739726 4.23486489634831e-07)">
    <path d="M243,0 v-762750976 h1 v24870001 h1 v24870001 h1 v24870001 h1 v24870001 h1 v24870001 h1 v24870001 h1 v24870001 h1 v24870001 h1 v24870001 h1 v24870001 h1 v24870001 h1 v24870001 h1 v24870001 h1 v24870001 h1 v12699046 h1 v12699046 h1 v12699046 h1 v12699046 h1 v12699046 h1 v12699046 h1 v12699046 h1 v12699046 h1 v12699046 h1 v12699046 h1 v12699046 h1 v12699046 h1 v12699046 h1 v12699046 h1 v12699046 h1 v12699046 h1 v12699046 h1 v12699046 h1 v12699046 h1 v12699046 h1 v12699046 h1 v12699046 h1 v12699046 h1 v12699046 h1 v12699046 h1 v12699046 h1 v12699046 h1 v12699046 h1 v12699046 h1 v12699046 h1 v12699046 h1 v359544 h1 v359544 h1 v359544 h1 v359544 h1 v359544 h1 v359544 h1 v359544 h1 v359544 h1 v359544 h1 v359544 h1 v359544 h1 v359544 h1 v359544 h1 v359544 h1 v359544 h1 v359544 h1 v359544 h1 v359544 h1 v359544 h1 v359544 h1 v359544 h1 v359544 h1 v359544 h1 v359544 h1 v359544 h1 v359544 h1 v359544 h1 v359544 h1 v359544 h1 v359544 h1 v303135 h1 v303135 h1 v303135 h1 v303135 h1 v303135 h1 v303135 h1 v303135 h1 v303135 h1 v303135 h1 v303135 h1 v303135 h1 v303135 h1 v303135 h1 v303135 h1 v303135 h1 v5567185Z" class="wu-bars"/>
    <path d="M243,0 v-1475844012.25865 h91 v1475844012.25865 Z" class="wu-bars-hover" id="fallHovers"/>
  </g>
  <g id="winterGroup" transform="translate(0 625) scale(2.73972602739726 4.23486489634831e-07)">
    <path d="M334,0 v-5264050 h1 v303135 h1 v303135 h1 v303135 h1 v303135 h1 v303135 h1 v303135 h1 v303135 h1 v303135 h1 v303135 h1 v303135 h1 v303135 h1 v303135 h1 v303135 h1 v303135 h1 v303135 h1 v0 h1 v0 h1 v0 h1 v0 h1 v0 h1 v0 h1 v0 h1 v0 h1 v0 h1 v0 h1 v0 h1 v0 h1 v0 h1 v0 h1 v0 h1 v717026Z" class="wu-bars"/>
    <path d="M334,0 v-1475844012.25865 h31 v1475844012.25865 Z" class="wu-bars-hover" id="winterHovers"/>
  </g>
</svg>
