<?xml version="1.0" encoding="UTF-8"?>
<svg xmlns="http://www.w3.org/2000/svg" xmlns:xlink="http://www.w3.org/1999/xlink" viewBox="0 0 1000 625" preserveAspectRatio="xMidYMid meet" id="svg-wu-bars-ir" version="1.1">
  <g id="winterGroup" transform="translate(0 625) scale(2.73973 0.00042)">
    <path d="M0,0 v-5294 h1 v0 h1 v0 h1 v0 h1 v0 h1 v0 h1 v0 h1 v0 h1 v0 h1 v0 h1 v0 h1 v0 h1 v0 h1 v0 h1 v0 h1 v0 h1 v127 h1 v127 h1 v127 h1 v127 h1 v127 h1 v127 h1 v127 h1 v127 h1 v127 h1 v127 h1 v127 h1 v127 h1 v127 h1 v127 h1 v127 h1 v127 h1 v127 h1 v127 h1 v127 h1 v127 h1 v127 h1 v127 h1 v127 h1 v127 h1 v127 h1 v127 h1 v127 h1 v127 h1 v-2783 h1 v-2783 h1 v-2783 h1 v-2783 h1 v-2783 h1 v-2783 h1 v-2783 h1 v-2783 h1 v-2783 h1 v-2783 h1 v-2783 h1 v-2783 h1 v-2783 h1 v-2783 h1 v-2783 h1 v43468Z" class="wu-bars"/>
    <path d="M0,0 v-1475844.01225865 h59 v1475844.01225865 Z" class="wu-bars-hover" id="winter"/>
  </g>
  <g id="springGroup" transform="translate(0 625) scale(2.73973 0.00042)">
    <path d="M59,0 v-46251 h1 v-2783 h1 v-2783 h1 v-2783 h1 v-2783 h1 v-2783 h1 v-2783 h1 v-2783 h1 v-2783 h1 v-2783 h1 v-2783 h1 v-2783 h1 v-2783 h1 v-2783 h1 v-2783 h1 v-2783 h1 v-3751 h1 v-3751 h1 v-3751 h1 v-3751 h1 v-3751 h1 v-3751 h1 v-3751 h1 v-3751 h1 v-3751 h1 v-3751 h1 v-3751 h1 v-3751 h1 v-3751 h1 v-3751 h1 v-3751 h1 v-3751 h1 v-3751 h1 v-3751 h1 v-3751 h1 v-3751 h1 v-3751 h1 v-3751 h1 v-3751 h1 v-3751 h1 v-3751 h1 v-3751 h1 v-3751 h1 v-3751 h1 v-3751 h1 v-3751 h1 v-19331 h1 v-19331 h1 v-19331 h1 v-19331 h1 v-19331 h1 v-19331 h1 v-19331 h1 v-19331 h1 v-19331 h1 v-19331 h1 v-19331 h1 v-19331 h1 v-19331 h1 v-19331 h1 v-19331 h1 v-19331 h1 v-19331 h1 v-19331 h1 v-19331 h1 v-19331 h1 v-19331 h1 v-19331 h1 v-19331 h1 v-19331 h1 v-19331 h1 v-19331 h1 v-19331 h1 v-19331 h1 v-19331 h1 v-19331 h1 v-19331 h1 v-8131 h1 v-8131 h1 v-8131 h1 v-8131 h1 v-8131 h1 v-8131 h1 v-8131 h1 v-8131 h1 v-8131 h1 v-8131 h1 v-8131 h1 v-8131 h1 v-8131 h1 v-8131 h1 v-8131 h1 v921759Z" class="wu-bars"/>
    <path d="M59,0 v-1475844.01225865 h92 v1475844.01225865 Z" class="wu-bars-hover" id="spring"/>
  </g>
  <g id="summerGroup" transform="translate(0 625) scale(2.73973 0.00042)">
    <path d="M151,0 v-929890 h1 v-8131 h1 v-8131 h1 v-8131 h1 v-8131 h1 v-8131 h1 v-8131 h1 v-8131 h1 v-8131 h1 v-8131 h1 v-8131 h1 v-8131 h1 v-8131 h1 v-8131 h1 v-8131 h1 v-13939 h1 v-13939 h1 v-13939 h1 v-13939 h1 v-13939 h1 v-13939 h1 v-13939 h1 v-13939 h1 v-13939 h1 v-13939 h1 v-13939 h1 v-13939 h1 v-13939 h1 v-13939 h1 v-13939 h1 v-13939 h1 v-13939 h1 v-13939 h1 v-13939 h1 v-13939 h1 v-13939 h1 v-13939 h1 v-13939 h1 v-13939 h1 v-13939 h1 v-13939 h1 v-13939 h1 v-13939 h1 v-13939 h1 v-13939 h1 v-13939 h1 v10167 h1 v10167 h1 v10167 h1 v10167 h1 v10167 h1 v10167 h1 v10167 h1 v10167 h1 v10167 h1 v10167 h1 v10167 h1 v10167 h1 v10167 h1 v10167 h1 v10167 h1 v10167 h1 v10167 h1 v10167 h1 v10167 h1 v10167 h1 v10167 h1 v10167 h1 v10167 h1 v10167 h1 v10167 h1 v10167 h1 v10167 h1 v10167 h1 v10167 h1 v10167 h1 v10167 h1 v24870 h1 v24870 h1 v24870 h1 v24870 h1 v24870 h1 v24870 h1 v24870 h1 v24870 h1 v24870 h1 v24870 h1 v24870 h1 v24870 h1 v24870 h1 v24870 h1 v24870 h1 v787621Z" class="wu-bars"/>
    <path d="M151,0 v-1475844.01225865 h92 v1475844.01225865 Z" class="wu-bars-hover" id="summer"/>
  </g>
  <g id="fallGroup" transform="translate(0 625) scale(2.73973 0.00042)">
    <path d="M243,0 v-762751 h1 v24870 h1 v24870 h1 v24870 h1 v24870 h1 v24870 h1 v24870 h1 v24870 h1 v24870 h1 v24870 h1 v24870 h1 v24870 h1 v24870 h1 v24870 h1 v24870 h1 v12699 h1 v12699 h1 v12699 h1 v12699 h1 v12699 h1 v12699 h1 v12699 h1 v12699 h1 v12699 h1 v12699 h1 v12699 h1 v12699 h1 v12699 h1 v12699 h1 v12699 h1 v12699 h1 v12699 h1 v12699 h1 v12699 h1 v12699 h1 v12699 h1 v12699 h1 v12699 h1 v12699 h1 v12699 h1 v12699 h1 v12699 h1 v12699 h1 v12699 h1 v12699 h1 v12699 h1 v360 h1 v360 h1 v360 h1 v360 h1 v360 h1 v360 h1 v360 h1 v360 h1 v360 h1 v360 h1 v360 h1 v360 h1 v360 h1 v360 h1 v360 h1 v360 h1 v360 h1 v360 h1 v360 h1 v360 h1 v360 h1 v360 h1 v360 h1 v360 h1 v360 h1 v360 h1 v360 h1 v360 h1 v360 h1 v360 h1 v303 h1 v303 h1 v303 h1 v303 h1 v303 h1 v303 h1 v303 h1 v303 h1 v303 h1 v303 h1 v303 h1 v303 h1 v303 h1 v303 h1 v303 h1 v5567Z" class="wu-bars"/>
    <path d="M243,0 v-1475844.01225865 h91 v1475844.01225865 Z" class="wu-bars-hover" id="fall"/>
  </g>
  <g id="winterGroup" transform="translate(0 625) scale(2.73973 0.00042)">
    <path d="M334,0 v-5264 h1 v303 h1 v303 h1 v303 h1 v303 h1 v303 h1 v303 h1 v303 h1 v303 h1 v303 h1 v303 h1 v303 h1 v303 h1 v303 h1 v303 h1 v303 h1 v0 h1 v0 h1 v0 h1 v0 h1 v0 h1 v0 h1 v0 h1 v0 h1 v0 h1 v0 h1 v0 h1 v0 h1 v0 h1 v0 h1 v0 h1 v717Z" class="wu-bars"/>
    <path d="M334,0 v-1475844.01225865 h31 v1475844.01225865 Z" class="wu-bars-hover" id="winter"/>
  </g>
</svg>
