<?xml version="1.0" encoding="UTF-8"?>
<svg xmlns="http://www.w3.org/2000/svg" xmlns:xlink="http://www.w3.org/1999/xlink" viewBox="-135 -5 1323 310" preserveAspectRatio="xMidYMid meet" id="svg-wu-bars-ps" version="1.1">
  <g id="winterGroup" transform="translate(0 265) scale(3.24658 0.00605)">
    <path d="M0,0 v-33359 h1 v-16 h1 v-16 h1 v-16 h1 v-16 h1 v-16 h1 v-16 h1 v-16 h1 v-16 h1 v-16 h1 v-16 h1 v-16 h1 v-16 h1 v-16 h1 v-16 h1 v8 h1 v8 h1 v8 h1 v8 h1 v8 h1 v8 h1 v8 h1 v8 h1 v8 h1 v8 h1 v8 h1 v8 h1 v8 h1 v8 h1 v8 h1 v8 h1 v8 h1 v8 h1 v8 h1 v8 h1 v8 h1 v8 h1 v8 h1 v8 h1 v8 h1 v8 h1 v8 h1 v8 h1 v8 h1 v8 h1 v8 h1 v10 h1 v10 h1 v10 h1 v10 h1 v10 h1 v10 h1 v10 h1 v10 h1 v10 h1 v10 h1 v10 h1 v10 h1 v10 h1 v33213Z" class="wu-bars"/>
    <path d="M0,0 v-43821.7092832515 h59 v43821.7092832515 Z" class="wu-bars-hover" id="winter"/>
  </g>
  <g id="springGroup" transform="translate(0 265) scale(3.24658 0.00605)">
    <path d="M59,0 v-33204 h1 v10 h1 v10 h1 v10 h1 v10 h1 v10 h1 v10 h1 v10 h1 v10 h1 v10 h1 v10 h1 v10 h1 v10 h1 v10 h1 v10 h1 v-81 h1 v-81 h1 v-81 h1 v-81 h1 v-81 h1 v-81 h1 v-81 h1 v-81 h1 v-81 h1 v-81 h1 v-81 h1 v-81 h1 v-81 h1 v-81 h1 v-81 h1 v-81 h1 v-81 h1 v-81 h1 v-81 h1 v-81 h1 v-81 h1 v-81 h1 v-81 h1 v-81 h1 v-81 h1 v-81 h1 v-81 h1 v-81 h1 v-81 h1 v-81 h1 v-81 h1 v-90 h1 v-90 h1 v-90 h1 v-90 h1 v-90 h1 v-90 h1 v-90 h1 v-90 h1 v-90 h1 v-90 h1 v-90 h1 v-90 h1 v-90 h1 v-90 h1 v-90 h1 v-90 h1 v-90 h1 v-90 h1 v-90 h1 v-90 h1 v-90 h1 v-90 h1 v-90 h1 v-90 h1 v-90 h1 v-90 h1 v-90 h1 v-90 h1 v-90 h1 v-90 h1 v-128 h1 v-128 h1 v-128 h1 v-128 h1 v-128 h1 v-128 h1 v-128 h1 v-128 h1 v-128 h1 v-128 h1 v-128 h1 v-128 h1 v-128 h1 v-128 h1 v-128 h1 v-128 h1 v40340Z" class="wu-bars"/>
    <path d="M59,0 v-43821.7092832515 h92 v43821.7092832515 Z" class="wu-bars-hover" id="spring"/>
  </g>
  <g id="summerGroup" transform="translate(0 265) scale(3.24658 0.00605)">
    <path d="M151,0 v-40468 h1 v-128 h1 v-128 h1 v-128 h1 v-128 h1 v-128 h1 v-128 h1 v-128 h1 v-128 h1 v-128 h1 v-128 h1 v-128 h1 v-128 h1 v-128 h1 v-128 h1 v-44 h1 v-44 h1 v-44 h1 v-44 h1 v-44 h1 v-44 h1 v-44 h1 v-44 h1 v-44 h1 v-44 h1 v-44 h1 v-44 h1 v-44 h1 v-44 h1 v-44 h1 v-44 h1 v-44 h1 v-44 h1 v-44 h1 v-44 h1 v-44 h1 v-44 h1 v-44 h1 v-44 h1 v-44 h1 v-44 h1 v-44 h1 v-44 h1 v-44 h1 v-44 h1 v-7 h1 v-7 h1 v-7 h1 v-7 h1 v-7 h1 v-7 h1 v-7 h1 v-7 h1 v-7 h1 v-7 h1 v-7 h1 v-7 h1 v-7 h1 v-7 h1 v-7 h1 v-7 h1 v-7 h1 v-7 h1 v-7 h1 v-7 h1 v-7 h1 v-7 h1 v-7 h1 v-7 h1 v-7 h1 v-7 h1 v-7 h1 v-7 h1 v-7 h1 v-7 h1 v-7 h1 v104 h1 v104 h1 v104 h1 v104 h1 v104 h1 v104 h1 v104 h1 v104 h1 v104 h1 v104 h1 v104 h1 v104 h1 v104 h1 v104 h1 v104 h1 v104 h1 v42161Z" class="wu-bars"/>
    <path d="M151,0 v-43821.7092832515 h92 v43821.7092832515 Z" class="wu-bars-hover" id="summer"/>
  </g>
  <g id="fallGroup" transform="translate(0 265) scale(3.24658 0.00605)">
    <path d="M243,0 v-42057 h1 v104 h1 v104 h1 v104 h1 v104 h1 v104 h1 v104 h1 v104 h1 v104 h1 v104 h1 v104 h1 v104 h1 v104 h1 v104 h1 v104 h1 v118 h1 v118 h1 v118 h1 v118 h1 v118 h1 v118 h1 v118 h1 v118 h1 v118 h1 v118 h1 v118 h1 v118 h1 v118 h1 v118 h1 v118 h1 v118 h1 v118 h1 v118 h1 v118 h1 v118 h1 v118 h1 v118 h1 v118 h1 v118 h1 v118 h1 v118 h1 v118 h1 v118 h1 v118 h1 v118 h1 v95 h1 v95 h1 v95 h1 v95 h1 v95 h1 v95 h1 v95 h1 v95 h1 v95 h1 v95 h1 v95 h1 v95 h1 v95 h1 v95 h1 v95 h1 v95 h1 v95 h1 v95 h1 v95 h1 v95 h1 v95 h1 v95 h1 v95 h1 v95 h1 v95 h1 v95 h1 v95 h1 v95 h1 v95 h1 v95 h1 v95 h1 v34 h1 v34 h1 v34 h1 v34 h1 v34 h1 v34 h1 v34 h1 v34 h1 v34 h1 v34 h1 v34 h1 v34 h1 v34 h1 v34 h1 v34 h1 v33591Z" class="wu-bars"/>
    <path d="M243,0 v-43821.7092832515 h91 v43821.7092832515 Z" class="wu-bars-hover" id="fall"/>
  </g>
  <g id="winterGroup" transform="translate(0 265) scale(3.24658 0.00605)">
    <path d="M334,0 v-33557 h1 v34 h1 v34 h1 v34 h1 v34 h1 v34 h1 v34 h1 v34 h1 v34 h1 v34 h1 v34 h1 v34 h1 v34 h1 v34 h1 v34 h1 v-16 h1 v-16 h1 v-16 h1 v-16 h1 v-16 h1 v-16 h1 v-16 h1 v-16 h1 v-16 h1 v-16 h1 v-16 h1 v-16 h1 v-16 h1 v-16 h1 v-16 h1 v-16 h1 v33343Z" class="wu-bars"/>
    <path d="M334,0 v-43821.7092832515 h31 v43821.7092832515 Z" class="wu-bars-hover" id="winter"/>
  </g>
  <g id="yAxis" translate="translate(0 265)">
    <path class="wu-bars-axis" d="M0,0 v265"/>
    <text id="yAxisLabelLow" class="wu-bars-axis" text-anchor="end" x="-20" y="263">0</text>
    <text id="yAxisLabelHigh" class="wu-bars-axis" text-anchor="end" x="-20" y="10">43,800</text>
    <text id="yAxisTitle" class="wu-bars-axis" text-anchor="middle" transform="rotate(-90) translate(-132.5 -50)">
      <tspan x="0" dy="0">Daily water use</tspan>
      <tspan id="yUnits" x="0" dy="20">million gallons per day</tspan>
    </text>
  </g>
  <g id="xAxis" transform="translate(0 267.5)">
    <path class="wu-bars-axis" d="M0,0 h1185"/>
    <path class="wu-bars-axis" d="M191.547945205479,0 v10 M490.232876712329,0 v10 M788.917808219178,0 v10 M1084.35616438356,0 v10"/>
    <text class="wu-bars-text seasonLabel" text-anchor="middle" transform="translate(97.3972602739726 37)">Winter</text>
    <text class="wu-bars-text seasonLabel" text-anchor="middle" transform="translate(342.513698630137 37)">Spring</text>
    <text class="wu-bars-text seasonLabel" text-anchor="middle" transform="translate(641.198630136986 37)">Summer</text>
    <text class="wu-bars-text seasonLabel" text-anchor="middle" transform="translate(938.260273972603 37)">Fall</text>
    <text class="wu-bars-text seasonLabel" text-anchor="middle" transform="translate(1136.30136986301 37)">Winter</text>
    <text class="wu-bars-text monthLabel" text-anchor="middle" transform="translate(1133.05479452055 17)">Dec</text>
    <text class="wu-bars-text monthLabel" text-anchor="middle" transform="translate(1035.65753424658 17)">Nov</text>
    <text class="wu-bars-text monthLabel" text-anchor="middle" transform="translate(935.013698630137 17)">Oct</text>
    <text class="wu-bars-text monthLabel" text-anchor="middle" transform="translate(837.616438356164 17)">Sep</text>
    <text class="wu-bars-text monthLabel" text-anchor="middle" transform="translate(736.972602739726 17)">Aug</text>
    <text class="wu-bars-text monthLabel" text-anchor="middle" transform="translate(636.328767123288 17)">Jul</text>
    <text class="wu-bars-text monthLabel" text-anchor="middle" transform="translate(538.931506849315 17)">Jun</text>
    <text class="wu-bars-text monthLabel" text-anchor="middle" transform="translate(438.287671232877 17)">May</text>
    <text class="wu-bars-text monthLabel" text-anchor="middle" transform="translate(340.890410958904 17)">Apr</text>
    <text class="wu-bars-text monthLabel" text-anchor="middle" transform="translate(240.246575342466 17)">Mar</text>
    <text class="wu-bars-text monthLabel" text-anchor="middle" transform="translate(149.342465753425 17)">Feb</text>
    <text class="wu-bars-text monthLabel" text-anchor="middle" transform="translate(48.6986301369863 17)">Jan</text>
  </g>
</svg>
