<?xml version="1.0" encoding="UTF-8"?>
<svg xmlns="http://www.w3.org/2000/svg" xmlns:xlink="http://www.w3.org/1999/xlink" viewBox="-120 -5 1183 265" preserveAspectRatio="xMidYMid meet" id="svg-wu-bars-ir" version="1.1">
  <g id="winterGroup" transform="translate(0 265) scale(3.24110 0.00018)">
    <path d="M0,0 v-5274 h1 v0 h1 v0 h1 v0 h1 v0 h1 v0 h1 v0 h1 v0 h1 v0 h1 v0 h1 v0 h1 v0 h1 v0 h1 v0 h1 v0 h1 v0 h1 v127 h1 v127 h1 v127 h1 v127 h1 v127 h1 v127 h1 v127 h1 v127 h1 v127 h1 v127 h1 v127 h1 v127 h1 v127 h1 v127 h1 v127 h1 v127 h1 v127 h1 v127 h1 v127 h1 v127 h1 v127 h1 v127 h1 v127 h1 v127 h1 v127 h1 v127 h1 v127 h1 v127 h1 v-2788 h1 v-2788 h1 v-2788 h1 v-2788 h1 v-2788 h1 v-2788 h1 v-2788 h1 v-2788 h1 v-2788 h1 v-2788 h1 v-2788 h1 v-2788 h1 v-2788 h1 v-2788 h1 v-2788 h1 v43543Z" class="wu-bars"/>
    <path d="M0,0 v-1483073.40239691 h59 v1483073.40239691 Z" class="wu-bars-hover" id="winter"/>
  </g>
  <g id="springGroup" transform="translate(0 265) scale(3.24110 0.00018)">
    <path d="M59,0 v-46332 h1 v-2788 h1 v-2788 h1 v-2788 h1 v-2788 h1 v-2788 h1 v-2788 h1 v-2788 h1 v-2788 h1 v-2788 h1 v-2788 h1 v-2788 h1 v-2788 h1 v-2788 h1 v-2788 h1 v-2788 h1 v-3767 h1 v-3767 h1 v-3767 h1 v-3767 h1 v-3767 h1 v-3767 h1 v-3767 h1 v-3767 h1 v-3767 h1 v-3767 h1 v-3767 h1 v-3767 h1 v-3767 h1 v-3767 h1 v-3767 h1 v-3767 h1 v-3767 h1 v-3767 h1 v-3767 h1 v-3767 h1 v-3767 h1 v-3767 h1 v-3767 h1 v-3767 h1 v-3767 h1 v-3767 h1 v-3767 h1 v-3767 h1 v-3767 h1 v-3767 h1 v-19462 h1 v-19462 h1 v-19462 h1 v-19462 h1 v-19462 h1 v-19462 h1 v-19462 h1 v-19462 h1 v-19462 h1 v-19462 h1 v-19462 h1 v-19462 h1 v-19462 h1 v-19462 h1 v-19462 h1 v-19462 h1 v-19462 h1 v-19462 h1 v-19462 h1 v-19462 h1 v-19462 h1 v-19462 h1 v-19462 h1 v-19462 h1 v-19462 h1 v-19462 h1 v-19462 h1 v-19462 h1 v-19462 h1 v-19462 h1 v-19462 h1 v-8174 h1 v-8174 h1 v-8174 h1 v-8174 h1 v-8174 h1 v-8174 h1 v-8174 h1 v-8174 h1 v-8174 h1 v-8174 h1 v-8174 h1 v-8174 h1 v-8174 h1 v-8174 h1 v-8174 h1 v927109Z" class="wu-bars"/>
    <path d="M59,0 v-1483073.40239691 h92 v1483073.40239691 Z" class="wu-bars-hover" id="spring"/>
  </g>
  <g id="summerGroup" transform="translate(0 265) scale(3.24110 0.00018)">
    <path d="M151,0 v-935284 h1 v-8174 h1 v-8174 h1 v-8174 h1 v-8174 h1 v-8174 h1 v-8174 h1 v-8174 h1 v-8174 h1 v-8174 h1 v-8174 h1 v-8174 h1 v-8174 h1 v-8174 h1 v-8174 h1 v-13979 h1 v-13979 h1 v-13979 h1 v-13979 h1 v-13979 h1 v-13979 h1 v-13979 h1 v-13979 h1 v-13979 h1 v-13979 h1 v-13979 h1 v-13979 h1 v-13979 h1 v-13979 h1 v-13979 h1 v-13979 h1 v-13979 h1 v-13979 h1 v-13979 h1 v-13979 h1 v-13979 h1 v-13979 h1 v-13979 h1 v-13979 h1 v-13979 h1 v-13979 h1 v-13979 h1 v-13979 h1 v-13979 h1 v-13979 h1 v-13979 h1 v10264 h1 v10264 h1 v10264 h1 v10264 h1 v10264 h1 v10264 h1 v10264 h1 v10264 h1 v10264 h1 v10264 h1 v10264 h1 v10264 h1 v10264 h1 v10264 h1 v10264 h1 v10264 h1 v10264 h1 v10264 h1 v10264 h1 v10264 h1 v10264 h1 v10264 h1 v10264 h1 v10264 h1 v10264 h1 v10264 h1 v10264 h1 v10264 h1 v10264 h1 v10264 h1 v10264 h1 v24982 h1 v24982 h1 v24982 h1 v24982 h1 v24982 h1 v24982 h1 v24982 h1 v24982 h1 v24982 h1 v24982 h1 v24982 h1 v24982 h1 v24982 h1 v24982 h1 v24982 h1 v790148Z" class="wu-bars"/>
    <path d="M151,0 v-1483073.40239691 h92 v1483073.40239691 Z" class="wu-bars-hover" id="summer"/>
  </g>
  <g id="fallGroup" transform="translate(0 265) scale(3.24110 0.00018)">
    <path d="M243,0 v-765166 h1 v24982 h1 v24982 h1 v24982 h1 v24982 h1 v24982 h1 v24982 h1 v24982 h1 v24982 h1 v24982 h1 v24982 h1 v24982 h1 v24982 h1 v24982 h1 v24982 h1 v12718 h1 v12718 h1 v12718 h1 v12718 h1 v12718 h1 v12718 h1 v12718 h1 v12718 h1 v12718 h1 v12718 h1 v12718 h1 v12718 h1 v12718 h1 v12718 h1 v12718 h1 v12718 h1 v12718 h1 v12718 h1 v12718 h1 v12718 h1 v12718 h1 v12718 h1 v12718 h1 v12718 h1 v12718 h1 v12718 h1 v12718 h1 v12718 h1 v12718 h1 v12718 h1 v12718 h1 v368 h1 v368 h1 v368 h1 v368 h1 v368 h1 v368 h1 v368 h1 v368 h1 v368 h1 v368 h1 v368 h1 v368 h1 v368 h1 v368 h1 v368 h1 v368 h1 v368 h1 v368 h1 v368 h1 v368 h1 v368 h1 v368 h1 v368 h1 v368 h1 v368 h1 v368 h1 v368 h1 v368 h1 v368 h1 v368 h1 v303 h1 v303 h1 v303 h1 v303 h1 v303 h1 v303 h1 v303 h1 v303 h1 v303 h1 v303 h1 v303 h1 v303 h1 v303 h1 v303 h1 v303 h1 v5567Z" class="wu-bars"/>
    <path d="M243,0 v-1483073.40239691 h91 v1483073.40239691 Z" class="wu-bars-hover" id="fall"/>
  </g>
  <g id="winterGroup" transform="translate(0 265) scale(3.24110 0.00018)">
    <path d="M334,0 v-5264 h1 v303 h1 v303 h1 v303 h1 v303 h1 v303 h1 v303 h1 v303 h1 v303 h1 v303 h1 v303 h1 v303 h1 v303 h1 v303 h1 v303 h1 v303 h1 v0 h1 v0 h1 v0 h1 v0 h1 v0 h1 v0 h1 v0 h1 v0 h1 v0 h1 v0 h1 v0 h1 v0 h1 v0 h1 v0 h1 v0 h1 v717Z" class="wu-bars"/>
    <path d="M334,0 v-1483073.40239691 h31 v1483073.40239691 Z" class="wu-bars-hover" id="winter"/>
  </g>
  <g id="barchartAxis" translate="translate(0 265)">
    <path class="wu-bars-axis" d="M0,0 v265"/>
    <text id="yAxisLabelLow" class="wu-bars-axis" text-anchor="end" x="-20" y="263">0</text>
    <text id="yAxisLabelHigh" class="wu-bars-axis" text-anchor="end" x="-20" y="10">1.483e+09</text>
    <text id="yAxisTitle" class="wu-bars-axis" text-anchor="middle" transform="rotate(-90) translate(-132.5 -20)">Daily water use, mgd</text>
  </g>
</svg>
