<?xml version="1.0" encoding="UTF-8"?>
<svg xmlns="http://www.w3.org/2000/svg" xmlns:xlink="http://www.w3.org/1999/xlink" viewBox="0 0 1000 800" preserveAspectRatio="xMidYMid meet" id="svg-wu-bars-ir" version="1.1">
  <path d="M0,0 v-5294084 h1 v0 h1 v0 h1 v0 h1 v0 h1 v0 h1 v0 h1 v0 h1 v0 h1 v0 h1 v0 h1 v0 h1 v0 h1 v0 h1 v0 h1 v0 h1 v127425 h1 v127425 h1 v127425 h1 v127425 h1 v127425 h1 v127425 h1 v127425 h1 v127425 h1 v127425 h1 v127425 h1 v127425 h1 v127425 h1 v127425 h1 v127425 h1 v127425 h1 v127425 h1 v127425 h1 v127425 h1 v127425 h1 v127425 h1 v127425 h1 v127425 h1 v127425 h1 v127425 h1 v127425 h1 v127425 h1 v127425 h1 v127425 h1 v-2782798 h1 v-2782798 h1 v-2782798 h1 v-2782798 h1 v-2782798 h1 v-2782798 h1 v-2782798 h1 v-2782798 h1 v-2782798 h1 v-2782798 h1 v-2782798 h1 v-2782798 h1 v-2782798 h1 v-2782798 h1 v-2782798 h1 v-2782798 h1 v-2782798 h1 v-2782798 h1 v-2782798 h1 v-2782798 h1 v-2782798 h1 v-2782798 h1 v-2782798 h1 v-2782798 h1 v-2782798 h1 v-2782798 h1 v-2782798 h1 v-2782798 h1 v-2782798 h1 v-2782798 h1 v-2782798 h1 v-3750822 h1 v-3750822 h1 v-3750822 h1 v-3750822 h1 v-3750822 h1 v-3750822 h1 v-3750822 h1 v-3750822 h1 v-3750822 h1 v-3750822 h1 v-3750822 h1 v-3750822 h1 v-3750822 h1 v-3750822 h1 v-3750822 h1 v-3750822 h1 v-3750822 h1 v-3750822 h1 v-3750822 h1 v-3750822 h1 v-3750822 h1 v-3750822 h1 v-3750822 h1 v-3750822 h1 v-3750822 h1 v-3750822 h1 v-3750822 h1 v-3750822 h1 v-3750822 h1 v-3750822 h1 v-19331425 h1 v-19331425 h1 v-19331425 h1 v-19331425 h1 v-19331425 h1 v-19331425 h1 v-19331425 h1 v-19331425 h1 v-19331425 h1 v-19331425 h1 v-19331425 h1 v-19331425 h1 v-19331425 h1 v-19331425 h1 v-19331425 h1 v-19331425 h1 v-19331425 h1 v-19331425 h1 v-19331425 h1 v-19331425 h1 v-19331425 h1 v-19331425 h1 v-19331425 h1 v-19331425 h1 v-19331425 h1 v-19331425 h1 v-19331425 h1 v-19331425 h1 v-19331425 h1 v-19331425 h1 v-19331425 h1 v-8131124 h1 v-8131124 h1 v-8131124 h1 v-8131124 h1 v-8131124 h1 v-8131124 h1 v-8131124 h1 v-8131124 h1 v-8131124 h1 v-8131124 h1 v-8131124 h1 v-8131124 h1 v-8131124 h1 v-8131124 h1 v-8131124 h1 v-8131124 h1 v-8131124 h1 v-8131124 h1 v-8131124 h1 v-8131124 h1 v-8131124 h1 v-8131124 h1 v-8131124 h1 v-8131124 h1 v-8131124 h1 v-8131124 h1 v-8131124 h1 v-8131124 h1 v-8131124 h1 v-8131124 h1 v-13939307 h1 v-13939307 h1 v-13939307 h1 v-13939307 h1 v-13939307 h1 v-13939307 h1 v-13939307 h1 v-13939307 h1 v-13939307 h1 v-13939307 h1 v-13939307 h1 v-13939307 h1 v-13939307 h1 v-13939307 h1 v-13939307 h1 v-13939307 h1 v-13939307 h1 v-13939307 h1 v-13939307 h1 v-13939307 h1 v-13939307 h1 v-13939307 h1 v-13939307 h1 v-13939307 h1 v-13939307 h1 v-13939307 h1 v-13939307 h1 v-13939307 h1 v-13939307 h1 v-13939307 h1 v-13939307 h1 v10166872 h1 v10166872 h1 v10166872 h1 v10166872 h1 v10166872 h1 v10166872 h1 v10166872 h1 v10166872 h1 v10166872 h1 v10166872 h1 v10166872 h1 v10166872 h1 v10166872 h1 v10166872 h1 v10166872 h1 v10166872 h1 v10166872 h1 v10166872 h1 v10166872 h1 v10166872 h1 v10166872 h1 v10166872 h1 v10166872 h1 v10166872 h1 v10166872 h1 v10166872 h1 v10166872 h1 v10166872 h1 v10166872 h1 v10166872 h1 v10166872 h1 v24870001 h1 v24870001 h1 v24870001 h1 v24870001 h1 v24870001 h1 v24870001 h1 v24870001 h1 v24870001 h1 v24870001 h1 v24870001 h1 v24870001 h1 v24870001 h1 v24870001 h1 v24870001 h1 v24870001 h1 v24870001 h1 v24870001 h1 v24870001 h1 v24870001 h1 v24870001 h1 v24870001 h1 v24870001 h1 v24870001 h1 v24870001 h1 v24870001 h1 v24870001 h1 v24870001 h1 v24870001 h1 v24870001 h1 v24870001 h1 v12699046 h1 v12699046 h1 v12699046 h1 v12699046 h1 v12699046 h1 v12699046 h1 v12699046 h1 v12699046 h1 v12699046 h1 v12699046 h1 v12699046 h1 v12699046 h1 v12699046 h1 v12699046 h1 v12699046 h1 v12699046 h1 v12699046 h1 v12699046 h1 v12699046 h1 v12699046 h1 v12699046 h1 v12699046 h1 v12699046 h1 v12699046 h1 v12699046 h1 v12699046 h1 v12699046 h1 v12699046 h1 v12699046 h1 v12699046 h1 v12699046 h1 v359544 h1 v359544 h1 v359544 h1 v359544 h1 v359544 h1 v359544 h1 v359544 h1 v359544 h1 v359544 h1 v359544 h1 v359544 h1 v359544 h1 v359544 h1 v359544 h1 v359544 h1 v359544 h1 v359544 h1 v359544 h1 v359544 h1 v359544 h1 v359544 h1 v359544 h1 v359544 h1 v359544 h1 v359544 h1 v359544 h1 v359544 h1 v359544 h1 v359544 h1 v359544 h1 v303135 h1 v303135 h1 v303135 h1 v303135 h1 v303135 h1 v303135 h1 v303135 h1 v303135 h1 v303135 h1 v303135 h1 v303135 h1 v303135 h1 v303135 h1 v303135 h1 v303135 h1 v303135 h1 v303135 h1 v303135 h1 v303135 h1 v303135 h1 v303135 h1 v303135 h1 v303135 h1 v303135 h1 v303135 h1 v303135 h1 v303135 h1 v303135 h1 v303135 h1 v303135 h1 v303135 h1 v0 h1 v0 h1 v0 h1 v0 h1 v0 h1 v0 h1 v0 h1 v0 h1 v0 h1 v0 h1 v0 h1 v0 h1 v0 h1 v0 h1 v0 h1 v717026Z" class="wu-bars" transform="translate(0 800) scale(2.73972602739726 5.42062706732584e-07)"/>
</svg>
