<?xml version="1.0" encoding="UTF-8"?>
<svg xmlns="http://www.w3.org/2000/svg" xmlns:xlink="http://www.w3.org/1999/xlink" viewBox="-120 -5 1183 265" preserveAspectRatio="xMidYMid meet" id="svg-wu-bars-te" version="1.1">
  <g id="winterGroup" transform="translate(0 265) scale(3.24110 0.00087)">
    <path d="M0,0 v-235512 h1 v-1418 h1 v-1418 h1 v-1418 h1 v-1418 h1 v-1418 h1 v-1418 h1 v-1418 h1 v-1418 h1 v-1418 h1 v-1418 h1 v-1418 h1 v-1418 h1 v-1418 h1 v-1418 h1 v-308 h1 v-308 h1 v-308 h1 v-308 h1 v-308 h1 v-308 h1 v-308 h1 v-308 h1 v-308 h1 v-308 h1 v-308 h1 v-308 h1 v-308 h1 v-308 h1 v-308 h1 v-308 h1 v-308 h1 v-308 h1 v-308 h1 v-308 h1 v-308 h1 v-308 h1 v-308 h1 v-308 h1 v-308 h1 v-308 h1 v-308 h1 v-308 h1 v-308 h1 v-308 h1 v-308 h1 v1572 h1 v1572 h1 v1572 h1 v1572 h1 v1572 h1 v1572 h1 v1572 h1 v1572 h1 v1572 h1 v1572 h1 v1572 h1 v1572 h1 v1572 h1 v244469Z" class="wu-bars"/>
    <path d="M0,0 v-306025.135423527 h59 v306025.135423527 Z" class="wu-bars-hover" id="winter"/>
  </g>
  <g id="springGroup" transform="translate(0 265) scale(3.24110 0.00087)">
    <path d="M59,0 v-242897 h1 v1572 h1 v1572 h1 v1572 h1 v1572 h1 v1572 h1 v1572 h1 v1572 h1 v1572 h1 v1572 h1 v1572 h1 v1572 h1 v1572 h1 v1572 h1 v1572 h1 v324 h1 v324 h1 v324 h1 v324 h1 v324 h1 v324 h1 v324 h1 v324 h1 v324 h1 v324 h1 v324 h1 v324 h1 v324 h1 v324 h1 v324 h1 v324 h1 v324 h1 v324 h1 v324 h1 v324 h1 v324 h1 v324 h1 v324 h1 v324 h1 v324 h1 v324 h1 v324 h1 v324 h1 v324 h1 v324 h1 v324 h1 v-843 h1 v-843 h1 v-843 h1 v-843 h1 v-843 h1 v-843 h1 v-843 h1 v-843 h1 v-843 h1 v-843 h1 v-843 h1 v-843 h1 v-843 h1 v-843 h1 v-843 h1 v-843 h1 v-843 h1 v-843 h1 v-843 h1 v-843 h1 v-843 h1 v-843 h1 v-843 h1 v-843 h1 v-843 h1 v-843 h1 v-843 h1 v-843 h1 v-843 h1 v-843 h1 v-1532 h1 v-1532 h1 v-1532 h1 v-1532 h1 v-1532 h1 v-1532 h1 v-1532 h1 v-1532 h1 v-1532 h1 v-1532 h1 v-1532 h1 v-1532 h1 v-1532 h1 v-1532 h1 v-1532 h1 v-1532 h1 v260654Z" class="wu-bars"/>
    <path d="M59,0 v-306025.135423527 h92 v306025.135423527 Z" class="wu-bars-hover" id="spring"/>
  </g>
  <g id="summerGroup" transform="translate(0 265) scale(3.24110 0.00087)">
    <path d="M151,0 v-262186 h1 v-1532 h1 v-1532 h1 v-1532 h1 v-1532 h1 v-1532 h1 v-1532 h1 v-1532 h1 v-1532 h1 v-1532 h1 v-1532 h1 v-1532 h1 v-1532 h1 v-1532 h1 v-1532 h1 v-746 h1 v-746 h1 v-746 h1 v-746 h1 v-746 h1 v-746 h1 v-746 h1 v-746 h1 v-746 h1 v-746 h1 v-746 h1 v-746 h1 v-746 h1 v-746 h1 v-746 h1 v-746 h1 v-746 h1 v-746 h1 v-746 h1 v-746 h1 v-746 h1 v-746 h1 v-746 h1 v-746 h1 v-746 h1 v-746 h1 v-746 h1 v-746 h1 v-746 h1 v-746 h1 v167 h1 v167 h1 v167 h1 v167 h1 v167 h1 v167 h1 v167 h1 v167 h1 v167 h1 v167 h1 v167 h1 v167 h1 v167 h1 v167 h1 v167 h1 v167 h1 v167 h1 v167 h1 v167 h1 v167 h1 v167 h1 v167 h1 v167 h1 v167 h1 v167 h1 v167 h1 v167 h1 v167 h1 v167 h1 v167 h1 v167 h1 v967 h1 v967 h1 v967 h1 v967 h1 v967 h1 v967 h1 v967 h1 v967 h1 v967 h1 v967 h1 v967 h1 v967 h1 v967 h1 v967 h1 v967 h1 v967 h1 v285372Z" class="wu-bars"/>
    <path d="M151,0 v-306025.135423527 h92 v306025.135423527 Z" class="wu-bars-hover" id="summer"/>
  </g>
  <g id="fallGroup" transform="translate(0 265) scale(3.24110 0.00087)">
    <path d="M243,0 v-284405 h1 v967 h1 v967 h1 v967 h1 v967 h1 v967 h1 v967 h1 v967 h1 v967 h1 v967 h1 v967 h1 v967 h1 v967 h1 v967 h1 v967 h1 v1759 h1 v1759 h1 v1759 h1 v1759 h1 v1759 h1 v1759 h1 v1759 h1 v1759 h1 v1759 h1 v1759 h1 v1759 h1 v1759 h1 v1759 h1 v1759 h1 v1759 h1 v1759 h1 v1759 h1 v1759 h1 v1759 h1 v1759 h1 v1759 h1 v1759 h1 v1759 h1 v1759 h1 v1759 h1 v1759 h1 v1759 h1 v1759 h1 v1759 h1 v1759 h1 v423 h1 v423 h1 v423 h1 v423 h1 v423 h1 v423 h1 v423 h1 v423 h1 v423 h1 v423 h1 v423 h1 v423 h1 v423 h1 v423 h1 v423 h1 v423 h1 v423 h1 v423 h1 v423 h1 v423 h1 v423 h1 v423 h1 v423 h1 v423 h1 v423 h1 v423 h1 v423 h1 v423 h1 v423 h1 v423 h1 v423 h1 v-215 h1 v-215 h1 v-215 h1 v-215 h1 v-215 h1 v-215 h1 v-215 h1 v-215 h1 v-215 h1 v-215 h1 v-215 h1 v-215 h1 v-215 h1 v-215 h1 v-215 h1 v208180Z" class="wu-bars"/>
    <path d="M243,0 v-306025.135423527 h91 v306025.135423527 Z" class="wu-bars-hover" id="fall"/>
  </g>
  <g id="winterGroup" transform="translate(0 265) scale(3.24110 0.00087)">
    <path d="M334,0 v-208395 h1 v-215 h1 v-215 h1 v-215 h1 v-215 h1 v-215 h1 v-215 h1 v-215 h1 v-215 h1 v-215 h1 v-215 h1 v-215 h1 v-215 h1 v-215 h1 v-215 h1 v-1418 h1 v-1418 h1 v-1418 h1 v-1418 h1 v-1418 h1 v-1418 h1 v-1418 h1 v-1418 h1 v-1418 h1 v-1418 h1 v-1418 h1 v-1418 h1 v-1418 h1 v-1418 h1 v-1418 h1 v-1418 h1 v234094Z" class="wu-bars"/>
    <path d="M334,0 v-306025.135423527 h31 v306025.135423527 Z" class="wu-bars-hover" id="winter"/>
  </g>
  <g id="barchartAxis" translate="translate(0 265)">
    <path class="wu-bars-axis" d="M0,0 v265"/>
    <text id="yAxisLabelLow" class="wu-bars-axis" text-anchor="end" x="-20" y="263">0</text>
    <text id="yAxisLabelHigh" class="wu-bars-axis" text-anchor="end" x="-20" y="10">3.060e+08</text>
    <text id="yAxisTitle" class="wu-bars-axis" text-anchor="middle" transform="rotate(-90) translate(-132.5 -20)">Daily water use, mgd</text>
  </g>
</svg>
