<?xml version="1.0" encoding="UTF-8"?>
<svg xmlns="http://www.w3.org/2000/svg" xmlns:xlink="http://www.w3.org/1999/xlink" viewBox="0 0 1000 800" preserveAspectRatio="xMidYMid meet" id="svg-wu-bars-te" version="1.1">
  <path d="M0,0 v-364416034 h1 v-2194071 h1 v-2194071 h1 v-2194071 h1 v-2194071 h1 v-2194071 h1 v-2194071 h1 v-2194071 h1 v-2194071 h1 v-2194071 h1 v-2194071 h1 v-2194071 h1 v-2194071 h1 v-2194071 h1 v-2194071 h1 v-476256 h1 v-476256 h1 v-476256 h1 v-476256 h1 v-476256 h1 v-476256 h1 v-476256 h1 v-476256 h1 v-476256 h1 v-476256 h1 v-476256 h1 v-476256 h1 v-476256 h1 v-476256 h1 v-476256 h1 v-476256 h1 v-476256 h1 v-476256 h1 v-476256 h1 v-476256 h1 v-476256 h1 v-476256 h1 v-476256 h1 v-476256 h1 v-476256 h1 v-476256 h1 v-476256 h1 v-476256 h1 v-476256 h1 v-476256 h1 v-476256 h1 v2432354 h1 v2432354 h1 v2432354 h1 v2432354 h1 v2432354 h1 v2432354 h1 v2432354 h1 v2432354 h1 v2432354 h1 v2432354 h1 v2432354 h1 v2432354 h1 v2432354 h1 v2432354 h1 v2432354 h1 v2432354 h1 v2432354 h1 v2432354 h1 v2432354 h1 v2432354 h1 v2432354 h1 v2432354 h1 v2432354 h1 v2432354 h1 v2432354 h1 v2432354 h1 v2432354 h1 v2432354 h1 v501378 h1 v501378 h1 v501378 h1 v501378 h1 v501378 h1 v501378 h1 v501378 h1 v501378 h1 v501378 h1 v501378 h1 v501378 h1 v501378 h1 v501378 h1 v501378 h1 v501378 h1 v501378 h1 v501378 h1 v501378 h1 v501378 h1 v501378 h1 v501378 h1 v501378 h1 v501378 h1 v501378 h1 v501378 h1 v501378 h1 v501378 h1 v501378 h1 v501378 h1 v501378 h1 v501378 h1 v-1304365 h1 v-1304365 h1 v-1304365 h1 v-1304365 h1 v-1304365 h1 v-1304365 h1 v-1304365 h1 v-1304365 h1 v-1304365 h1 v-1304365 h1 v-1304365 h1 v-1304365 h1 v-1304365 h1 v-1304365 h1 v-1304365 h1 v-1304365 h1 v-1304365 h1 v-1304365 h1 v-1304365 h1 v-1304365 h1 v-1304365 h1 v-1304365 h1 v-1304365 h1 v-1304365 h1 v-1304365 h1 v-1304365 h1 v-1304365 h1 v-1304365 h1 v-1304365 h1 v-1304365 h1 v-2371249 h1 v-2371249 h1 v-2371249 h1 v-2371249 h1 v-2371249 h1 v-2371249 h1 v-2371249 h1 v-2371249 h1 v-2371249 h1 v-2371249 h1 v-2371249 h1 v-2371249 h1 v-2371249 h1 v-2371249 h1 v-2371249 h1 v-2371249 h1 v-2371249 h1 v-2371249 h1 v-2371249 h1 v-2371249 h1 v-2371249 h1 v-2371249 h1 v-2371249 h1 v-2371249 h1 v-2371249 h1 v-2371249 h1 v-2371249 h1 v-2371249 h1 v-2371249 h1 v-2371249 h1 v-2371249 h1 v-1154525 h1 v-1154525 h1 v-1154525 h1 v-1154525 h1 v-1154525 h1 v-1154525 h1 v-1154525 h1 v-1154525 h1 v-1154525 h1 v-1154525 h1 v-1154525 h1 v-1154525 h1 v-1154525 h1 v-1154525 h1 v-1154525 h1 v-1154525 h1 v-1154525 h1 v-1154525 h1 v-1154525 h1 v-1154525 h1 v-1154525 h1 v-1154525 h1 v-1154525 h1 v-1154525 h1 v-1154525 h1 v-1154525 h1 v-1154525 h1 v-1154525 h1 v-1154525 h1 v-1154525 h1 v258333 h1 v258333 h1 v258333 h1 v258333 h1 v258333 h1 v258333 h1 v258333 h1 v258333 h1 v258333 h1 v258333 h1 v258333 h1 v258333 h1 v258333 h1 v258333 h1 v258333 h1 v258333 h1 v258333 h1 v258333 h1 v258333 h1 v258333 h1 v258333 h1 v258333 h1 v258333 h1 v258333 h1 v258333 h1 v258333 h1 v258333 h1 v258333 h1 v258333 h1 v258333 h1 v258333 h1 v1496777 h1 v1496777 h1 v1496777 h1 v1496777 h1 v1496777 h1 v1496777 h1 v1496777 h1 v1496777 h1 v1496777 h1 v1496777 h1 v1496777 h1 v1496777 h1 v1496777 h1 v1496777 h1 v1496777 h1 v1496777 h1 v1496777 h1 v1496777 h1 v1496777 h1 v1496777 h1 v1496777 h1 v1496777 h1 v1496777 h1 v1496777 h1 v1496777 h1 v1496777 h1 v1496777 h1 v1496777 h1 v1496777 h1 v1496777 h1 v1496777 h1 v2722407 h1 v2722407 h1 v2722407 h1 v2722407 h1 v2722407 h1 v2722407 h1 v2722407 h1 v2722407 h1 v2722407 h1 v2722407 h1 v2722407 h1 v2722407 h1 v2722407 h1 v2722407 h1 v2722407 h1 v2722407 h1 v2722407 h1 v2722407 h1 v2722407 h1 v2722407 h1 v2722407 h1 v2722407 h1 v2722407 h1 v2722407 h1 v2722407 h1 v2722407 h1 v2722407 h1 v2722407 h1 v2722407 h1 v2722407 h1 v655219 h1 v655219 h1 v655219 h1 v655219 h1 v655219 h1 v655219 h1 v655219 h1 v655219 h1 v655219 h1 v655219 h1 v655219 h1 v655219 h1 v655219 h1 v655219 h1 v655219 h1 v655219 h1 v655219 h1 v655219 h1 v655219 h1 v655219 h1 v655219 h1 v655219 h1 v655219 h1 v655219 h1 v655219 h1 v655219 h1 v655219 h1 v655219 h1 v655219 h1 v655219 h1 v655219 h1 v-332850 h1 v-332850 h1 v-332850 h1 v-332850 h1 v-332850 h1 v-332850 h1 v-332850 h1 v-332850 h1 v-332850 h1 v-332850 h1 v-332850 h1 v-332850 h1 v-332850 h1 v-332850 h1 v-332850 h1 v-332850 h1 v-332850 h1 v-332850 h1 v-332850 h1 v-332850 h1 v-332850 h1 v-332850 h1 v-332850 h1 v-332850 h1 v-332850 h1 v-332850 h1 v-332850 h1 v-332850 h1 v-332850 h1 v-332850 h1 v-2194071 h1 v-2194071 h1 v-2194071 h1 v-2194071 h1 v-2194071 h1 v-2194071 h1 v-2194071 h1 v-2194071 h1 v-2194071 h1 v-2194071 h1 v-2194071 h1 v-2194071 h1 v-2194071 h1 v-2194071 h1 v-2194071 h1 v-2194071 h1 v362221963Z" class="wu-bars" transform="translate(0 800) scale(2.73972602739726 1.6894612244333e-06)"/>
</svg>
