<?xml version="1.0" encoding="UTF-8"?>
<svg xmlns="http://www.w3.org/2000/svg" xmlns:xlink="http://www.w3.org/1999/xlink" viewBox="-120 -5 1300 270" preserveAspectRatio="xMidYMid meet" id="svg-wu-bars-te" version="1.1">
  <g id="winterGroup" transform="translate(0 270) scale(3.24110 0.00056)">
    <path d="M0,0 v-364416 h1 v-2194 h1 v-2194 h1 v-2194 h1 v-2194 h1 v-2194 h1 v-2194 h1 v-2194 h1 v-2194 h1 v-2194 h1 v-2194 h1 v-2194 h1 v-2194 h1 v-2194 h1 v-2194 h1 v-476 h1 v-476 h1 v-476 h1 v-476 h1 v-476 h1 v-476 h1 v-476 h1 v-476 h1 v-476 h1 v-476 h1 v-476 h1 v-476 h1 v-476 h1 v-476 h1 v-476 h1 v-476 h1 v-476 h1 v-476 h1 v-476 h1 v-476 h1 v-476 h1 v-476 h1 v-476 h1 v-476 h1 v-476 h1 v-476 h1 v-476 h1 v-476 h1 v-476 h1 v-476 h1 v-476 h1 v2432 h1 v2432 h1 v2432 h1 v2432 h1 v2432 h1 v2432 h1 v2432 h1 v2432 h1 v2432 h1 v2432 h1 v2432 h1 v2432 h1 v2432 h1 v378276Z" class="wu-bars"/>
    <path d="M0,0 v-473523.741433216 h59 v473523.741433216 Z" class="wu-bars-hover" id="winter"/>
  </g>
  <g id="springGroup" transform="translate(0 270) scale(3.24110 0.00056)">
    <path d="M59,0 v-375844 h1 v2432 h1 v2432 h1 v2432 h1 v2432 h1 v2432 h1 v2432 h1 v2432 h1 v2432 h1 v2432 h1 v2432 h1 v2432 h1 v2432 h1 v2432 h1 v2432 h1 v501 h1 v501 h1 v501 h1 v501 h1 v501 h1 v501 h1 v501 h1 v501 h1 v501 h1 v501 h1 v501 h1 v501 h1 v501 h1 v501 h1 v501 h1 v501 h1 v501 h1 v501 h1 v501 h1 v501 h1 v501 h1 v501 h1 v501 h1 v501 h1 v501 h1 v501 h1 v501 h1 v501 h1 v501 h1 v501 h1 v501 h1 v-1304 h1 v-1304 h1 v-1304 h1 v-1304 h1 v-1304 h1 v-1304 h1 v-1304 h1 v-1304 h1 v-1304 h1 v-1304 h1 v-1304 h1 v-1304 h1 v-1304 h1 v-1304 h1 v-1304 h1 v-1304 h1 v-1304 h1 v-1304 h1 v-1304 h1 v-1304 h1 v-1304 h1 v-1304 h1 v-1304 h1 v-1304 h1 v-1304 h1 v-1304 h1 v-1304 h1 v-1304 h1 v-1304 h1 v-1304 h1 v-2371 h1 v-2371 h1 v-2371 h1 v-2371 h1 v-2371 h1 v-2371 h1 v-2371 h1 v-2371 h1 v-2371 h1 v-2371 h1 v-2371 h1 v-2371 h1 v-2371 h1 v-2371 h1 v-2371 h1 v-2371 h1 v403319Z" class="wu-bars"/>
    <path d="M59,0 v-473523.741433216 h92 v473523.741433216 Z" class="wu-bars-hover" id="spring"/>
  </g>
  <g id="summerGroup" transform="translate(0 270) scale(3.24110 0.00056)">
    <path d="M151,0 v-405691 h1 v-2371 h1 v-2371 h1 v-2371 h1 v-2371 h1 v-2371 h1 v-2371 h1 v-2371 h1 v-2371 h1 v-2371 h1 v-2371 h1 v-2371 h1 v-2371 h1 v-2371 h1 v-2371 h1 v-1155 h1 v-1155 h1 v-1155 h1 v-1155 h1 v-1155 h1 v-1155 h1 v-1155 h1 v-1155 h1 v-1155 h1 v-1155 h1 v-1155 h1 v-1155 h1 v-1155 h1 v-1155 h1 v-1155 h1 v-1155 h1 v-1155 h1 v-1155 h1 v-1155 h1 v-1155 h1 v-1155 h1 v-1155 h1 v-1155 h1 v-1155 h1 v-1155 h1 v-1155 h1 v-1155 h1 v-1155 h1 v-1155 h1 v-1155 h1 v258 h1 v258 h1 v258 h1 v258 h1 v258 h1 v258 h1 v258 h1 v258 h1 v258 h1 v258 h1 v258 h1 v258 h1 v258 h1 v258 h1 v258 h1 v258 h1 v258 h1 v258 h1 v258 h1 v258 h1 v258 h1 v258 h1 v258 h1 v258 h1 v258 h1 v258 h1 v258 h1 v258 h1 v258 h1 v258 h1 v258 h1 v1497 h1 v1497 h1 v1497 h1 v1497 h1 v1497 h1 v1497 h1 v1497 h1 v1497 h1 v1497 h1 v1497 h1 v1497 h1 v1497 h1 v1497 h1 v1497 h1 v1497 h1 v1497 h1 v441567Z" class="wu-bars"/>
    <path d="M151,0 v-473523.741433216 h92 v473523.741433216 Z" class="wu-bars-hover" id="summer"/>
  </g>
  <g id="fallGroup" transform="translate(0 270) scale(3.24110 0.00056)">
    <path d="M243,0 v-440070 h1 v1497 h1 v1497 h1 v1497 h1 v1497 h1 v1497 h1 v1497 h1 v1497 h1 v1497 h1 v1497 h1 v1497 h1 v1497 h1 v1497 h1 v1497 h1 v1497 h1 v2722 h1 v2722 h1 v2722 h1 v2722 h1 v2722 h1 v2722 h1 v2722 h1 v2722 h1 v2722 h1 v2722 h1 v2722 h1 v2722 h1 v2722 h1 v2722 h1 v2722 h1 v2722 h1 v2722 h1 v2722 h1 v2722 h1 v2722 h1 v2722 h1 v2722 h1 v2722 h1 v2722 h1 v2722 h1 v2722 h1 v2722 h1 v2722 h1 v2722 h1 v2722 h1 v655 h1 v655 h1 v655 h1 v655 h1 v655 h1 v655 h1 v655 h1 v655 h1 v655 h1 v655 h1 v655 h1 v655 h1 v655 h1 v655 h1 v655 h1 v655 h1 v655 h1 v655 h1 v655 h1 v655 h1 v655 h1 v655 h1 v655 h1 v655 h1 v655 h1 v655 h1 v655 h1 v655 h1 v655 h1 v655 h1 v655 h1 v-333 h1 v-333 h1 v-333 h1 v-333 h1 v-333 h1 v-333 h1 v-333 h1 v-333 h1 v-333 h1 v-333 h1 v-333 h1 v-333 h1 v-333 h1 v-333 h1 v-333 h1 v322124Z" class="wu-bars"/>
    <path d="M243,0 v-473523.741433216 h91 v473523.741433216 Z" class="wu-bars-hover" id="fall"/>
  </g>
  <g id="winterGroup" transform="translate(0 270) scale(3.24110 0.00056)">
    <path d="M334,0 v-322457 h1 v-333 h1 v-333 h1 v-333 h1 v-333 h1 v-333 h1 v-333 h1 v-333 h1 v-333 h1 v-333 h1 v-333 h1 v-333 h1 v-333 h1 v-333 h1 v-333 h1 v-2194 h1 v-2194 h1 v-2194 h1 v-2194 h1 v-2194 h1 v-2194 h1 v-2194 h1 v-2194 h1 v-2194 h1 v-2194 h1 v-2194 h1 v-2194 h1 v-2194 h1 v-2194 h1 v-2194 h1 v-2194 h1 v362222Z" class="wu-bars"/>
    <path d="M334,0 v-473523.741433216 h31 v473523.741433216 Z" class="wu-bars-hover" id="winter"/>
  </g>
  <g id="barchartAxis" translate="translate(0 270)">
    <path class="wu-bars-axis" d="M0,0 v270"/>
    <text id="yAxisLabelLow" class="wu-bars-axis" text-anchor="end" x="-20" y="263">0</text>
    <text id="yAxisLabelHigh" class="wu-bars-axis" text-anchor="end" x="-20" y="10">4.735e+08</text>
    <text id="yAxisTitle" class="wu-bars-axis" text-anchor="middle" transform="rotate(-90) translate(-132.5 -20)">Daily water use, mgd</text>
  </g>
</svg>
