<?xml version="1.0" encoding="UTF-8"?>
<svg xmlns="http://www.w3.org/2000/svg" xmlns:xlink="http://www.w3.org/1999/xlink" viewBox="-135 -5 1305 305" preserveAspectRatio="xMidYMid meet" id="svg-wu-bars-te" version="1.1">
  <g id="winterGroup" transform="translate(0 265) scale(3.24658 0.00212)">
    <path d="M0,0 v-96269 h1 v-580 h1 v-580 h1 v-580 h1 v-580 h1 v-580 h1 v-580 h1 v-580 h1 v-580 h1 v-580 h1 v-580 h1 v-580 h1 v-580 h1 v-580 h1 v-580 h1 v-126 h1 v-126 h1 v-126 h1 v-126 h1 v-126 h1 v-126 h1 v-126 h1 v-126 h1 v-126 h1 v-126 h1 v-126 h1 v-126 h1 v-126 h1 v-126 h1 v-126 h1 v-126 h1 v-126 h1 v-126 h1 v-126 h1 v-126 h1 v-126 h1 v-126 h1 v-126 h1 v-126 h1 v-126 h1 v-126 h1 v-126 h1 v-126 h1 v-126 h1 v-126 h1 v-126 h1 v643 h1 v643 h1 v643 h1 v643 h1 v643 h1 v643 h1 v643 h1 v643 h1 v643 h1 v643 h1 v643 h1 v643 h1 v643 h1 v99930Z" class="wu-bars"/>
    <path d="M0,0 v-125091.713821895 h59 v125091.713821895 Z" class="wu-bars-hover" id="winter"/>
  </g>
  <g id="springGroup" transform="translate(0 265) scale(3.24658 0.00212)">
    <path d="M59,0 v-99287 h1 v643 h1 v643 h1 v643 h1 v643 h1 v643 h1 v643 h1 v643 h1 v643 h1 v643 h1 v643 h1 v643 h1 v643 h1 v643 h1 v643 h1 v132 h1 v132 h1 v132 h1 v132 h1 v132 h1 v132 h1 v132 h1 v132 h1 v132 h1 v132 h1 v132 h1 v132 h1 v132 h1 v132 h1 v132 h1 v132 h1 v132 h1 v132 h1 v132 h1 v132 h1 v132 h1 v132 h1 v132 h1 v132 h1 v132 h1 v132 h1 v132 h1 v132 h1 v132 h1 v132 h1 v132 h1 v-345 h1 v-345 h1 v-345 h1 v-345 h1 v-345 h1 v-345 h1 v-345 h1 v-345 h1 v-345 h1 v-345 h1 v-345 h1 v-345 h1 v-345 h1 v-345 h1 v-345 h1 v-345 h1 v-345 h1 v-345 h1 v-345 h1 v-345 h1 v-345 h1 v-345 h1 v-345 h1 v-345 h1 v-345 h1 v-345 h1 v-345 h1 v-345 h1 v-345 h1 v-345 h1 v-626 h1 v-626 h1 v-626 h1 v-626 h1 v-626 h1 v-626 h1 v-626 h1 v-626 h1 v-626 h1 v-626 h1 v-626 h1 v-626 h1 v-626 h1 v-626 h1 v-626 h1 v-626 h1 v106546Z" class="wu-bars"/>
    <path d="M59,0 v-125091.713821895 h92 v125091.713821895 Z" class="wu-bars-hover" id="spring"/>
  </g>
  <g id="summerGroup" transform="translate(0 265) scale(3.24658 0.00212)">
    <path d="M151,0 v-107172 h1 v-626 h1 v-626 h1 v-626 h1 v-626 h1 v-626 h1 v-626 h1 v-626 h1 v-626 h1 v-626 h1 v-626 h1 v-626 h1 v-626 h1 v-626 h1 v-626 h1 v-305 h1 v-305 h1 v-305 h1 v-305 h1 v-305 h1 v-305 h1 v-305 h1 v-305 h1 v-305 h1 v-305 h1 v-305 h1 v-305 h1 v-305 h1 v-305 h1 v-305 h1 v-305 h1 v-305 h1 v-305 h1 v-305 h1 v-305 h1 v-305 h1 v-305 h1 v-305 h1 v-305 h1 v-305 h1 v-305 h1 v-305 h1 v-305 h1 v-305 h1 v-305 h1 v68 h1 v68 h1 v68 h1 v68 h1 v68 h1 v68 h1 v68 h1 v68 h1 v68 h1 v68 h1 v68 h1 v68 h1 v68 h1 v68 h1 v68 h1 v68 h1 v68 h1 v68 h1 v68 h1 v68 h1 v68 h1 v68 h1 v68 h1 v68 h1 v68 h1 v68 h1 v68 h1 v68 h1 v68 h1 v68 h1 v68 h1 v395 h1 v395 h1 v395 h1 v395 h1 v395 h1 v395 h1 v395 h1 v395 h1 v395 h1 v395 h1 v395 h1 v395 h1 v395 h1 v395 h1 v395 h1 v395 h1 v116650Z" class="wu-bars"/>
    <path d="M151,0 v-125091.713821895 h92 v125091.713821895 Z" class="wu-bars-hover" id="summer"/>
  </g>
  <g id="fallGroup" transform="translate(0 265) scale(3.24658 0.00212)">
    <path d="M243,0 v-116254 h1 v395 h1 v395 h1 v395 h1 v395 h1 v395 h1 v395 h1 v395 h1 v395 h1 v395 h1 v395 h1 v395 h1 v395 h1 v395 h1 v395 h1 v719 h1 v719 h1 v719 h1 v719 h1 v719 h1 v719 h1 v719 h1 v719 h1 v719 h1 v719 h1 v719 h1 v719 h1 v719 h1 v719 h1 v719 h1 v719 h1 v719 h1 v719 h1 v719 h1 v719 h1 v719 h1 v719 h1 v719 h1 v719 h1 v719 h1 v719 h1 v719 h1 v719 h1 v719 h1 v719 h1 v173 h1 v173 h1 v173 h1 v173 h1 v173 h1 v173 h1 v173 h1 v173 h1 v173 h1 v173 h1 v173 h1 v173 h1 v173 h1 v173 h1 v173 h1 v173 h1 v173 h1 v173 h1 v173 h1 v173 h1 v173 h1 v173 h1 v173 h1 v173 h1 v173 h1 v173 h1 v173 h1 v173 h1 v173 h1 v173 h1 v173 h1 v-88 h1 v-88 h1 v-88 h1 v-88 h1 v-88 h1 v-88 h1 v-88 h1 v-88 h1 v-88 h1 v-88 h1 v-88 h1 v-88 h1 v-88 h1 v-88 h1 v-88 h1 v85096Z" class="wu-bars"/>
    <path d="M243,0 v-125091.713821895 h91 v125091.713821895 Z" class="wu-bars-hover" id="fall"/>
  </g>
  <g id="winterGroup" transform="translate(0 265) scale(3.24658 0.00212)">
    <path d="M334,0 v-85184 h1 v-88 h1 v-88 h1 v-88 h1 v-88 h1 v-88 h1 v-88 h1 v-88 h1 v-88 h1 v-88 h1 v-88 h1 v-88 h1 v-88 h1 v-88 h1 v-88 h1 v-580 h1 v-580 h1 v-580 h1 v-580 h1 v-580 h1 v-580 h1 v-580 h1 v-580 h1 v-580 h1 v-580 h1 v-580 h1 v-580 h1 v-580 h1 v-580 h1 v-580 h1 v-580 h1 v95689Z" class="wu-bars"/>
    <path d="M334,0 v-125091.713821895 h31 v125091.713821895 Z" class="wu-bars-hover" id="winter"/>
  </g>
  <g id="yAxis" translate="translate(0 265)">
    <path class="wu-bars-axis" d="M0,0 v265"/>
    <text id="yAxisLabelLow" class="wu-bars-axis" text-anchor="end" x="-20" y="263">0</text>
    <text id="yAxisLabelHigh" class="wu-bars-axis" text-anchor="end" x="-20" y="10">125,000</text>
    <text id="yAxisTitle" class="wu-bars-axis" text-anchor="end" transform="translate(-20 132.5)">
      <tspan x="0" dy="0">Daily water use</tspan>
      <tspan class="y-units" x="0" dy="20">million gallons per day</tspan>
    </text>
  </g>
  <g id="xAxis" transform="translate(0 265)">
    <path class="wu-bars-axis" d="M0,0 h1185"/>
    <path class="wu-bars-axis" d="M191.547945205479,0 v10 M490.232876712329,0 v10 M788.917808219178,0 v10 M1084.35616438356,0 v10"/>
    <text class="wu-bars-text seasonLabel" transform="translate(97.3972602739726 20)">Winter</text>
    <text class="wu-bars-text seasonLabel" transform="translate(342.513698630137 20)">Spring</text>
    <text class="wu-bars-text seasonLabel" transform="translate(641.198630136986 20)">Summer</text>
    <text class="wu-bars-text seasonLabel" transform="translate(938.260273972603 20)">Fall</text>
    <text class="wu-bars-text seasonLabel" transform="translate(1136.30136986301 20)">Winter</text>
  </g>
</svg>
