<svg xmlns="http://www.w3.org/2000/svg" viewBox="0 0 90.98 40.82"><g id="irrigation"><g id="irrigationText"><path d="M44.61,32.31a5.06,5.06,0,0,1,.47,2.37A5.59,5.59,0,0,1,44.65,37a2.08,2.08,0,0,1-2,1.34,2,2,0,0,1-1.87-1.1,5,5,0,0,1-.52-2.45,6.16,6.16,0,0,1,.31-2,2.11,2.11,0,0,1,2.09-1.6A2.07,2.07,0,0,1,44.61,32.31ZM43.73,37a4.41,4.41,0,0,0,.4-2.26,5.75,5.75,0,0,0-.29-2A1.13,1.13,0,0,0,42.7,32a1.2,1.2,0,0,0-1.14.73,5.08,5.08,0,0,0-.36,2.16,5.3,5.3,0,0,0,.23,1.71,1.27,1.27,0,0,0,1.2,1A1.29,1.29,0,0,0,43.73,37Z" style="fill:#231f20"/><path d="M46.36,37.12h1v1.07h-1Z" style="fill:#231f20"/><path d="M49.24,33.23v-.67a3.48,3.48,0,0,0,1.33-.31,1.55,1.55,0,0,0,.56-1h.69v7h-.94v-5Z" style="fill:#231f20"/><path d="M57.36,31h1.39l2.06,6.07,2-6.07h1.38v7.18h-.92V34c0-.14,0-.39,0-.73s0-.7,0-1.08l-2.05,6h-1l-2.06-6v.22c0,.17,0,.44,0,.8s0,.62,0,.79v4.24h-.93Z" style="fill:#231f20"/><path d="M70.49,31.22a2.56,2.56,0,0,1,1.29,2h-1A1.78,1.78,0,0,0,70.1,32a2.39,2.39,0,0,0-1.36-.36,2.1,2.1,0,0,0-1.64.75,3.23,3.23,0,0,0-.67,2.23A3.6,3.6,0,0,0,67,36.74a2,2,0,0,0,1.8.8A2.27,2.27,0,0,0,70.35,37,2.4,2.4,0,0,0,71,35.15H68.75v-.8H71.9v3.84h-.63L71,37.26a3.79,3.79,0,0,1-.86.75,3.38,3.38,0,0,1-3.76-.46,3.94,3.94,0,0,1-1-2.84,4.13,4.13,0,0,1,1-2.87,3.06,3.06,0,0,1,2.37-1A3.61,3.61,0,0,1,70.49,31.22Z" style="fill:#231f20"/><path d="M73.54,31H76.4a2.69,2.69,0,0,1,2.27,1.05,3.9,3.9,0,0,1,.72,2.43A4.9,4.9,0,0,1,79,36.55a2.62,2.62,0,0,1-2.57,1.64H73.54Zm2.67,6.35a2.46,2.46,0,0,0,.79-.11,1.7,1.7,0,0,0,.91-.73,3.14,3.14,0,0,0,.41-1.11,4.11,4.11,0,0,0,.07-.75,3.52,3.52,0,0,0-.52-2.07,1.87,1.87,0,0,0-1.67-.74H74.52v5.51Z" style="fill:#231f20"/><path d="M40.63,6.92A2.94,2.94,0,0,1,41.9,5.7l.93-.54a4.43,4.43,0,0,0,.89-.63,1.31,1.31,0,0,0,.4-.93,1.31,1.31,0,0,0-.37-1,1.33,1.33,0,0,0-1-.36A1.28,1.28,0,0,0,41.52,3a2.45,2.45,0,0,0-.2,1h-.89a3.19,3.19,0,0,1,.33-1.49,2.12,2.12,0,0,1,2-1,2.19,2.19,0,0,1,1.75.65,2.18,2.18,0,0,1,.56,1.45A2,2,0,0,1,44.5,5a6,6,0,0,1-1.23.84l-.67.37a4.37,4.37,0,0,0-.75.51,1.79,1.79,0,0,0-.61.94h3.81v.83h-4.8A4.12,4.12,0,0,1,40.63,6.92Z" style="fill:#231f20"/><path d="M46.33,9.51A.61.61,0,0,0,46.81,9a1.33,1.33,0,0,0,.07-.43V8.55s0,0,0-.06h-.54V7.42h1.05v1a2.08,2.08,0,0,1-.24,1,1.06,1.06,0,0,1-.81.54Z" style="fill:#231f20"/><path d="M53,2.61A5.06,5.06,0,0,1,53.42,5,5.59,5.59,0,0,1,53,7.34a2.08,2.08,0,0,1-2,1.34,2,2,0,0,1-1.87-1.1,5,5,0,0,1-.52-2.45,6.16,6.16,0,0,1,.31-2A2.11,2.11,0,0,1,51,1.5,2.07,2.07,0,0,1,53,2.61Zm-.88,4.66A4.36,4.36,0,0,0,52.47,5a5.67,5.67,0,0,0-.29-2A1.12,1.12,0,0,0,51,2.29,1.19,1.19,0,0,0,49.9,3a5,5,0,0,0-.36,2.15,5.41,5.41,0,0,0,.23,1.72,1.25,1.25,0,0,0,2.3.38Z" style="fill:#231f20"/><path d="M55.17,6.79a1.12,1.12,0,0,0,.56,1,1.23,1.23,0,0,0,.61.15,1.35,1.35,0,0,0,1.07-.53A4.24,4.24,0,0,0,58,5.29a1.54,1.54,0,0,1-.72.65,2.24,2.24,0,0,1-.93.19,2.07,2.07,0,0,1-1.6-.63,2.29,2.29,0,0,1-.59-1.62,2.57,2.57,0,0,1,.58-1.67,2.34,2.34,0,0,1,3.82.65,4.78,4.78,0,0,1,.33,1.89A6.19,6.19,0,0,1,58.54,7a2.24,2.24,0,0,1-2.17,1.65,2.07,2.07,0,0,1-1.55-.54,1.83,1.83,0,0,1-.54-1.35ZM57.46,5a1.44,1.44,0,0,0,.43-1.2,1.55,1.55,0,0,0-.39-1.15,1.37,1.37,0,0,0-1-.37,1.27,1.27,0,0,0-1,.43,1.7,1.7,0,0,0-.38,1.15A1.67,1.67,0,0,0,55.44,5a1.34,1.34,0,0,0,1.06.4A1.51,1.51,0,0,0,57.46,5Z" style="fill:#231f20"/><path d="M60.09,6.92A3,3,0,0,1,61.36,5.7l.94-.54a4.3,4.3,0,0,0,.88-.63,1.27,1.27,0,0,0,.4-.93,1.27,1.27,0,0,0-.37-1,1.32,1.32,0,0,0-1-.36A1.27,1.27,0,0,0,61,3a2.29,2.29,0,0,0-.21,1h-.89a3.07,3.07,0,0,1,.34-1.49,2.1,2.1,0,0,1,2-1A2.21,2.21,0,0,1,64,2.12a2.17,2.17,0,0,1,.55,1.45A2,2,0,0,1,64,5a6,6,0,0,1-1.23.84l-.66.37a5,5,0,0,0-.76.51,1.79,1.79,0,0,0-.61.94h3.82v.83h-4.8A3.94,3.94,0,0,1,60.09,6.92Z" style="fill:#231f20"/><path d="M68.48,1.32h1.39l2.07,6.06,2-6.06h1.39V8.49h-.93V4.25c0-.14,0-.38,0-.72s0-.7,0-1.09l-2,6.05h-1L69.38,2.44v.22c0,.17,0,.44,0,.8s0,.63,0,.79V8.49h-.93Z" style="fill:#231f20"/><path d="M81.61,1.52a2.56,2.56,0,0,1,1.29,2h-1a1.77,1.77,0,0,0-.71-1.15A2.43,2.43,0,0,0,79.86,2a2.12,2.12,0,0,0-1.64.75A3.28,3.28,0,0,0,77.55,5,3.6,3.6,0,0,0,78.11,7a2,2,0,0,0,1.79.8,2.27,2.27,0,0,0,1.58-.56,2.37,2.37,0,0,0,.63-1.82H79.87V4.65H83V8.49h-.63l-.23-.92a3.59,3.59,0,0,1-.86.75,3.18,3.18,0,0,1-1.6.36,3.11,3.11,0,0,1-2.16-.83,4,4,0,0,1-1-2.84,4.09,4.09,0,0,1,1-2.86,3,3,0,0,1,2.37-1A3.58,3.58,0,0,1,81.61,1.52Z" style="fill:#231f20"/><path d="M84.66,1.32h2.87a2.71,2.71,0,0,1,2.26,1,3.94,3.94,0,0,1,.72,2.43,4.82,4.82,0,0,1-.43,2.07,2.61,2.61,0,0,1-2.56,1.63H84.66Zm2.68,6.34a2.87,2.87,0,0,0,.79-.1,1.75,1.75,0,0,0,.9-.74,3,3,0,0,0,.41-1.11A4.11,4.11,0,0,0,89.51,5,3.52,3.52,0,0,0,89,2.89a1.89,1.89,0,0,0-1.66-.74H85.64V7.66Z" style="fill:#231f20"/></g><circle cx="19" cy="22.42" r="17.5" style="fill:#2c594f"/><path d="M19,5.42a17,17,0,1,1-17,17,17,17,0,0,1,17-17m0-1a18,18,0,1,0,18,18,18,18,0,0,0-18-18Z" style="fill:#231f20"/><circle cx="19" cy="37.73" r="2" style="fill:#2c594f"/><path d="M19,36.23a1.5,1.5,0,1,1-1.5,1.5,1.5,1.5,0,0,1,1.5-1.5m0-1a2.5,2.5,0,1,0,2.5,2.5,2.5,2.5,0,0,0-2.5-2.5Z" style="fill:#231f20"/><line x1="19" y1="4.84" x2="38.76" y2="4.84" style="fill:none;stroke:#231f20;stroke-miterlimit:10;stroke-width:0.75px"/><line x1="19" y1="35.59" x2="38.76" y2="35.59" style="fill:none;stroke:#231f20;stroke-miterlimit:10;stroke-width:0.75px"/></g></svg>