<svg xmlns="http://www.w3.org/2000/svg" viewBox="0 0 39.23 28.48"><g id="thermo"><circle cx="10.79" cy="12.71" r="10" style="fill:#2c594f;stroke:#231f20;stroke-miterlimit:10"/><circle cx="10.79" cy="17.71" r="5" style="fill:#2c594f;stroke:#231f20;stroke-miterlimit:10"/><circle cx="10.79" cy="20.21" r="2.5" style="fill:#2c594f;stroke:#231f20;stroke-miterlimit:10"/><line x1="10.79" y1="2.6" x2="24.79" y2="2.6" style="fill:#4570a7;stroke:#231f20;stroke-miterlimit:10;stroke-width:0.75px"/><line x1="10.79" y1="12.62" x2="24.33" y2="12.62" style="fill:#4570a7;stroke:#231f20;stroke-miterlimit:10;stroke-width:0.75px"/><line x1="10.79" y1="17.59" x2="24.33" y2="17.59" style="fill:#4570a7;stroke:#231f20;stroke-miterlimit:10;stroke-width:0.75px"/><path d="M26,2a1.48,1.48,0,0,1,.1-.57A1.25,1.25,0,0,1,26.34,1a1.33,1.33,0,0,1,.44-.28,1.7,1.7,0,0,1,.57-.1,1.64,1.64,0,0,1,.56.1,1.09,1.09,0,0,1,.4.25.79.79,0,0,1,.25.37,1.13,1.13,0,0,1,.09.45,1.12,1.12,0,0,1-.1.5,1.41,1.41,0,0,1-.24.39A2,2,0,0,1,28,3c-.13.08-.26.17-.4.24l-.4.23a2.36,2.36,0,0,0-.35.23l-.2.16a1.62,1.62,0,0,0-.18.19,1,1,0,0,0-.12.23,1.07,1.07,0,0,0-.06.27h2.36v.32H25.85a2.38,2.38,0,0,1,.06-.55,1.17,1.17,0,0,1,.27-.48,2.64,2.64,0,0,1,.46-.43,4.25,4.25,0,0,1,.46-.32l.43-.26a2.07,2.07,0,0,0,.36-.25,1.07,1.07,0,0,0,.25-.32.87.87,0,0,0,.09-.42,1.06,1.06,0,0,0-.07-.37.79.79,0,0,0-.2-.27.83.83,0,0,0-.3-.18A1.36,1.36,0,0,0,27.3,1a.79.79,0,0,0-.38.09.76.76,0,0,0-.3.23,1.06,1.06,0,0,0-.19.33,1.13,1.13,0,0,0-.05.41Z" style="fill:#231f20"/><path d="M30.71,1.74h-1.1V1.49l.44-.05a1.13,1.13,0,0,0,.34-.11.75.75,0,0,0,.25-.25,1.27,1.27,0,0,0,.14-.43h.31V4.88h-.38Z" style="fill:#231f20"/><path d="M33.9.65a1.44,1.44,0,0,1,.54.1,1,1,0,0,1,.38.25,1.22,1.22,0,0,1,.26.38,2.27,2.27,0,0,1,.16.46,4,4,0,0,1,.07.5c0,.17,0,.34,0,.5a5.32,5.32,0,0,1-.06.81,2.36,2.36,0,0,1-.22.68,1.22,1.22,0,0,1-.44.46A1.27,1.27,0,0,1,33.9,5a1.33,1.33,0,0,1-.72-.18,1.17,1.17,0,0,1-.44-.47,2.15,2.15,0,0,1-.22-.69,5.49,5.49,0,0,1-.06-.83A4.93,4.93,0,0,1,32.52,2a2.06,2.06,0,0,1,.2-.69,1.3,1.3,0,0,1,.44-.49A1.35,1.35,0,0,1,33.9.65Zm1,2.15a4.92,4.92,0,0,0,0-.67,1.77,1.77,0,0,0-.15-.58,1.12,1.12,0,0,0-.32-.42A.91.91,0,0,0,33.89,1a.77.77,0,0,0-.52.16,1,1,0,0,0-.32.42,2.63,2.63,0,0,0-.16.6,5.07,5.07,0,0,0,0,.68,4.35,4.35,0,0,0,0,.75,1.68,1.68,0,0,0,.17.56.86.86,0,0,0,.83.49.86.86,0,0,0,.55-.16A1.07,1.07,0,0,0,34.76,4a2.42,2.42,0,0,0,.15-.59C34.93,3.23,34.94,3,34.94,2.8Z" style="fill:#231f20"/><path d="M37.23.65a1.44,1.44,0,0,1,.54.1,1,1,0,0,1,.39.25,1.42,1.42,0,0,1,.26.38,2.25,2.25,0,0,1,.15.46,2.74,2.74,0,0,1,.07.5,4.26,4.26,0,0,1,0,.5,5.32,5.32,0,0,1-.06.81,2.09,2.09,0,0,1-.22.68,1.19,1.19,0,0,1-.43.46,1.3,1.3,0,0,1-.72.18,1.27,1.27,0,0,1-.71-.18,1.11,1.11,0,0,1-.44-.47,1.93,1.93,0,0,1-.22-.69,5.49,5.49,0,0,1-.06-.83A6.53,6.53,0,0,1,35.85,2a2.33,2.33,0,0,1,.21-.69A1.22,1.22,0,0,1,36.5.84,1.31,1.31,0,0,1,37.23.65ZM38.28,2.8c0-.23,0-.45,0-.67a2.46,2.46,0,0,0-.15-.58,1.14,1.14,0,0,0-.33-.42A.87.87,0,0,0,37.22,1a.81.81,0,0,0-.52.16,1,1,0,0,0-.31.42,2.2,2.2,0,0,0-.16.6,5.06,5.06,0,0,0,0,.68,5.66,5.66,0,0,0,0,.75,1.94,1.94,0,0,0,.18.56.81.81,0,0,0,.32.36.87.87,0,0,0,.5.13.86.86,0,0,0,.55-.16A1.09,1.09,0,0,0,38.1,4a2,2,0,0,0,.14-.59A4.82,4.82,0,0,0,38.28,2.8Z" style="fill:#231f20"/><path d="M26.23,13.27a.93.93,0,0,0,.35.65,1.11,1.11,0,0,0,.69.21,1.18,1.18,0,0,0,.43-.08,1,1,0,0,0,.52-.57,1.49,1.49,0,0,0,.07-.43,1.22,1.22,0,0,0-.08-.43,1,1,0,0,0-.21-.34.83.83,0,0,0-.33-.22,1,1,0,0,0-.43-.08,1.24,1.24,0,0,0-.52.1,1.06,1.06,0,0,0-.4.34L26,12.37l.34-2.19h2.1v.33H26.67l-.27,1.42a1.93,1.93,0,0,1,.24-.13,1,1,0,0,1,.21-.09.85.85,0,0,1,.22,0l.26,0a1.57,1.57,0,0,1,.54.1,1.19,1.19,0,0,1,.42.28,1.11,1.11,0,0,1,.28.44,1.54,1.54,0,0,1,.1.58,1.4,1.4,0,0,1-.11.6,1.23,1.23,0,0,1-.3.44,1.17,1.17,0,0,1-.42.27,1.49,1.49,0,0,1-.51.1,2.53,2.53,0,0,1-.56-.06,1.46,1.46,0,0,1-.46-.2,1.14,1.14,0,0,1-.32-.37,1.32,1.32,0,0,1-.14-.56Z" style="fill:#231f20"/><path d="M29.39,11.53a1.7,1.7,0,0,1,.09-.57,1.44,1.44,0,0,1,.28-.44,1.28,1.28,0,0,1,.43-.28,1.7,1.7,0,0,1,.57-.1,1.6,1.6,0,0,1,.56.09,1.5,1.5,0,0,1,.41.25,1.09,1.09,0,0,1,.25.38,1.33,1.33,0,0,1,.08.45,1.28,1.28,0,0,1-.09.5,1.71,1.71,0,0,1-.59.68,4.37,4.37,0,0,1-.4.25l-.41.23a2.36,2.36,0,0,0-.35.23l-.2.16a1.54,1.54,0,0,0-.17.19.86.86,0,0,0-.13.23.76.76,0,0,0,0,.27H32v.32H29.26a2.29,2.29,0,0,1,.07-.55,1.14,1.14,0,0,1,.26-.48,3.05,3.05,0,0,1,.46-.43,5.53,5.53,0,0,1,.46-.32l.44-.26a2.36,2.36,0,0,0,.36-.26,1,1,0,0,0,.24-.31.9.9,0,0,0,.09-.42.87.87,0,0,0-.07-.37.8.8,0,0,0-.2-.28.92.92,0,0,0-.29-.17,1.11,1.11,0,0,0-.37,0,.92.92,0,0,0-.38.08,1.09,1.09,0,0,0-.29.23,1,1,0,0,0-.19.34,1.1,1.1,0,0,0-.06.41Z" style="fill:#231f20"/><path d="M34,10.14a1.53,1.53,0,0,1,.54.09,1.16,1.16,0,0,1,.38.26,1.12,1.12,0,0,1,.26.38,1.77,1.77,0,0,1,.15.46,4,4,0,0,1,.08.5c0,.17,0,.34,0,.5a5.32,5.32,0,0,1-.06.81,2.2,2.2,0,0,1-.21.67,1.25,1.25,0,0,1-.44.47,1.51,1.51,0,0,1-1.43,0,1.17,1.17,0,0,1-.44-.47,2.33,2.33,0,0,1-.22-.69,5.49,5.49,0,0,1-.06-.83,5.16,5.16,0,0,1,.06-.79,2.07,2.07,0,0,1,.2-.68,1.22,1.22,0,0,1,.44-.49A1.27,1.27,0,0,1,34,10.14Zm1,2.15a4.92,4.92,0,0,0,0-.67,2.34,2.34,0,0,0-.15-.58,1.14,1.14,0,0,0-.32-.42.92.92,0,0,0-.55-.15.81.81,0,0,0-.52.16,1,1,0,0,0-.31.42,2,2,0,0,0-.16.6,5.07,5.07,0,0,0,0,.68,4.24,4.24,0,0,0,0,.74,1.74,1.74,0,0,0,.17.57.86.86,0,0,0,.83.49.78.78,0,0,0,.54-.17,1,1,0,0,0,.32-.43,2,2,0,0,0,.14-.59A4.82,4.82,0,0,0,35,12.29Z" style="fill:#231f20"/><path d="M26.94,17.67H25.85v-.25l.43-.05a1,1,0,0,0,.34-.11.75.75,0,0,0,.25-.25,1.52,1.52,0,0,0,.15-.43h.3v4.23h-.38Z" style="fill:#231f20"/><path d="M29.79,18.46a3.68,3.68,0,0,0,.49,0,.9.9,0,0,0,.38-.13.6.6,0,0,0,.25-.25.76.76,0,0,0,.09-.4.64.64,0,0,0-.27-.57.9.9,0,0,0-.28-.13,1.34,1.34,0,0,0-.35,0,1.06,1.06,0,0,0-.37.06.92.92,0,0,0-.28.19.91.91,0,0,0-.19.29,1,1,0,0,0-.07.36h-.38a1.19,1.19,0,0,1,.1-.51,1.15,1.15,0,0,1,.31-.43,1,1,0,0,1,.45-.24,2.76,2.76,0,0,1,.51-.05,1.78,1.78,0,0,1,.47.07,1,1,0,0,1,.38.19.87.87,0,0,1,.26.33,1.08,1.08,0,0,1,.09.46,1,1,0,0,1-.14.57,1,1,0,0,1-.46.37,1.13,1.13,0,0,1,.38.19.94.94,0,0,1,.23.26.79.79,0,0,1,.11.29,1.69,1.69,0,0,1,0,.3,1.39,1.39,0,0,1-.09.5,1.15,1.15,0,0,1-.26.4,1.45,1.45,0,0,1-.43.28,1.71,1.71,0,0,1-.58.11,2.38,2.38,0,0,1-.63-.07,1.06,1.06,0,0,1-.45-.22,1,1,0,0,1-.29-.4,2.31,2.31,0,0,1-.13-.62h.38a1,1,0,0,0,.29.74,1.17,1.17,0,0,0,.76.24,1.25,1.25,0,0,0,.43-.07,1.63,1.63,0,0,0,.34-.21,1,1,0,0,0,.21-.31.92.92,0,0,0,.07-.36.94.94,0,0,0-.12-.43.84.84,0,0,0-.29-.27,1.36,1.36,0,0,0-.43-.13,2.94,2.94,0,0,0-.52,0Z" style="fill:#231f20"/><path d="M33.47,16.58a1.53,1.53,0,0,1,.54.1,1,1,0,0,1,.38.25,1.22,1.22,0,0,1,.26.38,1.77,1.77,0,0,1,.15.46,4,4,0,0,1,.08.5c0,.17,0,.34,0,.5a5.32,5.32,0,0,1-.06.81,2.35,2.35,0,0,1-.21.68,1.3,1.3,0,0,1-.44.46,1.51,1.51,0,0,1-1.43,0,1.17,1.17,0,0,1-.44-.47,2.15,2.15,0,0,1-.22-.69,5.49,5.49,0,0,1-.06-.83,4.93,4.93,0,0,1,.06-.78,2.06,2.06,0,0,1,.2-.69,1.22,1.22,0,0,1,.44-.49A1.35,1.35,0,0,1,33.47,16.58Zm1,2.15a4.92,4.92,0,0,0,0-.67,2.46,2.46,0,0,0-.15-.58,1.12,1.12,0,0,0-.32-.42.92.92,0,0,0-.55-.15.81.81,0,0,0-.52.16,1,1,0,0,0-.31.42,2.2,2.2,0,0,0-.16.6,5.07,5.07,0,0,0,0,.68,4.35,4.35,0,0,0,0,.75,1.68,1.68,0,0,0,.17.56.86.86,0,0,0,.83.49.83.83,0,0,0,.54-.16,1.09,1.09,0,0,0,.32-.44,2,2,0,0,0,.14-.59A4.82,4.82,0,0,0,34.51,18.73Z" style="fill:#231f20"/><circle cx="10.79" cy="26.5" r="0.5" style="fill:#2c594f"/><path d="M16.47,26.61l-3,1.41v-.38L16,26.46l-2.52-1.12V25l3,1.33Z" style="fill:#231f20"/><path d="M18.61,23.76a1.45,1.45,0,0,1,.54.09,1.19,1.19,0,0,1,.39.25,1.42,1.42,0,0,1,.26.38,3.53,3.53,0,0,1,.15.46,2.74,2.74,0,0,1,.07.5c0,.17,0,.34,0,.51a5.19,5.19,0,0,1-.06.8,2,2,0,0,1-.22.68,1.29,1.29,0,0,1-.43.47,1.39,1.39,0,0,1-.72.17,1.36,1.36,0,0,1-.71-.17,1.24,1.24,0,0,1-.44-.47,2.07,2.07,0,0,1-.22-.69,5.63,5.63,0,0,1-.06-.84,6.66,6.66,0,0,1,.05-.78,2.33,2.33,0,0,1,.21-.69,1.35,1.35,0,0,1,.43-.49A1.37,1.37,0,0,1,18.61,23.76Zm1.05,2.14c0-.22,0-.45,0-.66a2,2,0,0,0-.16-.59.94.94,0,0,0-.32-.41,1,1,0,0,0-1.06,0,1.1,1.1,0,0,0-.31.42,2.2,2.2,0,0,0-.16.6,5.21,5.21,0,0,0-.05.69,5.5,5.5,0,0,0,.05.74,2,2,0,0,0,.17.56,1,1,0,0,0,.33.37,1,1,0,0,0,.5.13.86.86,0,0,0,.55-.17,1.06,1.06,0,0,0,.32-.43,2.2,2.2,0,0,0,.14-.6A4.73,4.73,0,0,0,19.66,25.9Z" style="fill:#231f20"/></g></svg>