<svg xmlns="http://www.w3.org/2000/svg" viewBox="0 0 90.98 40.82"><g id="publicSupply"><g id="psText"><path d="M44.61,32.31a5.06,5.06,0,0,1,.47,2.37A5.59,5.59,0,0,1,44.65,37a2.08,2.08,0,0,1-2,1.34,2,2,0,0,1-1.87-1.1,5,5,0,0,1-.52-2.45,6.16,6.16,0,0,1,.31-2,2.11,2.11,0,0,1,2.09-1.6A2.07,2.07,0,0,1,44.61,32.31ZM43.73,37a4.41,4.41,0,0,0,.4-2.26,5.75,5.75,0,0,0-.29-2A1.13,1.13,0,0,0,42.7,32a1.2,1.2,0,0,0-1.14.73,5.08,5.08,0,0,0-.36,2.16,5.3,5.3,0,0,0,.23,1.71,1.27,1.27,0,0,0,1.2,1A1.29,1.29,0,0,0,43.73,37Z" style="fill:#231f20"/><path d="M46.36,37.12h1v1.07h-1Z" style="fill:#231f20"/><path d="M49.24,33.23v-.67a3.48,3.48,0,0,0,1.33-.31,1.55,1.55,0,0,0,.56-1h.69v7h-.94v-5Z" style="fill:#231f20"/><path d="M57.36,31h1.39l2.06,6.07,2-6.07h1.38v7.18h-.92V34c0-.14,0-.39,0-.73s0-.7,0-1.08l-2.05,6h-1l-2.06-6v.22c0,.17,0,.44,0,.8s0,.62,0,.79v4.24h-.93Z" style="fill:#231f20"/><path d="M70.49,31.22a2.56,2.56,0,0,1,1.29,2h-1A1.78,1.78,0,0,0,70.1,32a2.39,2.39,0,0,0-1.36-.36,2.1,2.1,0,0,0-1.64.75,3.23,3.23,0,0,0-.67,2.23A3.6,3.6,0,0,0,67,36.74a2,2,0,0,0,1.8.8A2.27,2.27,0,0,0,70.35,37,2.4,2.4,0,0,0,71,35.15H68.75v-.8H71.9v3.84h-.63L71,37.26a3.79,3.79,0,0,1-.86.75,3.38,3.38,0,0,1-3.76-.46,3.94,3.94,0,0,1-1-2.84,4.13,4.13,0,0,1,1-2.87,3.06,3.06,0,0,1,2.37-1A3.61,3.61,0,0,1,70.49,31.22Z" style="fill:#231f20"/><path d="M73.54,31H76.4a2.69,2.69,0,0,1,2.27,1.05,3.9,3.9,0,0,1,.72,2.43A4.9,4.9,0,0,1,79,36.55a2.62,2.62,0,0,1-2.57,1.64H73.54Zm2.67,6.35a2.46,2.46,0,0,0,.79-.11,1.7,1.7,0,0,0,.91-.73,3.14,3.14,0,0,0,.41-1.11,4.11,4.11,0,0,0,.07-.75,3.52,3.52,0,0,0-.52-2.07,1.87,1.87,0,0,0-1.67-.74H74.52v5.51Z" style="fill:#231f20"/><path d="M43.26,8.49V6.78H40.2V5.92l3.2-4.44h.74V6h1v.77h-1V8.49Zm0-2.48V2.84L41,6Z" style="fill:#231f20"/><path d="M50.17,2.61A5.06,5.06,0,0,1,50.64,5a5.76,5.76,0,0,1-.42,2.36,2.1,2.1,0,0,1-2,1.34,2,2,0,0,1-1.87-1.1,5,5,0,0,1-.51-2.45,6.18,6.18,0,0,1,.3-2A2.11,2.11,0,0,1,48.21,1.5,2.07,2.07,0,0,1,50.17,2.61Zm-.88,4.66A4.36,4.36,0,0,0,49.69,5a5.44,5.44,0,0,0-.29-2,1.12,1.12,0,0,0-1.14-.77A1.19,1.19,0,0,0,47.12,3a5,5,0,0,0-.36,2.15A5.41,5.41,0,0,0,47,6.89a1.25,1.25,0,0,0,2.3.38Z" style="fill:#231f20"/><path d="M52,4.4a1.38,1.38,0,0,1-.39-1A1.81,1.81,0,0,1,52.2,2a2.14,2.14,0,0,1,1.6-.56A2.21,2.21,0,0,1,55.38,2,1.62,1.62,0,0,1,56,3.24a1.62,1.62,0,0,1-.33,1.06,1.88,1.88,0,0,1-.58.45,2.51,2.51,0,0,1,.69.46,1.77,1.77,0,0,1,.46,1.27,2.19,2.19,0,0,1-.62,1.57,2.35,2.35,0,0,1-1.75.64,2.72,2.72,0,0,1-1.73-.56,1.91,1.91,0,0,1-.7-1.6,1.9,1.9,0,0,1,.3-1.08,1.88,1.88,0,0,1,.9-.69A1.55,1.55,0,0,1,52,4.4Zm2.83,3.16a1.2,1.2,0,0,0,.4-1,1.27,1.27,0,0,0-.41-1,1.61,1.61,0,0,0-1.06-.35,1.47,1.47,0,0,0-1,.36,1.25,1.25,0,0,0-.4,1,1.37,1.37,0,0,0,.36,1,1.49,1.49,0,0,0,1.13.4A1.53,1.53,0,0,0,54.85,7.56ZM54.69,4.1A1.07,1.07,0,0,0,55,3.32a1,1,0,0,0-.32-.71,1.23,1.23,0,0,0-1-.33,1.14,1.14,0,0,0-.91.33,1.11,1.11,0,0,0-.29.76,1,1,0,0,0,.37.78,1.41,1.41,0,0,0,.86.28A1.22,1.22,0,0,0,54.69,4.1Z" style="fill:#231f20"/><path d="M60.14,1.32h1.39L63.6,7.38l2.05-6.06H67V8.49H66.1V4.25c0-.14,0-.38,0-.72s0-.7,0-1.09L64.07,8.49h-1L61,2.44v.22c0,.17,0,.44,0,.8s0,.63,0,.79V8.49h-.93Z" style="fill:#231f20"/><path d="M73.27,1.52a2.56,2.56,0,0,1,1.29,2h-1a1.77,1.77,0,0,0-.71-1.15A2.43,2.43,0,0,0,71.52,2a2.12,2.12,0,0,0-1.64.75A3.28,3.28,0,0,0,69.21,5,3.6,3.6,0,0,0,69.77,7a2,2,0,0,0,1.79.8,2.27,2.27,0,0,0,1.58-.56,2.41,2.41,0,0,0,.64-1.82H71.53V4.65h3.15V8.49h-.63l-.23-.92a3.59,3.59,0,0,1-.86.75,3.18,3.18,0,0,1-1.6.36,3.11,3.11,0,0,1-2.16-.83,4,4,0,0,1-1-2.84,4.09,4.09,0,0,1,1-2.86,3,3,0,0,1,2.37-1A3.58,3.58,0,0,1,73.27,1.52Z" style="fill:#231f20"/><path d="M76.32,1.32h2.87a2.69,2.69,0,0,1,2.26,1.05,3.89,3.89,0,0,1,.72,2.42,4.82,4.82,0,0,1-.43,2.07,2.61,2.61,0,0,1-2.56,1.63H76.32ZM79,7.66a2.87,2.87,0,0,0,.79-.1,1.75,1.75,0,0,0,.9-.74,3,3,0,0,0,.41-1.11A4.11,4.11,0,0,0,81.17,5a3.52,3.52,0,0,0-.52-2.07A1.89,1.89,0,0,0,79,2.15H77.3V7.66Z" style="fill:#231f20"/></g><circle cx="19" cy="22.42" r="17.5" style="fill:#4570a7"/><path d="M19,5.42a17,17,0,1,1-17,17,17,17,0,0,1,17-17m0-1a18,18,0,1,0,18,18,18,18,0,0,0-18-18Z" style="fill:#231f20"/><circle cx="19" cy="37.73" r="2" style="fill:#4570a7"/><path d="M19,36.23a1.5,1.5,0,1,1-1.5,1.5,1.5,1.5,0,0,1,1.5-1.5m0-1a2.5,2.5,0,1,0,2.5,2.5,2.5,2.5,0,0,0-2.5-2.5Z" style="fill:#231f20"/><line x1="19" y1="4.84" x2="38.76" y2="4.84" style="fill:none;stroke:#231f20;stroke-miterlimit:10;stroke-width:0.75px"/><line x1="19" y1="35.59" x2="38.76" y2="35.59" style="fill:none;stroke:#231f20;stroke-miterlimit:10;stroke-width:0.75px"/></g></svg>