<svg xmlns="http://www.w3.org/2000/svg" viewBox="0 0 39.23 28.56"><g id="thermo"><circle cx="10.79" cy="12.71" r="10" style="fill:#4570a7;stroke:#231f20;stroke-miterlimit:10"/><circle cx="10.79" cy="17.71" r="5" style="fill:#4570a7;stroke:#231f20;stroke-miterlimit:10"/><circle cx="10.79" cy="20.21" r="2.5" style="fill:#4570a7;stroke:#231f20;stroke-miterlimit:10"/><line x1="10.79" y1="2.6" x2="24.79" y2="2.6" style="fill:#4570a7;stroke:#231f20;stroke-miterlimit:10;stroke-width:0.75px"/><line x1="10.79" y1="12.62" x2="24.33" y2="12.62" style="fill:#4570a7;stroke:#231f20;stroke-miterlimit:10;stroke-width:0.75px"/><line x1="10.79" y1="17.59" x2="24.33" y2="17.59" style="fill:#4570a7;stroke:#231f20;stroke-miterlimit:10;stroke-width:0.75px"/><path d="M27.78,3.84H25.85V3.51l2-2.81h.35V3.52h.59v.32h-.59v1h-.38Zm-1.56-.32h1.56V1.27Z" style="fill:#231f20"/><path d="M30.63.65a1.44,1.44,0,0,1,.54.1,1,1,0,0,1,.39.25,1.42,1.42,0,0,1,.26.38,1.77,1.77,0,0,1,.15.46,2.74,2.74,0,0,1,.07.5,4.26,4.26,0,0,1,0,.5,5.32,5.32,0,0,1-.06.81,2.09,2.09,0,0,1-.22.68,1.19,1.19,0,0,1-.43.46,1.3,1.3,0,0,1-.72.18,1.27,1.27,0,0,1-.71-.18,1.17,1.17,0,0,1-.44-.47,1.93,1.93,0,0,1-.22-.69,5.49,5.49,0,0,1-.06-.83A6.53,6.53,0,0,1,29.25,2a2.33,2.33,0,0,1,.21-.69A1.22,1.22,0,0,1,29.9.84,1.31,1.31,0,0,1,30.63.65ZM31.68,2.8a4.92,4.92,0,0,0,0-.67,2.46,2.46,0,0,0-.15-.58,1.23,1.23,0,0,0-.32-.42A.92.92,0,0,0,30.62,1a.81.81,0,0,0-.52.16,1,1,0,0,0-.31.42,2.2,2.2,0,0,0-.16.6,5.06,5.06,0,0,0-.05.68,4.3,4.3,0,0,0,.06.75,1.68,1.68,0,0,0,.17.56.81.81,0,0,0,.32.36.87.87,0,0,0,.5.13.84.84,0,0,0,.55-.16A1.09,1.09,0,0,0,31.5,4a2,2,0,0,0,.14-.59A4.82,4.82,0,0,0,31.68,2.8Z" style="fill:#231f20"/><path d="M34,.65a1.44,1.44,0,0,1,.54.1A1.14,1.14,0,0,1,34.9,1a1.39,1.39,0,0,1,.25.38,2.27,2.27,0,0,1,.16.46,4,4,0,0,1,.07.5c0,.17,0,.34,0,.5a5.32,5.32,0,0,1-.06.81,2.36,2.36,0,0,1-.22.68,1.22,1.22,0,0,1-.44.46A1.27,1.27,0,0,1,34,5a1.33,1.33,0,0,1-.72-.18,1.25,1.25,0,0,1-.44-.47,2.16,2.16,0,0,1-.21-.69,5.49,5.49,0,0,1-.06-.83A5,5,0,0,1,32.59,2a2.07,2.07,0,0,1,.21-.69,1.2,1.2,0,0,1,.43-.49A1.37,1.37,0,0,1,34,.65ZM35,2.8a4.92,4.92,0,0,0,0-.67,1.77,1.77,0,0,0-.15-.58,1,1,0,0,0-.32-.42A.91.91,0,0,0,34,1a.79.79,0,0,0-.52.16,1,1,0,0,0-.32.42,2.63,2.63,0,0,0-.15.6,3.82,3.82,0,0,0,0,.68,5.66,5.66,0,0,0,0,.75,2,2,0,0,0,.17.56.87.87,0,0,0,.32.36.92.92,0,0,0,.51.13.86.86,0,0,0,.55-.16A1.07,1.07,0,0,0,34.83,4,2,2,0,0,0,35,3.45C35,3.23,35,3,35,2.8Z" style="fill:#231f20"/><path d="M26.94,11.23H25.85V11l.43-.05a.86.86,0,0,0,.34-.12.64.64,0,0,0,.25-.24,1.52,1.52,0,0,0,.15-.43h.3v4.23h-.38Z" style="fill:#231f20"/><path d="M30.13,10.14a1.45,1.45,0,0,1,.54.09,1.33,1.33,0,0,1,.39.26,1.25,1.25,0,0,1,.25.38,2.27,2.27,0,0,1,.16.46,4,4,0,0,1,.07.5c0,.17,0,.34,0,.5a5.32,5.32,0,0,1-.06.81,2,2,0,0,1-.22.67,1.17,1.17,0,0,1-.44.47,1.27,1.27,0,0,1-.71.18,1.33,1.33,0,0,1-.72-.18,1.25,1.25,0,0,1-.44-.47,2.33,2.33,0,0,1-.21-.69,5.49,5.49,0,0,1-.06-.83,5.16,5.16,0,0,1,.05-.79,2.08,2.08,0,0,1,.21-.68,1.2,1.2,0,0,1,.43-.49A1.29,1.29,0,0,1,30.13,10.14Zm1,2.15c0-.23,0-.45,0-.67A2,2,0,0,0,31,11a1,1,0,0,0-.32-.42.91.91,0,0,0-.54-.15.79.79,0,0,0-.52.16,1.07,1.07,0,0,0-.32.42,2.39,2.39,0,0,0-.15.6,5.06,5.06,0,0,0-.05.68,5.5,5.5,0,0,0,.05.74,2.13,2.13,0,0,0,.17.57.87.87,0,0,0,.32.36.92.92,0,0,0,.51.13.81.81,0,0,0,.55-.17,1,1,0,0,0,.31-.43,2,2,0,0,0,.15-.59C31.16,12.72,31.17,12.5,31.17,12.29Z" style="fill:#231f20"/><path d="M33.47,10.14a1.53,1.53,0,0,1,.54.09,1.16,1.16,0,0,1,.38.26,1.12,1.12,0,0,1,.26.38,1.77,1.77,0,0,1,.15.46,4,4,0,0,1,.08.5c0,.17,0,.34,0,.5a5.32,5.32,0,0,1-.06.81,2.2,2.2,0,0,1-.21.67,1.25,1.25,0,0,1-.44.47,1.51,1.51,0,0,1-1.43,0,1.17,1.17,0,0,1-.44-.47,2.33,2.33,0,0,1-.22-.69,5.49,5.49,0,0,1-.06-.83,5.16,5.16,0,0,1,.06-.79,2.07,2.07,0,0,1,.2-.68,1.22,1.22,0,0,1,.44-.49A1.27,1.27,0,0,1,33.47,10.14Zm1,2.15a4.92,4.92,0,0,0,0-.67,2.34,2.34,0,0,0-.15-.58,1,1,0,0,0-.32-.42.92.92,0,0,0-.55-.15.81.81,0,0,0-.52.16,1,1,0,0,0-.31.42,2,2,0,0,0-.16.6,5.07,5.07,0,0,0,0,.68,4.24,4.24,0,0,0,0,.74,1.82,1.82,0,0,0,.17.57.86.86,0,0,0,.83.49A.78.78,0,0,0,34,14a1,1,0,0,0,.32-.43,2,2,0,0,0,.14-.59A4.82,4.82,0,0,0,34.51,12.29Z" style="fill:#231f20"/><path d="M26,18a1.48,1.48,0,0,1,.1-.57,1.25,1.25,0,0,1,.27-.44,1.33,1.33,0,0,1,.44-.28,1.7,1.7,0,0,1,.57-.1,1.64,1.64,0,0,1,.56.1,1.09,1.09,0,0,1,.4.25.79.79,0,0,1,.25.37,1.13,1.13,0,0,1,.09.45,1.12,1.12,0,0,1-.1.5,1.41,1.41,0,0,1-.24.39,2,2,0,0,1-.35.3l-.4.25-.4.22a2.36,2.36,0,0,0-.35.23l-.2.16a1.62,1.62,0,0,0-.18.19,1,1,0,0,0-.12.23,1.07,1.07,0,0,0-.06.27h2.36v.32H25.85a2.38,2.38,0,0,1,.06-.55,1.17,1.17,0,0,1,.27-.48,2.64,2.64,0,0,1,.46-.43A4.25,4.25,0,0,1,27.1,19l.43-.26a2.07,2.07,0,0,0,.36-.25,1.07,1.07,0,0,0,.25-.32.87.87,0,0,0,.09-.42,1.06,1.06,0,0,0-.07-.37.79.79,0,0,0-.2-.27.83.83,0,0,0-.3-.18,1.36,1.36,0,0,0-.36-.05.79.79,0,0,0-.38.09.76.76,0,0,0-.3.23,1.06,1.06,0,0,0-.19.33,1.13,1.13,0,0,0-.05.41Z" style="fill:#231f20"/><path d="M29.49,19.72a.92.92,0,0,0,.34.64,1.16,1.16,0,0,0,.7.21.93.93,0,0,0,.42-.08,1,1,0,0,0,.33-.23,1.27,1.27,0,0,0,.2-.34,1.43,1.43,0,0,0,.07-.43,1.22,1.22,0,0,0-.08-.43,1.08,1.08,0,0,0-.21-.34.83.83,0,0,0-.33-.22,1.18,1.18,0,0,0-.43-.08,1.38,1.38,0,0,0-.52.1,1.17,1.17,0,0,0-.4.34l-.32,0,.34-2.19h2.1V17H29.93l-.27,1.42.23-.13a.85.85,0,0,1,.22-.09l.22,0h.26a1.61,1.61,0,0,1,.54.09,1.34,1.34,0,0,1,.42.28,1.23,1.23,0,0,1,.28.44,1.54,1.54,0,0,1,.1.58,1.57,1.57,0,0,1-.11.6,1.33,1.33,0,0,1-.73.72,1.43,1.43,0,0,1-.5.09,2.47,2.47,0,0,1-.56-.06,1.37,1.37,0,0,1-.46-.2,1.14,1.14,0,0,1-.32-.37,1.43,1.43,0,0,1-.15-.55Z" style="fill:#231f20"/><circle cx="10.79" cy="26.71" r="0.5" style="fill:#4570a7"/><text transform="translate(12.98 28.2)" style="font-size:6px;fill:#231f20;font-family:Helvetica-Light, Helvetica;font-weight:300">&gt;0</text></g></svg>