<svg xmlns="http://www.w3.org/2000/svg" viewBox="0 0 39.23 28.53"><g id="thermo"><circle cx="10.79" cy="12.71" r="10" style="fill:#d44e27;stroke:#231f20;stroke-miterlimit:10"/><circle cx="10.79" cy="17.71" r="5" style="fill:#d44e27;stroke:#231f20;stroke-miterlimit:10"/><circle cx="10.79" cy="20.21" r="2.5" style="fill:#d44e27;stroke:#231f20;stroke-miterlimit:10"/><line x1="10.79" y1="2.6" x2="24.79" y2="2.6" style="fill:#4570a7;stroke:#231f20;stroke-miterlimit:10;stroke-width:0.75px"/><line x1="10.79" y1="12.62" x2="24.33" y2="12.62" style="fill:#4570a7;stroke:#231f20;stroke-miterlimit:10;stroke-width:0.75px"/><line x1="10.79" y1="17.59" x2="24.33" y2="17.59" style="fill:#4570a7;stroke:#231f20;stroke-miterlimit:10;stroke-width:0.75px"/><path d="M26,2a1.48,1.48,0,0,1,.1-.57A1.25,1.25,0,0,1,26.34,1a1.33,1.33,0,0,1,.44-.28,1.7,1.7,0,0,1,.57-.1,1.64,1.64,0,0,1,.56.1,1.09,1.09,0,0,1,.4.25.79.79,0,0,1,.25.37,1.13,1.13,0,0,1,.09.45,1.12,1.12,0,0,1-.1.5,1.41,1.41,0,0,1-.24.39A2,2,0,0,1,28,3l-.4.25-.4.22a2.36,2.36,0,0,0-.35.23l-.2.16a1.62,1.62,0,0,0-.18.19,1,1,0,0,0-.12.23,1.07,1.07,0,0,0-.06.27h2.36v.32H25.85a2.38,2.38,0,0,1,.06-.55,1.17,1.17,0,0,1,.27-.48,2.64,2.64,0,0,1,.46-.43,4.25,4.25,0,0,1,.46-.32l.43-.26a2.07,2.07,0,0,0,.36-.25,1.07,1.07,0,0,0,.25-.32.87.87,0,0,0,.09-.42,1.06,1.06,0,0,0-.07-.37.79.79,0,0,0-.2-.27.83.83,0,0,0-.3-.18A1.36,1.36,0,0,0,27.3,1a.79.79,0,0,0-.38.09.76.76,0,0,0-.3.23,1.06,1.06,0,0,0-.19.33,1.13,1.13,0,0,0-.05.41Z" style="fill:#231f20"/><path d="M29.25.7h2.69v.36a6.71,6.71,0,0,0-.77,1,7.93,7.93,0,0,0-.52,1.06,6.24,6.24,0,0,0-.31,1,5.22,5.22,0,0,0-.11.75h-.42a4.67,4.67,0,0,1,.18-1,7.72,7.72,0,0,1,.38-1,7.67,7.67,0,0,1,.52-1,8.23,8.23,0,0,1,.59-.84H29.25Z" style="fill:#231f20"/><path d="M33.9.65a1.44,1.44,0,0,1,.54.1,1,1,0,0,1,.38.25,1.22,1.22,0,0,1,.26.38,2.27,2.27,0,0,1,.16.46,4,4,0,0,1,.07.5c0,.17,0,.34,0,.5a5.32,5.32,0,0,1-.06.81,2.36,2.36,0,0,1-.22.68,1.22,1.22,0,0,1-.44.46A1.27,1.27,0,0,1,33.9,5a1.33,1.33,0,0,1-.72-.18,1.17,1.17,0,0,1-.44-.47,2.15,2.15,0,0,1-.22-.69,5.49,5.49,0,0,1-.06-.83A4.93,4.93,0,0,1,32.52,2a2.06,2.06,0,0,1,.2-.69,1.3,1.3,0,0,1,.44-.49A1.35,1.35,0,0,1,33.9.65Zm1,2.15a4.92,4.92,0,0,0,0-.67,1.77,1.77,0,0,0-.15-.58,1.12,1.12,0,0,0-.32-.42A.91.91,0,0,0,33.89,1a.77.77,0,0,0-.52.16,1,1,0,0,0-.32.42,2.63,2.63,0,0,0-.16.6,5.07,5.07,0,0,0,0,.68,4.35,4.35,0,0,0,0,.75,1.68,1.68,0,0,0,.17.56.86.86,0,0,0,.83.49.86.86,0,0,0,.55-.16A1.07,1.07,0,0,0,34.76,4a2.42,2.42,0,0,0,.15-.59C34.93,3.23,34.94,3,34.94,2.8Z" style="fill:#231f20"/><path d="M37.23.65a1.44,1.44,0,0,1,.54.1,1,1,0,0,1,.39.25,1.42,1.42,0,0,1,.26.38,2.25,2.25,0,0,1,.15.46,2.74,2.74,0,0,1,.07.5,4.26,4.26,0,0,1,0,.5,5.32,5.32,0,0,1-.06.81,2.09,2.09,0,0,1-.22.68,1.19,1.19,0,0,1-.43.46,1.3,1.3,0,0,1-.72.18,1.27,1.27,0,0,1-.71-.18,1.11,1.11,0,0,1-.44-.47,1.93,1.93,0,0,1-.22-.69,5.49,5.49,0,0,1-.06-.83A6.53,6.53,0,0,1,35.85,2a2.33,2.33,0,0,1,.21-.69A1.22,1.22,0,0,1,36.5.84,1.31,1.31,0,0,1,37.23.65ZM38.28,2.8c0-.23,0-.45,0-.67a2.46,2.46,0,0,0-.15-.58,1.14,1.14,0,0,0-.33-.42A.87.87,0,0,0,37.22,1a.81.81,0,0,0-.52.16,1,1,0,0,0-.31.42,2.2,2.2,0,0,0-.16.6,5.06,5.06,0,0,0,0,.68,5.66,5.66,0,0,0,0,.75,1.94,1.94,0,0,0,.18.56.81.81,0,0,0,.32.36.87.87,0,0,0,.5.13.86.86,0,0,0,.55-.16A1.09,1.09,0,0,0,38.1,4a2,2,0,0,0,.14-.59A4.82,4.82,0,0,0,38.28,2.8Z" style="fill:#231f20"/><path d="M28.22,11.18a1,1,0,0,0-.26-.52.73.73,0,0,0-.54-.19,1,1,0,0,0-.62.18,1.24,1.24,0,0,0-.34.47,2.1,2.1,0,0,0-.16.62c0,.23-.05.44-.07.64l.19-.24a1.1,1.1,0,0,1,.22-.21,1.4,1.4,0,0,1,.3-.15,1.16,1.16,0,0,1,.4-.06,1.31,1.31,0,0,1,1,.36,1.37,1.37,0,0,1,.35,1,1.37,1.37,0,0,1-.35,1,1.35,1.35,0,0,1-1,.37,1.63,1.63,0,0,1-.59-.11,1.12,1.12,0,0,1-.47-.34,1.85,1.85,0,0,1-.31-.63,3.26,3.26,0,0,1-.11-1,5.32,5.32,0,0,1,.06-.78,2.47,2.47,0,0,1,.24-.74,1.47,1.47,0,0,1,.47-.55,1.2,1.2,0,0,1,.76-.22,1.28,1.28,0,0,1,.84.27,1.06,1.06,0,0,1,.4.77Zm-.89.86a.87.87,0,0,0-.4.09.76.76,0,0,0-.3.23.89.89,0,0,0-.19.33,1.34,1.34,0,0,0-.07.4,1.19,1.19,0,0,0,.06.37.84.84,0,0,0,.16.33,1.05,1.05,0,0,0,.3.25,1,1,0,0,0,.44.09,1.08,1.08,0,0,0,.46-.09.71.71,0,0,0,.29-.25.84.84,0,0,0,.17-.34,1.58,1.58,0,0,0,.05-.38,1.1,1.1,0,0,0-.24-.76A.92.92,0,0,0,27.33,12Z" style="fill:#231f20"/><path d="M29.29,10.18H32v.36a7.28,7.28,0,0,0-.77,1.06,7.93,7.93,0,0,0-.52,1.06,5.23,5.23,0,0,0-.3,1,4.1,4.1,0,0,0-.12.75h-.42a4.67,4.67,0,0,1,.18-1,7.72,7.72,0,0,1,.38-1,9.18,9.18,0,0,1,.52-1,8.23,8.23,0,0,1,.59-.84H29.29Z" style="fill:#231f20"/><path d="M33.94,10.14a1.45,1.45,0,0,1,.54.09,1.33,1.33,0,0,1,.39.26,1.25,1.25,0,0,1,.25.38,2.27,2.27,0,0,1,.16.46,4,4,0,0,1,.07.5c0,.17,0,.34,0,.5a5.32,5.32,0,0,1-.06.81,2.2,2.2,0,0,1-.22.67,1.17,1.17,0,0,1-.44.47,1.27,1.27,0,0,1-.71.18,1.33,1.33,0,0,1-.72-.18,1.25,1.25,0,0,1-.44-.47,2.33,2.33,0,0,1-.21-.69,5.49,5.49,0,0,1-.06-.83,5.16,5.16,0,0,1,.05-.79,2.08,2.08,0,0,1,.21-.68,1.2,1.2,0,0,1,.43-.49A1.29,1.29,0,0,1,33.94,10.14Zm1,2.15a4.92,4.92,0,0,0,0-.67,1.7,1.7,0,0,0-.15-.58,1,1,0,0,0-.32-.42.91.91,0,0,0-.54-.15.79.79,0,0,0-.52.16,1,1,0,0,0-.32.42,2.89,2.89,0,0,0-.16.6,5.07,5.07,0,0,0,0,.68,5.5,5.5,0,0,0,0,.74,1.74,1.74,0,0,0,.17.57.87.87,0,0,0,.32.36.92.92,0,0,0,.51.13.81.81,0,0,0,.55-.17,1,1,0,0,0,.31-.43,2,2,0,0,0,.15-.59C35,12.72,35,12.5,35,12.29Z" style="fill:#231f20"/><path d="M26.94,17.67H25.85v-.25l.43-.05a1,1,0,0,0,.34-.11.75.75,0,0,0,.25-.25,1.52,1.52,0,0,0,.15-.43h.3v4.23h-.38Z" style="fill:#231f20"/><path d="M28.82,16.63h2.69V17a6.34,6.34,0,0,0-.77,1.06,6.64,6.64,0,0,0-.83,2,7.54,7.54,0,0,0-.12.75h-.42a4.73,4.73,0,0,1,.19-1,7.72,7.72,0,0,1,.38-1,9.11,9.11,0,0,1,.51-1,8.26,8.26,0,0,1,.6-.84H28.82Z" style="fill:#231f20"/><path d="M33.47,16.58a1.53,1.53,0,0,1,.54.1,1,1,0,0,1,.38.25,1.22,1.22,0,0,1,.26.38,1.77,1.77,0,0,1,.15.46,4,4,0,0,1,.08.5c0,.17,0,.34,0,.5a5.32,5.32,0,0,1-.06.81,2.35,2.35,0,0,1-.21.68,1.3,1.3,0,0,1-.44.46,1.51,1.51,0,0,1-1.43,0,1.17,1.17,0,0,1-.44-.47,2.15,2.15,0,0,1-.22-.69,5.49,5.49,0,0,1-.06-.83,4.93,4.93,0,0,1,.06-.78,2.06,2.06,0,0,1,.2-.69,1.22,1.22,0,0,1,.44-.49A1.35,1.35,0,0,1,33.47,16.58Zm1,2.15a4.92,4.92,0,0,0,0-.67,2.46,2.46,0,0,0-.15-.58,1.12,1.12,0,0,0-.32-.42.92.92,0,0,0-.55-.15.81.81,0,0,0-.52.16,1,1,0,0,0-.31.42,2.2,2.2,0,0,0-.16.6,5.07,5.07,0,0,0,0,.68,4.35,4.35,0,0,0,0,.75,1.68,1.68,0,0,0,.17.56.86.86,0,0,0,.83.49.83.83,0,0,0,.54-.16,1.09,1.09,0,0,0,.32-.44,2,2,0,0,0,.14-.59A4.82,4.82,0,0,0,34.51,18.73Z" style="fill:#231f20"/><circle cx="10.79" cy="26.67" r="0.5" style="fill:#d44e27"/><path d="M16.47,26.78l-3,1.41V27.8L16,26.62l-2.52-1.11v-.39l3,1.34Z" style="fill:#231f20"/><path d="M18.61,23.92a1.45,1.45,0,0,1,.54.09,1.21,1.21,0,0,1,.39.26,1.28,1.28,0,0,1,.26.38,2.81,2.81,0,0,1,.22,1c0,.17,0,.34,0,.5a5.32,5.32,0,0,1-.06.81,2,2,0,0,1-.22.67,1.22,1.22,0,0,1-.43.47,1.3,1.3,0,0,1-.72.17,1.27,1.27,0,0,1-.71-.17,1.17,1.17,0,0,1-.44-.47,2.07,2.07,0,0,1-.22-.69,5.49,5.49,0,0,1-.06-.83,6.84,6.84,0,0,1,.05-.79,2.35,2.35,0,0,1,.21-.68,1.21,1.21,0,0,1,.43-.49A1.29,1.29,0,0,1,18.61,23.92Zm1.05,2.15c0-.23,0-.45,0-.67a2,2,0,0,0-.16-.58,1,1,0,0,0-.32-.42,1,1,0,0,0-1.06,0,1.06,1.06,0,0,0-.31.43,2,2,0,0,0-.16.6,5.06,5.06,0,0,0-.05.68,5.5,5.5,0,0,0,.05.74,2.13,2.13,0,0,0,.17.57,1,1,0,0,0,.33.36.87.87,0,0,0,.5.13.81.81,0,0,0,.55-.17,1,1,0,0,0,.32-.43,2.13,2.13,0,0,0,.14-.59A4.82,4.82,0,0,0,19.66,26.07Z" style="fill:#231f20"/></g></svg>