<svg xmlns="http://www.w3.org/2000/svg" viewBox="0 0 90.98 40.82"><g id="thermo"><g id="thermoText"><text transform="translate(39.94 38.19)" style="font-size:10px;fill:#231f20;font-family:Helvetica">0.1 MGD</text><text transform="translate(39.94 8.49)" style="font-size:10px;fill:#231f20;font-family:Helvetica">2,692 MGD</text></g><circle cx="19" cy="22.42" r="17.5" style="fill:#d44e27"/><path d="M19,5.42a17,17,0,1,1-17,17,17,17,0,0,1,17-17m0-1a18,18,0,1,0,18,18,18,18,0,0,0-18-18Z" style="fill:#231f20"/><circle cx="19" cy="37.73" r="2" style="fill:#d44e27"/><path d="M19,36.23a1.5,1.5,0,1,1-1.5,1.5,1.5,1.5,0,0,1,1.5-1.5m0-1a2.5,2.5,0,1,0,2.5,2.5,2.5,2.5,0,0,0-2.5-2.5Z" style="fill:#231f20"/><line x1="19" y1="4.84" x2="38.76" y2="4.84" style="fill:none;stroke:#231f20;stroke-miterlimit:10;stroke-width:0.75px"/><line x1="19" y1="35.59" x2="38.76" y2="35.59" style="fill:none;stroke:#231f20;stroke-miterlimit:10;stroke-width:0.75px"/></g></svg>