<svg id="Layer_1" data-name="Layer 1" xmlns="http://www.w3.org/2000/svg" viewBox="0 0 55.49 38.58"><path d="M18.21,38.18A17.63,17.63,0,1,1,35.83,20.56,17.65,17.65,0,0,1,18.21,38.18Z" style="fill:#e5b348"/><path d="M18.21,3.31A17.25,17.25,0,1,1,1,20.56,17.27,17.27,0,0,1,18.21,3.31m0-.75a18,18,0,1,0,18,18,18,18,0,0,0-18-18Z" style="fill:#231f20"/><circle cx="18.21" cy="36.06" r="2.12" style="fill:#e5b348"/><path d="M18.21,34.31a1.75,1.75,0,1,1-1.75,1.75,1.75,1.75,0,0,1,1.75-1.75m0-.75a2.5,2.5,0,1,0,2.5,2.5,2.5,2.5,0,0,0-2.5-2.5Z" style="fill:#231f20"/><line x1="18.21" y1="2.88" x2="37.97" y2="2.88" style="fill:none;stroke:#231f20;stroke-miterlimit:10;stroke-width:0.5px"/><line x1="18.21" y1="33.88" x2="37.97" y2="33.88" style="fill:none;stroke:#231f20;stroke-miterlimit:10;stroke-width:0.5px"/><path d="M39.2,6.32H38.15L40.44,3,38.29-.13h1.09L41,2.34,42.63-.13h1L41.53,3l2.24,3.31H42.69L41,3.67Z" style="fill:#231f20"/><path d="M45.21,6.32H44.16L46.44,3,44.3-.13h1.09L47,2.34,48.63-.13h1L47.53,3l2.25,3.31H48.69L47,3.67Z" style="fill:#231f20"/><path d="M51.21,6.32H50.16L52.44,3,50.3-.13h1.09L53,2.34,54.64-.13h1L53.53,3l2.25,3.31H54.7L53,3.67Z" style="fill:#231f20"/><path d="M39.2,37H38.15l2.29-3.31-2.15-3.14h1.09L41,33l1.62-2.46h1l-2.14,3.14L43.77,37H42.69L41,34.37Z" style="fill:#231f20"/><path d="M45.21,37H44.15l2.29-3.31L44.3,30.57h1.09L47,33l1.61-2.46h1l-2.14,3.14L49.77,37H48.69L47,34.37Z" style="fill:#231f20"/><path d="M51.21,37H50.16l2.28-3.31L50.3,30.57h1.09L53,33l1.61-2.46h1l-2.14,3.14L55.78,37H54.7L53,34.37Z" style="fill:#231f20"/></svg>