<?xml version="1.0" encoding="utf-8"?>
<!-- Generator: Adobe Illustrator 23.1.1, SVG Export Plug-In . SVG Version: 6.00 Build 0)  -->
<svg version="1.1" id="Layer_1" xmlns="http://www.w3.org/2000/svg" xmlns:xlink="http://www.w3.org/1999/xlink" x="0px" y="0px"
	 viewBox="0 0 445.84 162.39" style="enable-background:new 0 0 445.84 162.39;" xml:space="preserve">
<style type="text/css">
	.st0{fill:#008457;}
	.st1{fill:#FFFFFF;}
</style>
<g>
	<g>
		<g>
			<path class="st1" d="M207.39,1.9v80.7c0,17.01-9.62,34.99-38.62,34.99c-26.16,0-38.78-13.56-38.78-34.99V1.9h23.81v79.13
				c0,14.02,6,19.55,14.67,19.55c10.39,0,15.14-6.94,15.14-19.55V1.9H207.39z"/>
			<path class="st1" d="M246.09,117.58c-29.47,0-34.98-17.34-33.73-37.03h23.81c0,10.86,0.48,20.02,13.55,20.02
				c8.04,0,11.99-5.21,11.99-12.93c0-20.49-47.93-21.75-47.93-55.64c0-17.81,8.51-32,37.51-32c23.16,0,34.68,10.41,33.09,34.21
				h-23.15c0-8.52-1.43-17.19-11.04-17.19c-7.72,0-12.3,4.26-12.3,12.14c0,21.59,47.92,19.69,47.92,55.48
				C285.81,114.12,264.22,117.58,246.09,117.58z"/>
			<path class="st1" d="M406.12,117.58c-29.49,0-35.01-17.34-33.76-37.03h23.81c0,10.86,0.47,20.02,13.55,20.02
				c8.05,0,11.98-5.21,11.98-12.93c0-20.49-47.92-21.75-47.92-55.64c0-17.81,8.52-32,37.52-32c23.17,0,34.67,10.41,33.1,34.21
				h-23.17c0-8.52-1.42-17.19-11.03-17.19c-7.72,0-12.29,4.26-12.29,12.14c0,21.59,47.93,19.69,47.93,55.48
				C445.84,114.12,424.23,117.58,406.12,117.58z"/>
			<path class="st1" d="M330.28,73.28h14.01v25.13l-1.15,0.43c-3.64,1.25-7.9,2.2-11.84,2.2c-13.55,0-17.02-6.3-17.02-41.92
				c0-22.07,0-42.09,14.82-42.09c11.52,0,13.97,7.79,14.18,17.19h23.69C367.17,12.12,352.95,0,330.53,0
				c-38.94,0-40.36,29.16-40.36,57.84c0,43.19,4.67,59.94,44.72,59.94c9.28,0,24.07-2.08,30.91-3.94c0.39-0.12,1.13-0.56,1.13-1.16
				c0-3.1,0-56.57,0-56.57h-36.64V73.28z"/>
		</g>
		<path class="st1" d="M30.67,40l0.39,0.38c11.16,9.33,23.19,8.43,32.36,2.34c5.79-3.85,31.91-21.22,46.69-31.05V1.87H0v25.91
			C6.72,26.6,17.52,27.74,30.67,40z"/>
		<path class="st1" d="M72.1,83.12L59.09,70.63c-1.83-1.66-3.39-2.87-3.74-3.14c-10.63-7.47-20.54-5.2-24.81-3.61
			c-1.29,0.52-2.53,1.23-3.41,1.77L0,83.83v32.88h110.11V93.04C107.7,94.58,92.79,102.65,72.1,83.12z"/>
		<path class="st1" d="M29.7,42.95c-0.58-0.55-1.24-1.14-1.82-1.61C14.87,31.27,2.59,36.21,0,37.43v11.31l6.37-4.28
			c0,0,9.82-7.28,25.1,0.19L29.7,42.95z"/>
		<path class="st1" d="M44.9,57.57c-0.57-0.51-1.15-1.03-1.73-1.58c-11.53-9.76-22.69-7.29-27.31-5.56
			c-1.31,0.52-2.56,1.23-3.45,1.78l-1.25,0.85l0,0L0,60.53v11.66L20.77,58.2c0,0,9.7-7.2,24.83,0.04L44.9,57.57z"/>
		<path class="st1" d="M110.13,69.78c-4.33,2.92-8.73,5.89-10.49,7.06c-3.91,2.61-12.98,9.11-28.07,1.91l1.77,1.7
			c0.66,0.6,1.47,1.29,2.36,1.97c10.83,8.11,22.41,6.94,31.08,1.18c1.21-0.79,2.31-1.52,3.34-2.21V69.78z"/>
		<path class="st1" d="M110.13,46.41c-9.5,6.4-22.34,15.03-24.76,16.65c-3.91,2.62-13.11,9.2-27.87,2.15l1.71,1.64
			c0.19,0.19,0.39,0.36,0.58,0.54l-0.02,0.02l0,0l0.02-0.02c11.46,9.7,24.08,8.22,32.75,2.43c4.88-3.25,11.82-7.94,17.59-11.87
			V46.41z"/>
		<path class="st1" d="M110.13,23.19c-13.71,9.19-36.2,24.28-38.94,26.08c-3.95,2.65-13.26,9.34-27.84,2.38l1.77,1.71
			c1.05,0.94,2.47,2.14,3.98,3.12c10.09,6.46,20.65,5.31,29.25-0.43c6.17-4.13,21.37-14.21,31.78-21.13V23.19z"/>
	</g>
	<g>
		<path class="st1" d="M5.53,149.1c-0.22,0.86-0.36,1.68-0.23,2.28c0.17,0.6,0.67,0.9,1.71,0.9s2.09-0.67,2.36-1.94
			c0.85-4-8.6-3.1-7.32-9.11c0.87-4.07,5.17-5.31,8.57-5.31c3.59,0,6.47,1.72,5.3,5.79h-5.16c0.28-1.31,0.3-2.09,0-2.43
			c-0.27-0.34-0.7-0.41-1.26-0.41c-1.16,0-1.95,0.75-2.22,2.02c-0.64,2.99,8.66,2.84,7.37,8.89c-0.7,3.29-3.92,5.75-8.29,5.75
			c-4.6,0-7.41-1.16-5.99-6.42H5.53z"/>
		<path class="st1" d="M28.87,143.01c0.6-2.8,0.09-3.74-1.56-3.74c-2.24,0-2.85,1.98-3.69,5.9c-1.23,5.75-1,6.99,0.94,6.99
			c1.64,0,2.75-1.49,3.27-3.96h5.27c-1.09,5.12-4.33,7.32-9.26,7.32c-6.8,0-6.81-4.15-5.55-10.05c1.1-5.15,2.79-9.56,9.73-9.56
			c4.86,0,7.16,2.17,6.11,7.1H28.87z"/>
		<path class="st1" d="M41.08,155.15h-5.27l4.02-18.86h5.27L41.08,155.15z M46.83,128.18l-0.88,4.15h-5.27l0.88-4.15H46.83z"/>
		<path class="st1" d="M52.44,146.56c-0.48,2.24-1.12,5.6,1.2,5.6c1.87,0,2.62-1.79,2.96-3.36h5.34c-0.51,2.05-1.55,3.73-3.06,4.89
			c-1.48,1.16-3.49,1.83-5.96,1.83c-6.8,0-6.81-4.15-5.55-10.05c1.1-5.15,2.79-9.56,9.73-9.56c7.1,0,6.9,4.6,5.42,10.65H52.44z
			 M57.89,143.61c0.39-1.83,1.02-4.45-1.48-4.45c-2.43,0-3,2.84-3.34,4.45H57.89z"/>
		<path class="st1" d="M73.32,138.19h0.08c0.71-0.86,1.46-1.42,2.24-1.75c0.83-0.37,1.72-0.52,2.69-0.52c2.5,0,4.39,1.49,3.83,4.11
			l-3.23,15.13h-5.27l2.77-13c0.36-1.68,0.34-2.99-1.34-2.99s-2.26,1.31-2.62,2.99l-2.77,13h-5.27l4.02-18.86h5.27L73.32,138.19z"/>
		<path class="st1" d="M95.32,143.01c0.6-2.8,0.09-3.74-1.56-3.74c-2.24,0-2.85,1.98-3.69,5.9c-1.23,5.75-1,6.99,0.94,6.99
			c1.64,0,2.75-1.49,3.27-3.96h5.27c-1.09,5.12-4.33,7.32-9.26,7.32c-6.8,0-6.81-4.15-5.55-10.05c1.1-5.15,2.79-9.56,9.73-9.56
			c4.86,0,7.16,2.17,6.11,7.1H95.32z"/>
		<path class="st1" d="M108.5,146.56c-0.48,2.24-1.12,5.6,1.2,5.6c1.87,0,2.62-1.79,2.96-3.36H118c-0.51,2.05-1.55,3.73-3.06,4.89
			c-1.48,1.16-3.49,1.83-5.96,1.83c-6.8,0-6.81-4.15-5.55-10.05c1.1-5.15,2.79-9.56,9.73-9.56c7.1,0,6.9,4.6,5.42,10.65H108.5z
			 M113.95,143.61c0.39-1.83,1.02-4.45-1.48-4.45c-2.43,0-3,2.84-3.34,4.45H113.95z"/>
		<path class="st1" d="M141.96,131.43c-2.1-0.15-2.72,0.67-3.13,2.58l-0.49,2.28h2.47l-0.69,3.25h-2.47l-3.33,15.61h-5.27
			l3.33-15.61h-2.35l0.69-3.25h2.39c1.12-5.42,1.28-8.29,7.71-8.29c0.63,0,1.23,0.04,1.85,0.08L141.96,131.43z"/>
		<path class="st1" d="M140.8,145.47c1.1-5.15,2.79-9.56,9.73-9.56c6.95,0,6.76,4.41,5.66,9.56c-1.26,5.9-3.04,10.05-9.84,10.05
			C139.55,155.52,139.54,151.38,140.8,145.47z M150.99,145.17c0.83-3.92,1.07-5.9-1.17-5.9c-2.24,0-2.85,1.98-3.69,5.9
			c-1.23,5.75-1,6.99,0.94,6.99S149.76,150.93,150.99,145.17z"/>
		<path class="st1" d="M166.9,136.28l-0.52,2.43h0.08c1.43-2.17,3.36-2.8,5.49-2.8l-1,4.71c-4.57-0.3-5.22,2.39-5.61,4.26
			l-2.19,10.27h-5.27l4.02-18.86H166.9z"/>
		<path class="st1" d="M193.67,151.64c-0.25,1.16-0.35,2.35-0.49,3.51h-4.89l0.31-2.5h-0.08c-1.53,1.94-3.26,2.88-5.54,2.88
			c-3.66,0-4.42-2.73-3.72-6.01c1.33-6.24,6.21-6.5,11.08-6.43l0.31-1.46c0.34-1.61,0.36-2.77-1.54-2.77
			c-1.83,0-2.27,1.38-2.59,2.88h-5.15c0.49-2.28,1.51-3.74,2.92-4.59c1.39-0.9,3.18-1.23,5.19-1.23c6.69,0,6.93,2.88,6.2,6.31
			L193.67,151.64z M184.45,149.28c-0.29,1.34-0.41,2.99,1.31,2.99c3.1,0,3.51-4.18,3.94-6.24
			C187.07,146.15,185.17,145.92,184.45,149.28z"/>
		<path class="st1" d="M217.78,143.01c0.6-2.8,0.09-3.74-1.56-3.74c-2.24,0-2.85,1.98-3.69,5.9c-1.23,5.75-1,6.99,0.94,6.99
			c1.64,0,2.75-1.49,3.27-3.96h5.27c-1.09,5.12-4.33,7.32-9.26,7.32c-6.8,0-6.81-4.15-5.55-10.05c1.1-5.15,2.79-9.56,9.73-9.56
			c4.86,0,7.16,2.17,6.11,7.1H217.78z"/>
		<path class="st1" d="M233.5,155.15l2.77-13c0.36-1.68,0.34-2.99-1.34-2.99c-1.68,0-2.26,1.31-2.62,2.99l-2.77,13h-5.27l5.75-26.97
			h5.27l-2.14,10.01h0.08c0.71-0.86,1.46-1.42,2.24-1.75c0.83-0.37,1.72-0.52,2.69-0.52c2.5,0,4.39,1.49,3.83,4.11l-3.23,15.13
			H233.5z"/>
		<path class="st1" d="M258.02,151.64c-0.25,1.16-0.35,2.35-0.49,3.51h-4.89l0.31-2.5h-0.08c-1.53,1.94-3.26,2.88-5.54,2.88
			c-3.66,0-4.42-2.73-3.72-6.01c1.33-6.24,6.21-6.5,11.08-6.43l0.31-1.46c0.34-1.61,0.36-2.77-1.54-2.77
			c-1.83,0-2.27,1.38-2.59,2.88h-5.15c0.49-2.28,1.51-3.74,2.92-4.59c1.39-0.9,3.18-1.23,5.19-1.23c6.69,0,6.93,2.88,6.2,6.31
			L258.02,151.64z M248.81,149.28c-0.29,1.34-0.41,2.99,1.31,2.99c3.1,0,3.51-4.18,3.94-6.24
			C251.42,146.15,249.52,145.92,248.81,149.28z"/>
		<path class="st1" d="M270.53,138.19h0.08c0.71-0.86,1.46-1.42,2.24-1.75c0.83-0.37,1.72-0.52,2.69-0.52c2.5,0,4.39,1.49,3.83,4.11
			l-3.23,15.13h-5.27l2.77-13c0.36-1.68,0.34-2.99-1.34-2.99c-1.68,0-2.26,1.31-2.62,2.99l-2.77,13h-5.27l4.02-18.86h5.27
			L270.53,138.19z"/>
		<path class="st1" d="M298.77,136.28l-4.19,19.65c-0.28,1.31-1.3,6.46-8.55,6.46c-3.92,0-7.07-1.01-6.2-5.6h5.15
			c-0.17,0.78-0.2,1.46,0.04,1.91c0.23,0.49,0.78,0.75,1.6,0.75c1.31,0,2.21-1.23,2.61-3.14l0.77-3.62h-0.07
			c-1.1,1.46-2.75,2.2-4.47,2.2c-5.79,0-4.4-5.3-3.49-9.56c0.88-4.15,2.08-9.41,7.57-9.41c1.87,0,3.3,0.82,3.67,2.58h0.08l0.47-2.2
			H298.77z M288.07,151.64c1.9,0,2.59-1.98,3.44-5.98c0.88-4.15,1.2-6.5-0.74-6.5c-1.98,0-2.61,1.38-3.84,7.14
			C286.55,148.05,285.53,151.64,288.07,151.64z"/>
		<path class="st1" d="M304.73,155.15h-5.27l4.02-18.86h5.27L304.73,155.15z M310.49,128.18l-0.88,4.15h-5.27l0.88-4.15H310.49z"/>
		<path class="st1" d="M318.29,138.19h0.08c0.71-0.86,1.46-1.42,2.24-1.75c0.83-0.37,1.72-0.52,2.69-0.52c2.5,0,4.39,1.49,3.83,4.11
			l-3.23,15.13h-5.27l2.77-13c0.36-1.68,0.34-2.99-1.34-2.99s-2.26,1.31-2.62,2.99l-2.77,13h-5.27l4.02-18.86h5.27L318.29,138.19z"
			/>
		<path class="st1" d="M346.53,136.28l-4.19,19.65c-0.28,1.31-1.3,6.46-8.55,6.46c-3.92,0-7.07-1.01-6.2-5.6h5.15
			c-0.17,0.78-0.2,1.46,0.04,1.91c0.23,0.49,0.78,0.75,1.6,0.75c1.31,0,2.21-1.23,2.61-3.14l0.77-3.62h-0.07
			c-1.1,1.46-2.75,2.2-4.47,2.2c-5.79,0-4.4-5.3-3.49-9.56c0.88-4.15,2.08-9.41,7.57-9.41c1.87,0,3.3,0.82,3.67,2.58h0.08l0.47-2.2
			H346.53z M335.83,151.64c1.9,0,2.59-1.98,3.44-5.98c0.88-4.15,1.2-6.5-0.74-6.5c-1.98,0-2.61,1.38-3.84,7.14
			C334.31,148.05,333.29,151.64,335.83,151.64z"/>
		<path class="st1" d="M357.42,136.28h5.23l-0.45,14.19h0.08l6.65-14.19h5.45l0.3,14.19h0.07l5.87-14.19h5.04l-9.14,18.86h-5.53
			l-0.65-12.89h-0.07l-6.56,12.89h-5.6L357.42,136.28z"/>
		<path class="st1" d="M385.76,145.47c1.1-5.15,2.79-9.56,9.74-9.56s6.75,4.41,5.66,9.56c-1.26,5.9-3.04,10.05-9.84,10.05
			C384.52,155.52,384.5,151.38,385.76,145.47z M395.95,145.17c0.84-3.92,1.07-5.9-1.17-5.9c-2.24,0-2.85,1.98-3.68,5.9
			c-1.23,5.75-1.01,6.99,0.94,6.99C393.97,152.16,394.72,150.93,395.95,145.17z"/>
		<path class="st1" d="M411.86,136.28l-0.52,2.43h0.07c1.43-2.17,3.36-2.8,5.49-2.8l-1.01,4.71c-4.57-0.3-5.22,2.39-5.61,4.26
			l-2.19,10.27h-5.27l4.02-18.86H411.86z"/>
		<path class="st1" d="M426.74,128.18L421,155.15h-5.27l5.75-26.97H426.74z"/>
		<path class="st1" d="M435.08,155.15l0.45-2.09h-0.07c-1.36,1.83-2.95,2.46-4.97,2.46c-5.45,0-3.98-6.05-3.15-9.94
			c0.81-3.81,1.91-9.68,7.22-9.68c1.91,0,3.09,0.56,3.83,2.17h0.08l2.11-9.9h5.27l-5.75,26.97H435.08z M436.87,145.55
			c0.81-3.77,1.4-6.39-0.77-6.39c-2.28,0-2.8,2.61-3.6,6.39c-1.01,4.74-1.1,6.72,0.81,6.72
			C435.1,152.27,435.86,150.29,436.87,145.55z"/>
	</g>
</g>
</svg>
