<svg xmlns="http://www.w3.org/2000/svg" viewBox="0 0 792 296.06"><defs><style>.cls-1{fill:#f7941d;}.cls-2,.cls-3{fill:#231f20;}.cls-3{opacity:0;}.cls-4{fill:#ed1c24;}.cls-5{fill:#8dc63f;}.cls-6{fill:#27aae1;}</style></defs><g id="fallGroup"><rect class="cls-1" x="594" y="90.68" width="28.29" height="160.4"/><rect class="cls-1" x="622.29" y="177.04" width="28.29" height="74.04"/><rect class="cls-1" x="650.57" y="75.29" width="28.29" height="175.78"/><rect class="cls-1" x="678.86" y="57.29" width="28.29" height="193.79"/><rect class="cls-1" x="707.14" y="139.13" width="28.29" height="111.95"/><rect class="cls-1" x="735.43" y="103" width="28.29" height="148.07"/><rect class="cls-1" x="763.71" y="35.26" width="28.29" height="215.82"/><path class="cls-2" d="M675.59,272.06h7.28v2.37h-7.28v11.34H673V260.94h11v2.34h-8.43Z"/><path class="cls-2" d="M696.22,272.27v13.5h-2.34V284a4.16,4.16,0,0,1-3.78,2,4.34,4.34,0,0,1-3.52-1.46,6.14,6.14,0,0,1-1.23-4.08,5.38,5.38,0,0,1,1.42-3.95,5.61,5.61,0,0,1,4.12-1.42h2.88v-3q0-3.14-2.88-3.14a2.78,2.78,0,0,0-2,.72,2.74,2.74,0,0,0-.72,2v.29h-2.3v-.33a4.64,4.64,0,0,1,1.38-3.56,6,6,0,0,1,7.65.13A5.44,5.44,0,0,1,696.22,272.27Zm-2.45,8.18V277h-2.62c-2.24,0-3.35,1.16-3.35,3.49s1,3.46,2.88,3.46A2.89,2.89,0,0,0,693,283,3.75,3.75,0,0,0,693.77,280.45Z"/><path class="cls-2" d="M700.47,280.84v-19.9H703v19.79c0,1.9.86,2.85,2.56,2.85h.54v2.19h-.61a5,5,0,0,1-3.69-1.26A4.93,4.93,0,0,1,700.47,280.84Z"/><path class="cls-2" d="M708.89,280.84v-19.9h2.49v19.79q0,2.85,2.55,2.85h.54v2.19h-.61a5,5,0,0,1-3.69-1.26A4.93,4.93,0,0,1,708.89,280.84Z"/><rect id="Fall" class="cls-3" x="593.89" width="198" height="296.06"/></g><g id="summerGroup"><rect class="cls-4" x="396" y="51.84" width="28.29" height="199.23"/><rect class="cls-4" x="424.29" y="203.3" width="28.29" height="47.77"/><rect class="cls-4" x="452.57" y="103" width="28.29" height="148.07"/><rect class="cls-4" x="480.86" y="30.82" width="28.29" height="220.26"/><rect class="cls-4" x="509.14" y="68.87" width="28.29" height="182.2"/><rect class="cls-4" x="537.43" y="145" width="28.29" height="106.08"/><rect class="cls-4" x="565.71" y="48.86" width="28.29" height="202.22"/><path class="cls-2" d="M445,279h2.56a5.62,5.62,0,0,0,1.13,3.62,3.81,3.81,0,0,0,2.93,1.09,3.64,3.64,0,0,0,2.9-1.09,5,5,0,0,0,.95-3.37,4.59,4.59,0,0,0-.84-3,7.91,7.91,0,0,0-3-1.9l-1.44-.58a8.81,8.81,0,0,1-3.67-2.48,6.27,6.27,0,0,1-1.23-4.07,6.72,6.72,0,0,1,1.71-4.83,6.21,6.21,0,0,1,4.7-1.8,6,6,0,0,1,4.5,1.68,7.36,7.36,0,0,1,1.8,5h-2.49c-.16-2.9-1.45-4.36-3.85-4.36a3.54,3.54,0,0,0-2.8,1.08,4.52,4.52,0,0,0-.94,3.06,4.18,4.18,0,0,0,.85,2.78,7.11,7.11,0,0,0,2.89,1.8l1.48.57a8.71,8.71,0,0,1,3.74,2.56,6.93,6.93,0,0,1,1.26,4.43,7,7,0,0,1-1.69,5.05,6.42,6.42,0,0,1-4.89,1.78,6.17,6.17,0,0,1-4.81-1.8A7.82,7.82,0,0,1,445,279Z"/><path class="cls-2" d="M461.48,280.05V267.16h2.45v11.23a10.58,10.58,0,0,0,.6,4.21,2.33,2.33,0,0,0,2.35,1.26,2.62,2.62,0,0,0,1.8-.54,3,3,0,0,0,.85-1.69,17,17,0,0,0,.23-3.24V267.16h2.45v12.89a6.74,6.74,0,0,1-1.31,4.52,6.25,6.25,0,0,1-8.1,0A6.68,6.68,0,0,1,461.48,280.05Z"/><path class="cls-2" d="M478.87,267.16v1.69a4,4,0,0,1,1.5-1.44,4.23,4.23,0,0,1,2.14-.54,4.49,4.49,0,0,1,2.37.63,4.62,4.62,0,0,1,1.66,1.71,4.86,4.86,0,0,1,1.74-1.72,4.65,4.65,0,0,1,2.36-.62,4.47,4.47,0,0,1,3.6,1.43,5.92,5.92,0,0,1,1.22,4v13.46H493V272.42a3.66,3.66,0,0,0-.77-2.49,2.67,2.67,0,0,0-2.07-.86A2.75,2.75,0,0,0,488,270a3.46,3.46,0,0,0-.81,2.43v13.39h-2.45V272.42A3.61,3.61,0,0,0,484,270a2.72,2.72,0,0,0-2.13-.88,2.64,2.64,0,0,0-2.08.88,3.56,3.56,0,0,0-.8,2.47v13.35h-2.48V267.16Z"/><path class="cls-2" d="M502.13,267.16v1.69a4,4,0,0,1,1.49-1.44,4.28,4.28,0,0,1,2.14-.54,4.53,4.53,0,0,1,2.38.63,4.59,4.59,0,0,1,1.65,1.71,4.88,4.88,0,0,1,1.75-1.72,4.62,4.62,0,0,1,2.36-.62,4.5,4.5,0,0,1,3.6,1.43,6,6,0,0,1,1.22,4v13.46h-2.48V272.42a3.61,3.61,0,0,0-.78-2.49,2.64,2.64,0,0,0-2.07-.86,2.77,2.77,0,0,0-2.14.88,3.46,3.46,0,0,0-.81,2.43v13.39H508V272.42a3.56,3.56,0,0,0-.79-2.47,2.7,2.7,0,0,0-2.12-.88A2.66,2.66,0,0,0,503,270a3.56,3.56,0,0,0-.79,2.47v13.35h-2.48V267.16Z"/><path class="cls-2" d="M525.09,279.4a5.61,5.61,0,0,0,.85,3.49,2.89,2.89,0,0,0,2.39,1.05q3,0,3-3.71v-.15h2.41v.11a6.11,6.11,0,0,1-1.42,4.39,5.31,5.31,0,0,1-4,1.48q-5.61,0-5.61-6.62v-6a7.17,7.17,0,0,1,1.46-4.9,5.12,5.12,0,0,1,4-1.66,5.25,5.25,0,0,1,4.09,1.66,7.08,7.08,0,0,1,1.49,4.9v3.77h-8.64Zm0-5.9v1.83h6.23v-1.9a5.4,5.4,0,0,0-.81-3.35,2.81,2.81,0,0,0-2.32-1,2.7,2.7,0,0,0-2.3,1A5.61,5.61,0,0,0,525.09,273.5Z"/><path class="cls-2" d="M540,267.16V269a3.9,3.9,0,0,1,1.62-1.6,4.87,4.87,0,0,1,2.27-.53,5.24,5.24,0,0,1,1.33.15v2.37a5.8,5.8,0,0,0-1.8-.32A3.26,3.26,0,0,0,541,270a3.45,3.45,0,0,0-.93,2.55v13.21h-2.45V267.16Z"/><rect id="Summer" class="cls-3" x="395.89" width="198" height="296.06"/></g><g id="springGroup"><rect class="cls-5" x="198" y="30.82" width="28.29" height="220.26"/><rect class="cls-5" x="226.29" width="28.29" height="251.08"/><rect class="cls-5" x="254.57" y="83.58" width="28.29" height="167.49"/><rect class="cls-5" x="282.86" y="38.92" width="28.29" height="212.16"/><rect class="cls-5" x="311.14" y="21.81" width="28.29" height="229.26"/><rect class="cls-5" x="339.43" y="79.45" width="28.29" height="171.63"/><rect class="cls-5" x="367.71" y="155.53" width="28.29" height="95.55"/><path class="cls-2" d="M259,279h2.55a5.56,5.56,0,0,0,1.14,3.62,3.81,3.81,0,0,0,2.93,1.09,3.64,3.64,0,0,0,2.9-1.09,5.09,5.09,0,0,0,.95-3.37,4.59,4.59,0,0,0-.84-3,8,8,0,0,0-3.05-1.9l-1.44-.58a8.88,8.88,0,0,1-3.67-2.48,6.33,6.33,0,0,1-1.22-4.07,6.72,6.72,0,0,1,1.71-4.83,6.2,6.2,0,0,1,4.7-1.8,6.05,6.05,0,0,1,4.5,1.68,7.36,7.36,0,0,1,1.8,5h-2.49c-.17-2.9-1.45-4.36-3.85-4.36a3.56,3.56,0,0,0-2.81,1.08,4.57,4.57,0,0,0-.93,3.06,4.23,4.23,0,0,0,.84,2.78,7.16,7.16,0,0,0,2.9,1.8l1.48.57a8.71,8.71,0,0,1,3.74,2.56,6.93,6.93,0,0,1,1.26,4.43,7,7,0,0,1-1.69,5.05,6.43,6.43,0,0,1-4.9,1.78,6.16,6.16,0,0,1-4.8-1.8A7.77,7.77,0,0,1,259,279Z"/><path class="cls-2" d="M278,267.16V269a3.88,3.88,0,0,1,3.53-2.09,4.52,4.52,0,0,1,3.58,1.57,7.15,7.15,0,0,1,1.35,4.77v6.52a7.14,7.14,0,0,1-1.35,4.76,4.44,4.44,0,0,1-3.55,1.57,4,4,0,0,1-3.56-1.94v7.12h-2.45V267.16Zm6,12.28V273.5q0-4.42-2.92-4.43a2.65,2.65,0,0,0-2.3,1.13,5.81,5.81,0,0,0-.79,3.33v5.94a5.65,5.65,0,0,0,.79,3.28,2.66,2.66,0,0,0,2.3,1.11,2.52,2.52,0,0,0,2.18-1A6,6,0,0,0,284,279.44Z"/><path class="cls-2" d="M292.77,267.16V269a3.9,3.9,0,0,1,1.62-1.6,4.84,4.84,0,0,1,2.27-.53A5.35,5.35,0,0,1,298,267v2.37a5.9,5.9,0,0,0-1.8-.32,3.22,3.22,0,0,0-2.41.94,3.41,3.41,0,0,0-.94,2.55v13.21h-2.45V267.16Z"/><path class="cls-2" d="M303.53,261v3.24h-2.48V261Zm0,6.19v18.61h-2.45V267.16Z"/><path class="cls-2" d="M310.37,267.16v1.69a4,4,0,0,1,1.51-1.44,4.38,4.38,0,0,1,2.16-.54,4.3,4.3,0,0,1,3.46,1.44,6,6,0,0,1,1.22,4v13.46h-2.45V272.42a3.56,3.56,0,0,0-.79-2.49,3,3,0,0,0-4.23,0,3.52,3.52,0,0,0-.81,2.47v13.35H308V267.16Z"/><path class="cls-2" d="M322.86,286.89h2.34a2.72,2.72,0,0,0,.83,1.89,2.9,2.9,0,0,0,2.05.7,2.65,2.65,0,0,0,2.31-1,5.27,5.27,0,0,0,.72-3.06v-2.73a3.93,3.93,0,0,1-3.57,1.94,4.43,4.43,0,0,1-3.54-1.57,7.08,7.08,0,0,1-1.35-4.73v-5.15a7.08,7.08,0,0,1,1.35-4.73,4.46,4.46,0,0,1,3.54-1.57,3.87,3.87,0,0,1,3.57,2.09v-1.8h2.44v18a7.44,7.44,0,0,1-1.35,4.68,4.9,4.9,0,0,1-4.12,1.72,5.34,5.34,0,0,1-3.79-1.26A4.73,4.73,0,0,1,322.86,286.89Zm8.25-8.86V273.5c0-2.95-1-4.43-3.1-4.43a2.55,2.55,0,0,0-2.14,1,5.62,5.62,0,0,0-.78,3.38V278a5.93,5.93,0,0,0,.74,3.39,2.54,2.54,0,0,0,2.18,1,2.63,2.63,0,0,0,2.3-1.11A5.63,5.63,0,0,0,331.11,278Z"/><rect id="Spring" class="cls-3" x="197.89" width="198" height="296.06"/></g><g id="winterGroup"><rect class="cls-6" width="28.29" height="251.08"/><rect class="cls-6" x="28.29" y="27.19" width="28.29" height="223.89"/><rect class="cls-6" x="56.57" y="75.29" width="28.29" height="175.78"/><rect class="cls-6" x="84.86" y="43.53" width="28.29" height="207.54"/><rect class="cls-6" x="113.14" y="21.81" width="28.29" height="229.26"/><rect class="cls-6" x="141.43" y="125.54" width="28.29" height="125.54"/><rect class="cls-6" x="169.71" y="65.46" width="28.29" height="185.62"/><path class="cls-2" d="M77,285.77H74.23l-3.82-20.95-3.77,20.95H63.83l-4.9-24.83h2.74l3.6,20.87,3.49-20.87h3.45l3.53,20.87,3.53-20.87h2.59Z"/><path class="cls-2" d="M86.72,261v3.24H84.24V261Zm0,6.19v18.61H84.24V267.16Z"/><path class="cls-2" d="M93.56,267.16v1.69a4,4,0,0,1,1.52-1.44,4.75,4.75,0,0,1,5.61.9,6,6,0,0,1,1.22,4v13.46H99.47V272.42a3.56,3.56,0,0,0-.8-2.49,3,3,0,0,0-4.22,0,3.52,3.52,0,0,0-.81,2.47v13.35H91.19V267.16Z"/><path class="cls-2" d="M109.62,280.77a3,3,0,0,0,.68,2.14,2.79,2.79,0,0,0,2.09.7h.51v2.16h-.62c-3.4,0-5.11-1.63-5.11-4.89V269.07H104.8v-1.91h2.37v-3.88l2.45-1.12v5h3.56v1.91h-3.56Z"/><path class="cls-2" d="M118.51,279.4a5.55,5.55,0,0,0,.85,3.49,2.89,2.89,0,0,0,2.39,1.05q3,0,3-3.71v-.15h2.41v.11a6.07,6.07,0,0,1-1.42,4.39,5.28,5.28,0,0,1-4,1.48q-5.61,0-5.62-6.62v-6a7.22,7.22,0,0,1,1.46-4.9,5.12,5.12,0,0,1,4-1.66,5.25,5.25,0,0,1,4.09,1.66,7.13,7.13,0,0,1,1.49,4.9v3.77h-8.64Zm0-5.9v1.83h6.23v-1.9a5.4,5.4,0,0,0-.81-3.35,2.82,2.82,0,0,0-2.32-1,2.73,2.73,0,0,0-2.31,1A5.69,5.69,0,0,0,118.51,273.5Z"/><path class="cls-2" d="M133.45,267.16V269a3.9,3.9,0,0,1,1.62-1.6,4.84,4.84,0,0,1,2.27-.53,5.29,5.29,0,0,1,1.33.15v2.37a5.9,5.9,0,0,0-1.8-.32,3.24,3.24,0,0,0-2.41.94,3.41,3.41,0,0,0-.94,2.55v13.21h-2.44V267.16Z"/><rect id="Winter" class="cls-3" width="198" height="296.06"/></g></svg>